G04*
G04 #@! TF.GenerationSoftware,Altium Limited,Altium Designer,18.1.7 (191)*
G04*
G04 Layer_Color=16711935*
%FSLAX44Y44*%
%MOMM*%
G71*
G01*
G75*
%ADD11C,2.5032*%
%ADD12R,2.4301X2.4301*%
%ADD17R,3.2032X5.2032*%
D11*
X1512000Y1470000D02*
D03*
X1470000D02*
D03*
X1428000D02*
D03*
X1512000Y1512000D02*
D03*
X1470000D02*
D03*
X1470000Y1722000D02*
D03*
X1428000D02*
D03*
X1470000Y1764000D02*
D03*
X1806000Y1722000D02*
D03*
X1764000D02*
D03*
X1680000Y1764000D02*
D03*
X1722000D02*
D03*
X1764000D02*
D03*
X1806000D02*
D03*
X1638000Y1722000D02*
D03*
X1680000D02*
D03*
X1722000D02*
D03*
Y1512000D02*
D03*
X1764000D02*
D03*
X1806000D02*
D03*
X1680000Y1470000D02*
D03*
X1722000D02*
D03*
X1764000D02*
D03*
X1806000D02*
D03*
D12*
X1428000Y1512000D02*
D03*
X1428000Y1764000D02*
D03*
X1638000D02*
D03*
X1680000Y1512000D02*
D03*
D17*
X1302000Y1365000D02*
D03*
X1344000D02*
D03*
X1386000D02*
D03*
X1470000D02*
D03*
X1512000D02*
D03*
X1554000D02*
D03*
X1302000Y1869000D02*
D03*
X1344000D02*
D03*
X1428000D02*
D03*
X1470000D02*
D03*
X2016000Y1365000D02*
D03*
X1974000D02*
D03*
X1932000D02*
D03*
X1890000D02*
D03*
X1806000D02*
D03*
X1764000D02*
D03*
X1722000D02*
D03*
X1680000D02*
D03*
X2058000Y1869000D02*
D03*
X2016000D02*
D03*
X1974000D02*
D03*
X1932000D02*
D03*
X1890000D02*
D03*
X1806000D02*
D03*
X1764000D02*
D03*
X1722000D02*
D03*
X1680000D02*
D03*
X1638000D02*
D03*
M02*
