G04*
G04 #@! TF.GenerationSoftware,Altium Limited,Altium Designer,18.1.7 (191)*
G04*
G04 Layer_Physical_Order=2*
G04 Layer_Color=16711680*
%FSLAX44Y44*%
%MOMM*%
G71*
G01*
G75*
%ADD13C,2.3000*%
%ADD14R,2.2269X2.2269*%
%ADD15R,3.0000X5.0000*%
%ADD16C,1.0000*%
G36*
X2394000Y882000D02*
X1260000D01*
Y2352000D01*
X2394000D01*
Y882000D01*
D02*
G37*
%LPC*%
G36*
X1655000Y1896000D02*
X1621000D01*
Y1842000D01*
X1630940D01*
Y1777135D01*
X1624865D01*
Y1750865D01*
X1651135D01*
Y1777135D01*
X1645060D01*
Y1842000D01*
X1655000D01*
Y1896000D01*
D02*
G37*
G36*
X1445000D02*
X1411000D01*
Y1842000D01*
X1420940D01*
Y1777135D01*
X1414865D01*
Y1750865D01*
X1441135D01*
Y1777135D01*
X1435060D01*
Y1842000D01*
X1445000D01*
Y1896000D01*
D02*
G37*
G36*
X1823000D02*
X1789000D01*
Y1842000D01*
X1798940D01*
Y1775598D01*
X1796372Y1773628D01*
X1794208Y1770808D01*
X1792848Y1767524D01*
X1792384Y1764000D01*
X1792848Y1760476D01*
X1794208Y1757192D01*
X1796372Y1754372D01*
X1799192Y1752208D01*
X1802476Y1750848D01*
X1806000Y1750384D01*
X1809524Y1750848D01*
X1812808Y1752208D01*
X1815628Y1754372D01*
X1817792Y1757192D01*
X1819152Y1760476D01*
X1819616Y1764000D01*
X1819152Y1767524D01*
X1817792Y1770808D01*
X1815628Y1773628D01*
X1813060Y1775598D01*
Y1842000D01*
X1823000D01*
Y1896000D01*
D02*
G37*
G36*
X1781000D02*
X1747000D01*
Y1842000D01*
X1756940D01*
Y1775598D01*
X1754372Y1773628D01*
X1752208Y1770808D01*
X1750848Y1767524D01*
X1750384Y1764000D01*
X1750848Y1760476D01*
X1752208Y1757192D01*
X1754372Y1754372D01*
X1757192Y1752208D01*
X1760476Y1750848D01*
X1764000Y1750384D01*
X1767524Y1750848D01*
X1770808Y1752208D01*
X1773628Y1754372D01*
X1775792Y1757192D01*
X1777152Y1760476D01*
X1777616Y1764000D01*
X1777152Y1767524D01*
X1775792Y1770808D01*
X1773628Y1773628D01*
X1771060Y1775598D01*
Y1842000D01*
X1781000D01*
Y1896000D01*
D02*
G37*
G36*
X1739000D02*
X1705000D01*
Y1842000D01*
X1714940D01*
Y1775598D01*
X1712372Y1773628D01*
X1710208Y1770808D01*
X1708848Y1767524D01*
X1708384Y1764000D01*
X1708848Y1760476D01*
X1710208Y1757192D01*
X1712372Y1754372D01*
X1715192Y1752208D01*
X1718476Y1750848D01*
X1722000Y1750384D01*
X1725524Y1750848D01*
X1728808Y1752208D01*
X1731628Y1754372D01*
X1733792Y1757192D01*
X1735152Y1760476D01*
X1735616Y1764000D01*
X1735152Y1767524D01*
X1733792Y1770808D01*
X1731628Y1773628D01*
X1729060Y1775598D01*
Y1842000D01*
X1739000D01*
Y1896000D01*
D02*
G37*
G36*
X1697000D02*
X1663000D01*
Y1842000D01*
X1672940D01*
Y1775598D01*
X1670372Y1773628D01*
X1668208Y1770808D01*
X1666848Y1767524D01*
X1666384Y1764000D01*
X1666848Y1760476D01*
X1668208Y1757192D01*
X1670372Y1754372D01*
X1673192Y1752208D01*
X1676476Y1750848D01*
X1680000Y1750384D01*
X1683524Y1750848D01*
X1686808Y1752208D01*
X1689628Y1754372D01*
X1691792Y1757192D01*
X1693152Y1760476D01*
X1693616Y1764000D01*
X1693152Y1767524D01*
X1691792Y1770808D01*
X1689628Y1773628D01*
X1687060Y1775598D01*
Y1842000D01*
X1697000D01*
Y1896000D01*
D02*
G37*
G36*
X1487000D02*
X1453000D01*
Y1842000D01*
X1462940D01*
Y1775598D01*
X1460372Y1773628D01*
X1458208Y1770808D01*
X1456848Y1767524D01*
X1456384Y1764000D01*
X1456848Y1760476D01*
X1458208Y1757192D01*
X1460372Y1754372D01*
X1463192Y1752208D01*
X1466476Y1750848D01*
X1470000Y1750384D01*
X1473524Y1750848D01*
X1476808Y1752208D01*
X1479628Y1754372D01*
X1481792Y1757192D01*
X1483152Y1760476D01*
X1483616Y1764000D01*
X1483152Y1767524D01*
X1481792Y1770808D01*
X1479628Y1773628D01*
X1477060Y1775598D01*
Y1842000D01*
X1487000D01*
Y1896000D01*
D02*
G37*
G36*
X1907000D02*
X1873000D01*
Y1842000D01*
X1882940D01*
Y1729060D01*
X1817599D01*
X1815628Y1731628D01*
X1812808Y1733792D01*
X1809524Y1735152D01*
X1806000Y1735616D01*
X1802476Y1735152D01*
X1799192Y1733792D01*
X1796372Y1731628D01*
X1794208Y1728808D01*
X1792848Y1725524D01*
X1792384Y1722000D01*
X1792848Y1718476D01*
X1794208Y1715192D01*
X1796372Y1712372D01*
X1799192Y1710208D01*
X1802476Y1708848D01*
X1806000Y1708384D01*
X1809524Y1708848D01*
X1812808Y1710208D01*
X1815628Y1712372D01*
X1817599Y1714940D01*
X1890000D01*
X1891827Y1715180D01*
X1893530Y1715885D01*
X1894993Y1717008D01*
X1896115Y1718470D01*
X1896820Y1720173D01*
X1897060Y1722000D01*
Y1842000D01*
X1907000D01*
Y1896000D01*
D02*
G37*
G36*
X1361000D02*
X1327000D01*
Y1842000D01*
X1336940D01*
Y1722000D01*
X1337180Y1720173D01*
X1337885Y1718470D01*
X1339008Y1717008D01*
X1339008Y1717007D01*
X1340470Y1715885D01*
X1342173Y1715180D01*
X1344000Y1714940D01*
X1416402D01*
X1418372Y1712372D01*
X1421192Y1710208D01*
X1424476Y1708848D01*
X1428000Y1708384D01*
X1431524Y1708848D01*
X1434808Y1710208D01*
X1437628Y1712372D01*
X1439792Y1715192D01*
X1441152Y1718476D01*
X1441616Y1722000D01*
X1441152Y1725524D01*
X1439792Y1728808D01*
X1437628Y1731628D01*
X1434808Y1733792D01*
X1431524Y1735152D01*
X1428000Y1735616D01*
X1424476Y1735152D01*
X1421192Y1733792D01*
X1418372Y1731628D01*
X1416402Y1729060D01*
X1351060D01*
Y1842000D01*
X1361000D01*
Y1896000D01*
D02*
G37*
G36*
X1949000D02*
X1915000D01*
Y1842000D01*
X1924940D01*
Y1702060D01*
X1771060D01*
Y1710401D01*
X1773628Y1712372D01*
X1775792Y1715192D01*
X1777152Y1718476D01*
X1777616Y1722000D01*
X1777152Y1725524D01*
X1775792Y1728808D01*
X1773628Y1731628D01*
X1770808Y1733792D01*
X1767524Y1735152D01*
X1764000Y1735616D01*
X1760476Y1735152D01*
X1757192Y1733792D01*
X1754372Y1731628D01*
X1752208Y1728808D01*
X1750848Y1725524D01*
X1750384Y1722000D01*
X1750848Y1718476D01*
X1752208Y1715192D01*
X1754372Y1712372D01*
X1756940Y1710401D01*
Y1695000D01*
X1757180Y1693173D01*
X1757886Y1691470D01*
X1759008Y1690007D01*
X1760470Y1688885D01*
X1762173Y1688180D01*
X1764000Y1687940D01*
X1932000D01*
X1933827Y1688180D01*
X1935530Y1688885D01*
X1936992Y1690007D01*
X1938114Y1691470D01*
X1938820Y1693173D01*
X1939060Y1695000D01*
Y1842000D01*
X1949000D01*
Y1896000D01*
D02*
G37*
G36*
X1991000D02*
X1957000D01*
Y1842000D01*
X1966940D01*
Y1682060D01*
X1729060D01*
Y1710401D01*
X1731628Y1712372D01*
X1733792Y1715192D01*
X1735152Y1718476D01*
X1735616Y1722000D01*
X1735152Y1725524D01*
X1733792Y1728808D01*
X1731628Y1731628D01*
X1728808Y1733792D01*
X1725524Y1735152D01*
X1722000Y1735616D01*
X1718476Y1735152D01*
X1715192Y1733792D01*
X1712372Y1731628D01*
X1710208Y1728808D01*
X1708848Y1725524D01*
X1708384Y1722000D01*
X1708848Y1718476D01*
X1710208Y1715192D01*
X1712372Y1712372D01*
X1714940Y1710401D01*
Y1675000D01*
X1715180Y1673173D01*
X1715886Y1671470D01*
X1717008Y1670008D01*
X1718470Y1668885D01*
X1720173Y1668180D01*
X1722000Y1667940D01*
X1974000D01*
X1975827Y1668180D01*
X1977530Y1668885D01*
X1978992Y1670008D01*
X1980114Y1671470D01*
X1980820Y1673173D01*
X1981060Y1675000D01*
Y1842000D01*
X1991000D01*
Y1896000D01*
D02*
G37*
G36*
X1319000D02*
X1285000D01*
Y1842000D01*
X1294940D01*
Y1680000D01*
X1295180Y1678173D01*
X1295885Y1676470D01*
X1297007Y1675007D01*
X1298470Y1673885D01*
X1300173Y1673180D01*
X1302000Y1672940D01*
X1470000D01*
X1471827Y1673180D01*
X1473530Y1673885D01*
X1474992Y1675007D01*
X1474993Y1675008D01*
X1476115Y1676470D01*
X1476820Y1678173D01*
X1477060Y1680000D01*
Y1710401D01*
X1479628Y1712372D01*
X1481792Y1715192D01*
X1483152Y1718476D01*
X1483616Y1722000D01*
X1483152Y1725524D01*
X1481792Y1728808D01*
X1479628Y1731628D01*
X1476808Y1733792D01*
X1473524Y1735152D01*
X1470000Y1735616D01*
X1466476Y1735152D01*
X1463192Y1733792D01*
X1460372Y1731628D01*
X1458208Y1728808D01*
X1456848Y1725524D01*
X1456384Y1722000D01*
X1456848Y1718476D01*
X1458208Y1715192D01*
X1460372Y1712372D01*
X1462940Y1710401D01*
Y1687060D01*
X1309060D01*
Y1842000D01*
X1319000D01*
Y1896000D01*
D02*
G37*
G36*
X2033000D02*
X1999000D01*
Y1842000D01*
X2008940D01*
Y1662060D01*
X1687060D01*
Y1710401D01*
X1689628Y1712372D01*
X1691792Y1715192D01*
X1693152Y1718476D01*
X1693616Y1722000D01*
X1693152Y1725524D01*
X1691792Y1728808D01*
X1689628Y1731628D01*
X1686808Y1733792D01*
X1683524Y1735152D01*
X1680000Y1735616D01*
X1676476Y1735152D01*
X1673192Y1733792D01*
X1670372Y1731628D01*
X1668208Y1728808D01*
X1666848Y1725524D01*
X1666384Y1722000D01*
X1666848Y1718476D01*
X1668208Y1715192D01*
X1670372Y1712372D01*
X1672940Y1710401D01*
Y1655000D01*
X1673180Y1653173D01*
X1673886Y1651470D01*
X1675008Y1650007D01*
X1676470Y1648885D01*
X1678173Y1648180D01*
X1680000Y1647940D01*
X2016000D01*
X2017827Y1648180D01*
X2019530Y1648885D01*
X2020992Y1650007D01*
X2022114Y1651470D01*
X2022820Y1653173D01*
X2023060Y1655000D01*
Y1842000D01*
X2033000D01*
Y1896000D01*
D02*
G37*
G36*
X2075000D02*
X2041000D01*
Y1842000D01*
X2050940D01*
Y1642060D01*
X1645060D01*
Y1710401D01*
X1647628Y1712372D01*
X1649792Y1715192D01*
X1651152Y1718476D01*
X1651616Y1722000D01*
X1651152Y1725524D01*
X1649792Y1728808D01*
X1647628Y1731628D01*
X1644808Y1733792D01*
X1641524Y1735152D01*
X1638000Y1735616D01*
X1634476Y1735152D01*
X1631192Y1733792D01*
X1628372Y1731628D01*
X1626208Y1728808D01*
X1624848Y1725524D01*
X1624384Y1722000D01*
X1624848Y1718476D01*
X1626208Y1715192D01*
X1628372Y1712372D01*
X1630940Y1710401D01*
Y1635000D01*
X1631180Y1633173D01*
X1631886Y1631470D01*
X1633008Y1630008D01*
X1634470Y1628885D01*
X1636173Y1628180D01*
X1638000Y1627940D01*
X2058000D01*
X2059827Y1628180D01*
X2061530Y1628885D01*
X2062992Y1630008D01*
X2064115Y1631470D01*
X2064820Y1633173D01*
X2065060Y1635000D01*
Y1842000D01*
X2075000D01*
Y1896000D01*
D02*
G37*
G36*
X1441135Y1525135D02*
X1414865D01*
Y1519060D01*
X1386000D01*
X1384173Y1518820D01*
X1382470Y1518114D01*
X1381008Y1516992D01*
X1379886Y1515530D01*
X1379180Y1513827D01*
X1378940Y1512000D01*
Y1392000D01*
X1369000D01*
Y1338000D01*
X1403000D01*
Y1392000D01*
X1393060D01*
Y1504940D01*
X1414865D01*
Y1498865D01*
X1441135D01*
Y1525135D01*
D02*
G37*
G36*
X1512000Y1603060D02*
X1302000D01*
X1300173Y1602820D01*
X1298470Y1602115D01*
X1297008Y1600992D01*
X1295885Y1599530D01*
X1295180Y1597827D01*
X1294940Y1596000D01*
Y1392000D01*
X1285000D01*
Y1338000D01*
X1319000D01*
Y1392000D01*
X1309060D01*
Y1588940D01*
X1504940D01*
Y1523598D01*
X1502372Y1521628D01*
X1500208Y1518808D01*
X1498848Y1515524D01*
X1498384Y1512000D01*
X1498848Y1508476D01*
X1500208Y1505192D01*
X1502372Y1502372D01*
X1505192Y1500208D01*
X1508476Y1498848D01*
X1512000Y1498384D01*
X1515524Y1498848D01*
X1518808Y1500208D01*
X1521628Y1502372D01*
X1523792Y1505192D01*
X1525152Y1508476D01*
X1525616Y1512000D01*
X1525152Y1515524D01*
X1523792Y1518808D01*
X1521628Y1521628D01*
X1519060Y1523598D01*
Y1596000D01*
X1518820Y1597827D01*
X1518114Y1599530D01*
X1516992Y1600992D01*
X1516992Y1600992D01*
X1515530Y1602115D01*
X1513827Y1602820D01*
X1512000Y1603060D01*
D02*
G37*
G36*
X1470000Y1561060D02*
X1344000D01*
X1342173Y1560820D01*
X1340470Y1560114D01*
X1339008Y1558992D01*
X1337885Y1557530D01*
X1337180Y1555827D01*
X1336940Y1554000D01*
Y1392000D01*
X1327000D01*
Y1338000D01*
X1361000D01*
Y1392000D01*
X1351060D01*
Y1546940D01*
X1462940D01*
Y1523598D01*
X1460372Y1521628D01*
X1458208Y1518808D01*
X1456848Y1515524D01*
X1456384Y1512000D01*
X1456848Y1508476D01*
X1458208Y1505192D01*
X1460372Y1502372D01*
X1463192Y1500208D01*
X1466476Y1498848D01*
X1470000Y1498384D01*
X1473524Y1498848D01*
X1476808Y1500208D01*
X1479628Y1502372D01*
X1481792Y1505192D01*
X1483152Y1508476D01*
X1483616Y1512000D01*
X1483152Y1515524D01*
X1481792Y1518808D01*
X1479628Y1521628D01*
X1477060Y1523598D01*
Y1554000D01*
X1476820Y1555827D01*
X1476115Y1557530D01*
X1474993Y1558992D01*
X1474992Y1558992D01*
X1473530Y1560114D01*
X1471827Y1560820D01*
X1470000Y1561060D01*
D02*
G37*
G36*
X2016000Y1587060D02*
X1680000D01*
X1678173Y1586820D01*
X1676470Y1586115D01*
X1675008Y1584992D01*
X1673886Y1583530D01*
X1673180Y1581827D01*
X1672940Y1580000D01*
Y1525135D01*
X1666865D01*
Y1498865D01*
X1693135D01*
Y1525135D01*
X1687060D01*
Y1572940D01*
X2008940D01*
Y1392000D01*
X1999000D01*
Y1338000D01*
X2033000D01*
Y1392000D01*
X2023060D01*
Y1580000D01*
X2022820Y1581827D01*
X2022114Y1583530D01*
X2020992Y1584992D01*
X2019530Y1586115D01*
X2017827Y1586820D01*
X2016000Y1587060D01*
D02*
G37*
G36*
X1974000Y1567060D02*
X1722000D01*
X1720173Y1566820D01*
X1718470Y1566115D01*
X1717008Y1564993D01*
X1715886Y1563530D01*
X1715180Y1561827D01*
X1714940Y1560000D01*
Y1523599D01*
X1712372Y1521628D01*
X1710208Y1518808D01*
X1708848Y1515524D01*
X1708384Y1512000D01*
X1708848Y1508476D01*
X1710208Y1505192D01*
X1712372Y1502372D01*
X1715192Y1500208D01*
X1718476Y1498848D01*
X1722000Y1498384D01*
X1725524Y1498848D01*
X1728808Y1500208D01*
X1731628Y1502372D01*
X1733792Y1505192D01*
X1735152Y1508476D01*
X1735616Y1512000D01*
X1735152Y1515524D01*
X1733792Y1518808D01*
X1731628Y1521628D01*
X1729060Y1523599D01*
Y1552940D01*
X1966940D01*
Y1392000D01*
X1957000D01*
Y1338000D01*
X1991000D01*
Y1392000D01*
X1981060D01*
Y1560000D01*
X1980820Y1561827D01*
X1980114Y1563530D01*
X1978992Y1564993D01*
X1977530Y1566115D01*
X1975827Y1566820D01*
X1974000Y1567060D01*
D02*
G37*
G36*
X1932000Y1547060D02*
X1764000D01*
X1762173Y1546820D01*
X1760470Y1546115D01*
X1759008Y1544992D01*
X1757886Y1543530D01*
X1757180Y1541827D01*
X1756940Y1540000D01*
Y1523599D01*
X1754372Y1521628D01*
X1752208Y1518808D01*
X1750848Y1515524D01*
X1750384Y1512000D01*
X1750848Y1508476D01*
X1752208Y1505192D01*
X1754372Y1502372D01*
X1757192Y1500208D01*
X1760476Y1498848D01*
X1764000Y1498384D01*
X1767524Y1498848D01*
X1770808Y1500208D01*
X1773628Y1502372D01*
X1775792Y1505192D01*
X1777152Y1508476D01*
X1777616Y1512000D01*
X1777152Y1515524D01*
X1775792Y1518808D01*
X1773628Y1521628D01*
X1771060Y1523599D01*
Y1532940D01*
X1924940D01*
Y1392000D01*
X1915000D01*
Y1338000D01*
X1949000D01*
Y1392000D01*
X1939060D01*
Y1540000D01*
X1938820Y1541827D01*
X1938114Y1543530D01*
X1936992Y1544992D01*
X1935530Y1546115D01*
X1933827Y1546820D01*
X1932000Y1547060D01*
D02*
G37*
G36*
X1806000Y1525616D02*
X1802476Y1525152D01*
X1799192Y1523792D01*
X1796372Y1521628D01*
X1794208Y1518808D01*
X1792848Y1515524D01*
X1792384Y1512000D01*
X1792848Y1508476D01*
X1794208Y1505192D01*
X1796372Y1502372D01*
X1799192Y1500208D01*
X1802476Y1498848D01*
X1806000Y1498384D01*
X1809524Y1498848D01*
X1812808Y1500208D01*
X1815628Y1502372D01*
X1817599Y1504940D01*
X1882940D01*
Y1392000D01*
X1873000D01*
Y1338000D01*
X1907000D01*
Y1392000D01*
X1897060D01*
Y1512000D01*
X1896820Y1513827D01*
X1896115Y1515530D01*
X1894993Y1516992D01*
X1894992Y1516992D01*
X1893530Y1518114D01*
X1891827Y1518820D01*
X1890000Y1519060D01*
X1817599D01*
X1815628Y1521628D01*
X1812808Y1523792D01*
X1809524Y1525152D01*
X1806000Y1525616D01*
D02*
G37*
G36*
Y1483616D02*
X1802476Y1483152D01*
X1799192Y1481792D01*
X1796372Y1479628D01*
X1794208Y1476808D01*
X1792848Y1473524D01*
X1792384Y1470000D01*
X1792848Y1466476D01*
X1794208Y1463192D01*
X1796372Y1460372D01*
X1798940Y1458401D01*
Y1392000D01*
X1789000D01*
Y1338000D01*
X1823000D01*
Y1392000D01*
X1813060D01*
Y1458401D01*
X1815628Y1460372D01*
X1817792Y1463192D01*
X1819152Y1466476D01*
X1819616Y1470000D01*
X1819152Y1473524D01*
X1817792Y1476808D01*
X1815628Y1479628D01*
X1812808Y1481792D01*
X1809524Y1483152D01*
X1806000Y1483616D01*
D02*
G37*
G36*
X1764000D02*
X1760476Y1483152D01*
X1757192Y1481792D01*
X1754372Y1479628D01*
X1752208Y1476808D01*
X1750848Y1473524D01*
X1750384Y1470000D01*
X1750848Y1466476D01*
X1752208Y1463192D01*
X1754372Y1460372D01*
X1756940Y1458401D01*
Y1392000D01*
X1747000D01*
Y1338000D01*
X1781000D01*
Y1392000D01*
X1771060D01*
Y1458401D01*
X1773628Y1460372D01*
X1775792Y1463192D01*
X1777152Y1466476D01*
X1777616Y1470000D01*
X1777152Y1473524D01*
X1775792Y1476808D01*
X1773628Y1479628D01*
X1770808Y1481792D01*
X1767524Y1483152D01*
X1764000Y1483616D01*
D02*
G37*
G36*
X1722000D02*
X1718476Y1483152D01*
X1715192Y1481792D01*
X1712372Y1479628D01*
X1710208Y1476808D01*
X1708848Y1473524D01*
X1708384Y1470000D01*
X1708848Y1466476D01*
X1710208Y1463192D01*
X1712372Y1460372D01*
X1714940Y1458401D01*
Y1392000D01*
X1705000D01*
Y1338000D01*
X1739000D01*
Y1392000D01*
X1729060D01*
Y1458401D01*
X1731628Y1460372D01*
X1733792Y1463192D01*
X1735152Y1466476D01*
X1735616Y1470000D01*
X1735152Y1473524D01*
X1733792Y1476808D01*
X1731628Y1479628D01*
X1728808Y1481792D01*
X1725524Y1483152D01*
X1722000Y1483616D01*
D02*
G37*
G36*
X1680000D02*
X1676476Y1483152D01*
X1673192Y1481792D01*
X1670372Y1479628D01*
X1668208Y1476808D01*
X1666848Y1473524D01*
X1666384Y1470000D01*
X1666848Y1466476D01*
X1668208Y1463192D01*
X1670372Y1460372D01*
X1672940Y1458401D01*
Y1392000D01*
X1663000D01*
Y1338000D01*
X1697000D01*
Y1392000D01*
X1687060D01*
Y1458401D01*
X1689628Y1460372D01*
X1691792Y1463192D01*
X1693152Y1466476D01*
X1693616Y1470000D01*
X1693152Y1473524D01*
X1691792Y1476808D01*
X1689628Y1479628D01*
X1686808Y1481792D01*
X1683524Y1483152D01*
X1680000Y1483616D01*
D02*
G37*
G36*
X1512000D02*
X1508476Y1483152D01*
X1505192Y1481792D01*
X1502372Y1479628D01*
X1500208Y1476808D01*
X1498848Y1473524D01*
X1498384Y1470000D01*
X1498848Y1466476D01*
X1500208Y1463192D01*
X1502372Y1460372D01*
X1504940Y1458401D01*
Y1449000D01*
X1505180Y1447173D01*
X1505886Y1445470D01*
X1507008Y1444008D01*
X1546940Y1404075D01*
Y1392000D01*
X1537000D01*
Y1338000D01*
X1571000D01*
Y1392000D01*
X1561060D01*
Y1407000D01*
X1560820Y1408827D01*
X1560114Y1410530D01*
X1558992Y1411992D01*
X1519060Y1451924D01*
Y1458401D01*
X1521628Y1460372D01*
X1523792Y1463192D01*
X1525152Y1466476D01*
X1525616Y1470000D01*
X1525152Y1473524D01*
X1523792Y1476808D01*
X1521628Y1479628D01*
X1518808Y1481792D01*
X1515524Y1483152D01*
X1512000Y1483616D01*
D02*
G37*
G36*
X1470000D02*
X1466476Y1483152D01*
X1463192Y1481792D01*
X1460372Y1479628D01*
X1458208Y1476808D01*
X1456848Y1473524D01*
X1456384Y1470000D01*
X1456848Y1466476D01*
X1458208Y1463192D01*
X1460372Y1460372D01*
X1462940Y1458401D01*
Y1449000D01*
X1462940Y1449000D01*
X1463180Y1447173D01*
X1463885Y1445470D01*
X1465008Y1444008D01*
X1504940Y1404075D01*
Y1392000D01*
X1495000D01*
Y1338000D01*
X1529000D01*
Y1392000D01*
X1519060D01*
Y1407000D01*
X1518820Y1408827D01*
X1518114Y1410530D01*
X1516992Y1411992D01*
X1477060Y1451924D01*
Y1458401D01*
X1479628Y1460372D01*
X1481792Y1463192D01*
X1483152Y1466476D01*
X1483616Y1470000D01*
X1483152Y1473524D01*
X1481792Y1476808D01*
X1479628Y1479628D01*
X1476808Y1481792D01*
X1473524Y1483152D01*
X1470000Y1483616D01*
D02*
G37*
G36*
X1428000D02*
X1424476Y1483152D01*
X1421192Y1481792D01*
X1418372Y1479628D01*
X1416208Y1476808D01*
X1414848Y1473524D01*
X1414384Y1470000D01*
X1414848Y1466476D01*
X1416208Y1463192D01*
X1418372Y1460372D01*
X1420940Y1458401D01*
Y1449000D01*
X1421180Y1447173D01*
X1421886Y1445470D01*
X1423008Y1444008D01*
X1462940Y1404075D01*
Y1392000D01*
X1453000D01*
Y1338000D01*
X1487000D01*
Y1392000D01*
X1477060D01*
Y1407000D01*
X1476820Y1408827D01*
X1476115Y1410530D01*
X1474993Y1411992D01*
X1435060Y1451924D01*
Y1458401D01*
X1437628Y1460372D01*
X1439792Y1463192D01*
X1441152Y1466476D01*
X1441616Y1470000D01*
X1441152Y1473524D01*
X1439792Y1476808D01*
X1437628Y1479628D01*
X1434808Y1481792D01*
X1431524Y1483152D01*
X1428000Y1483616D01*
D02*
G37*
%LPD*%
D13*
X1512000Y1470000D02*
D03*
X1470000D02*
D03*
X1428000D02*
D03*
X1512000Y1512000D02*
D03*
X1470000D02*
D03*
X1470000Y1722000D02*
D03*
X1428000D02*
D03*
X1470000Y1764000D02*
D03*
X1806000Y1722000D02*
D03*
X1764000D02*
D03*
X1680000Y1764000D02*
D03*
X1722000D02*
D03*
X1764000D02*
D03*
X1806000D02*
D03*
X1638000Y1722000D02*
D03*
X1680000D02*
D03*
X1722000D02*
D03*
Y1512000D02*
D03*
X1764000D02*
D03*
X1806000D02*
D03*
X1680000Y1470000D02*
D03*
X1722000D02*
D03*
X1764000D02*
D03*
X1806000D02*
D03*
D14*
X1428000Y1512000D02*
D03*
X1428000Y1764000D02*
D03*
X1638000D02*
D03*
X1680000Y1512000D02*
D03*
D15*
X1302000Y1365000D02*
D03*
X1344000D02*
D03*
X1386000D02*
D03*
X1470000D02*
D03*
X1512000D02*
D03*
X1554000D02*
D03*
X1302000Y1869000D02*
D03*
X1344000D02*
D03*
X1428000D02*
D03*
X1470000D02*
D03*
X2016000Y1365000D02*
D03*
X1974000D02*
D03*
X1932000D02*
D03*
X1890000D02*
D03*
X1806000D02*
D03*
X1764000D02*
D03*
X1722000D02*
D03*
X1680000D02*
D03*
X2058000Y1869000D02*
D03*
X2016000D02*
D03*
X1974000D02*
D03*
X1932000D02*
D03*
X1890000D02*
D03*
X1806000D02*
D03*
X1764000D02*
D03*
X1722000D02*
D03*
X1680000D02*
D03*
X1638000D02*
D03*
D16*
X1554000Y1386000D02*
Y1407000D01*
X1512000Y1449000D02*
X1554000Y1407000D01*
X1512000Y1449000D02*
Y1470000D01*
X1512000Y1386000D02*
Y1407000D01*
X1470000Y1449000D02*
X1512000Y1407000D01*
X1470000Y1449000D02*
X1470000Y1449000D01*
Y1470000D01*
X1470000Y1386000D02*
Y1407000D01*
X1428000Y1449000D02*
X1470000Y1407000D01*
X1428000Y1449000D02*
Y1470000D01*
X1302000Y1386000D02*
Y1596000D01*
X1512000D01*
X1344000Y1386000D02*
Y1554000D01*
X1470000D01*
X1386000Y1386000D02*
Y1512000D01*
X1428000D01*
X1932000Y1695000D02*
Y1848000D01*
X1764000Y1695000D02*
X1932000D01*
X1470000Y1554000D02*
X1470000Y1554000D01*
Y1512000D02*
Y1554000D01*
X1512000Y1596000D02*
X1512000Y1596000D01*
Y1512000D02*
Y1596000D01*
X1470000Y1365000D02*
X1470000Y1365000D01*
X1512000Y1365000D02*
X1512000Y1365000D01*
X1554000Y1365000D02*
X1554000Y1365000D01*
X1344000Y1722000D02*
Y1848000D01*
Y1722000D02*
X1344000Y1722000D01*
X1428000D01*
X1302000Y1680000D02*
Y1848000D01*
Y1680000D02*
X1470000D01*
X1470000Y1680000D01*
Y1722000D01*
X1470000Y1869000D02*
X1470000Y1869000D01*
Y1764000D02*
Y1848000D01*
X1428000Y1869000D02*
X1428000Y1869000D01*
Y1764000D02*
Y1848000D01*
X2058000Y1635000D02*
Y1848000D01*
X1638000Y1635000D02*
X2058000D01*
X1638000D02*
Y1722000D01*
X1680000Y1512000D02*
Y1580000D01*
X2016000D01*
Y1386000D02*
Y1580000D01*
X1722000Y1512000D02*
Y1560000D01*
X1974000D01*
Y1386000D02*
Y1560000D01*
X1764000Y1512000D02*
Y1540000D01*
X1932000D01*
Y1386000D02*
Y1540000D01*
X1890000Y1386000D02*
Y1512000D01*
X1890000Y1512000D02*
X1890000Y1512000D01*
X1806000Y1512000D02*
X1890000D01*
X1806000Y1386000D02*
X1806000Y1386000D01*
Y1470000D01*
X1764000Y1386000D02*
X1764000Y1386000D01*
Y1470000D01*
X1722000Y1386000D02*
X1722000Y1386000D01*
Y1470000D01*
X1680000Y1386000D02*
Y1470000D01*
X1680000Y1470000D01*
Y1655000D02*
Y1722000D01*
Y1655000D02*
X2016000D01*
Y1848000D01*
X1722000Y1675000D02*
Y1722000D01*
Y1675000D02*
X1974000D01*
Y1848000D01*
X1764000Y1695000D02*
Y1722000D01*
X1890000Y1722000D02*
Y1848000D01*
X1806000Y1722000D02*
X1890000D01*
X1806000Y1722000D02*
X1806000Y1722000D01*
X1806000Y1764000D02*
Y1848000D01*
Y1764000D02*
X1806000Y1764000D01*
X1764000Y1869000D02*
X1764000Y1869000D01*
Y1764000D02*
Y1848000D01*
X1722000Y1869000D02*
X1722000Y1869000D01*
Y1764000D02*
Y1848000D01*
X1680000Y1764000D02*
Y1848000D01*
Y1764000D02*
X1680000Y1764000D01*
X1638000Y1764000D02*
Y1848000D01*
Y1764000D02*
X1638000Y1764000D01*
M02*
