G04*
G04 #@! TF.GenerationSoftware,Altium Limited,Altium Designer,18.1.7 (191)*
G04*
G04 Layer_Color=65535*
%FSLAX44Y44*%
%MOMM*%
G71*
G01*
G75*
%ADD10C,0.4000*%
G36*
X1992798Y1794081D02*
X1993228Y1793974D01*
X1994409Y1793544D01*
X1995054Y1793222D01*
X1995698Y1792685D01*
X1995806Y1792578D01*
X1996128Y1792255D01*
X1996558Y1791718D01*
X1996987Y1791181D01*
X1997095Y1791074D01*
X1997310Y1790751D01*
X1997632Y1790214D01*
X1998061Y1789570D01*
X1998169Y1789462D01*
X1998276Y1789033D01*
X1998384Y1788496D01*
X1998491Y1787851D01*
Y1787744D01*
X1998384Y1787314D01*
X1998169Y1786777D01*
X1997847Y1786240D01*
X1997739Y1786133D01*
X1997310Y1785810D01*
X1996772Y1785595D01*
X1996128Y1785488D01*
X1995913D01*
X1995483Y1785595D01*
X1994946Y1785810D01*
X1994302Y1786025D01*
X1994194Y1786133D01*
X1993872Y1786347D01*
X1993120Y1786992D01*
X1993013Y1787099D01*
X1992798Y1787314D01*
X1992046Y1787959D01*
X1991939Y1788066D01*
X1991724Y1788173D01*
X1991187Y1788388D01*
X1991079D01*
X1990865Y1788496D01*
X1990327Y1788818D01*
Y1788710D01*
X1990220Y1788496D01*
X1990005Y1787851D01*
Y1787744D01*
X1989898Y1787529D01*
Y1786777D01*
X1990005Y1786670D01*
X1990220Y1786025D01*
X1990435Y1785166D01*
X1990865Y1784092D01*
Y1783984D01*
X1990972Y1783877D01*
X1991187Y1783340D01*
X1991616Y1782480D01*
X1992046Y1781514D01*
Y1781406D01*
X1992261Y1781191D01*
X1992476Y1780869D01*
X1992798Y1780332D01*
X1993765Y1779258D01*
X1994946Y1778184D01*
X1995054Y1778076D01*
X1995269Y1777969D01*
X1995591Y1777754D01*
X1996021Y1777432D01*
X1997095Y1776680D01*
X1998491Y1775820D01*
X1998598Y1775713D01*
X1998813Y1775606D01*
X1999243Y1775391D01*
X1999888Y1775069D01*
X2001284Y1774317D01*
X2002895Y1773457D01*
X2003003D01*
X2003325Y1773242D01*
X2003754Y1773135D01*
X2004292Y1772920D01*
X2005043Y1772598D01*
X2005903Y1772383D01*
X2007729Y1771953D01*
X2007836D01*
X2008159D01*
X2008696D01*
X2009340D01*
X2010737Y1772276D01*
X2011488Y1772491D01*
X2012026Y1772920D01*
Y1773028D01*
X2012240Y1773135D01*
X2012348Y1773565D01*
X2012563Y1773994D01*
X2012670Y1774532D01*
X2012778Y1775283D01*
X2012670Y1776143D01*
X2012563Y1777110D01*
Y1777217D01*
X2012455Y1777324D01*
X2012348Y1778076D01*
X2012026Y1778936D01*
X2011596Y1780010D01*
Y1780117D01*
X2011488Y1780225D01*
X2011059Y1780869D01*
X2010522Y1781728D01*
X2009985Y1782695D01*
Y1782803D01*
X2009877Y1782910D01*
X2009448Y1783447D01*
X2008911Y1784199D01*
X2008159Y1785058D01*
Y1785166D01*
X2007944Y1785273D01*
X2007514Y1785810D01*
X2006870Y1786670D01*
X2006118Y1787744D01*
X2006225D01*
X2006333Y1787636D01*
X2006977Y1787422D01*
X2007836Y1786992D01*
X2009018Y1786347D01*
X2010199Y1785488D01*
X2011488Y1784306D01*
X2012670Y1782803D01*
X2013637Y1781084D01*
Y1780977D01*
X2013744Y1780869D01*
X2014066Y1780225D01*
X2014389Y1779150D01*
X2014818Y1777861D01*
X2015141Y1776358D01*
X2015356Y1774746D01*
X2015248Y1772920D01*
X2014926Y1771202D01*
Y1771094D01*
X2014711Y1770772D01*
X2014496Y1770235D01*
X2014174Y1769590D01*
X2013315Y1768087D01*
X2012670Y1767335D01*
X2012026Y1766690D01*
X2011918Y1766583D01*
X2011596Y1766475D01*
X2011166Y1766153D01*
X2010522Y1765938D01*
X2009770Y1765723D01*
X2008803Y1765509D01*
X2007729Y1765401D01*
X2006655D01*
X2006547D01*
X2006440D01*
X2005903Y1765509D01*
X2005151Y1765616D01*
X2004292Y1765831D01*
X2004184D01*
X2004077Y1765938D01*
X2003540Y1766046D01*
X2002680Y1766153D01*
X2001714Y1766368D01*
Y1766153D01*
X2001606Y1765723D01*
X2001499Y1764971D01*
X2001391Y1764112D01*
Y1763897D01*
X2001284Y1763468D01*
X2001176Y1762716D01*
X2001069Y1761964D01*
X2000962D01*
X2000747D01*
X2000639D01*
X2000425D01*
X2000317Y1762179D01*
X2000210Y1762608D01*
X1999995Y1763145D01*
X1999780Y1763790D01*
Y1764005D01*
X1999565Y1764434D01*
X1999458Y1764971D01*
X1999136Y1765723D01*
Y1765831D01*
X1999028Y1766046D01*
X1998813Y1766475D01*
X1998598Y1766905D01*
X1997954Y1768087D01*
X1996987Y1769375D01*
X1996880Y1769483D01*
X1996772Y1769590D01*
X1996450Y1769913D01*
X1996021Y1770342D01*
X1995054Y1771309D01*
X1993980Y1772491D01*
X1993872Y1772598D01*
X1993550Y1772920D01*
X1993120Y1773457D01*
X1992583Y1774102D01*
X1991939Y1774854D01*
X1991187Y1775820D01*
X1989683Y1777861D01*
X1989576Y1777969D01*
X1989361Y1778398D01*
X1989038Y1778936D01*
X1988716Y1779688D01*
X1988286Y1780654D01*
X1987964Y1781621D01*
X1987642Y1782803D01*
X1987427Y1784092D01*
Y1784414D01*
X1987320Y1784736D01*
Y1785058D01*
X1987212Y1786133D01*
Y1788281D01*
X1987320Y1789248D01*
X1987535Y1790322D01*
Y1790429D01*
X1987642Y1790859D01*
X1987857Y1791288D01*
X1988179Y1791933D01*
X1988609Y1792578D01*
X1989253Y1793222D01*
X1989898Y1793759D01*
X1990865Y1794081D01*
X1990972D01*
X1991294Y1794189D01*
X1991724D01*
X1992153D01*
X1992261D01*
X1992476D01*
X1992798Y1794081D01*
D02*
G37*
G36*
X1979478Y1757882D02*
X1979693Y1757452D01*
X1980015Y1756915D01*
X1980445Y1756163D01*
X1980982Y1755304D01*
X1981519Y1754337D01*
X1982701Y1752296D01*
X1982808Y1752189D01*
X1983023Y1751867D01*
X1983238Y1751222D01*
X1983668Y1750578D01*
X1984205Y1749718D01*
X1984742Y1748859D01*
X1985816Y1746818D01*
X1985708D01*
X1985601Y1746711D01*
Y1746603D01*
X1985494Y1746496D01*
X1985386Y1746603D01*
X1984957Y1747033D01*
X1984312Y1747462D01*
X1983560Y1748107D01*
X1983345Y1748215D01*
X1982916Y1748644D01*
X1982271Y1749181D01*
X1981412Y1749826D01*
Y1749718D01*
X1981304Y1749396D01*
X1981090Y1748966D01*
X1980982Y1748429D01*
Y1748322D01*
X1980875Y1748000D01*
X1980767Y1747570D01*
X1980553Y1746926D01*
X1980445Y1747033D01*
X1980230Y1747355D01*
X1979908Y1747892D01*
X1979371Y1748429D01*
X1978834Y1749181D01*
X1978189Y1750040D01*
X1976900Y1751867D01*
X1976793Y1751974D01*
X1976578Y1752296D01*
X1976256Y1752833D01*
X1975826Y1753478D01*
X1975182Y1754230D01*
X1974537Y1755089D01*
X1973141Y1757023D01*
X1973248D01*
X1973356Y1756915D01*
X1974108Y1756700D01*
X1975074Y1756378D01*
X1976041Y1755948D01*
X1976148D01*
X1976256Y1755841D01*
X1976900Y1755626D01*
X1977760Y1755197D01*
X1978726Y1754767D01*
Y1754874D01*
X1978834Y1755304D01*
X1978941Y1755734D01*
X1979049Y1756271D01*
Y1756378D01*
X1979156Y1756700D01*
X1979263Y1757238D01*
X1979371Y1757989D01*
X1979478Y1757882D01*
D02*
G37*
G36*
X2006118Y1754982D02*
X2006225Y1754874D01*
X2006655Y1754659D01*
X2007192Y1754122D01*
X2007944Y1753585D01*
X2008696Y1752941D01*
X2009662Y1752081D01*
X2011488Y1750363D01*
X2011596Y1750255D01*
X2011811Y1749933D01*
X2012240Y1749396D01*
X2012778Y1748644D01*
X2013315Y1747785D01*
X2013959Y1746711D01*
X2014496Y1745529D01*
X2015033Y1744240D01*
Y1744025D01*
X2015141Y1743595D01*
X2015248Y1743058D01*
X2015356Y1742307D01*
Y1741662D01*
X2015248Y1741017D01*
X2015141Y1740266D01*
Y1740158D01*
X2015033Y1739943D01*
X2014926Y1739621D01*
X2014818Y1739084D01*
X2014389Y1738117D01*
X2013637Y1737258D01*
X2013529D01*
X2013422Y1737043D01*
X2012778Y1736721D01*
X2011918Y1736291D01*
X2010737Y1735969D01*
X2010629D01*
X2010414D01*
X2009985Y1735862D01*
X2009448D01*
X2008266Y1735969D01*
X2006977Y1736184D01*
X2006870D01*
X2006655Y1736291D01*
X2006333Y1736399D01*
X2005903Y1736613D01*
X2004829Y1737043D01*
X2003540Y1737580D01*
X2003432D01*
X2003325Y1737688D01*
X2003003Y1737903D01*
X2002573Y1738117D01*
X2001606Y1738547D01*
X2000425Y1739191D01*
X2000317D01*
X2000210Y1739299D01*
X1999888Y1739514D01*
X1999458Y1739729D01*
X1998491Y1740158D01*
X1997310Y1740803D01*
Y1738332D01*
X1997202Y1737903D01*
Y1737795D01*
X1997095Y1737473D01*
X1996987Y1736936D01*
X1996880Y1736399D01*
X1996772Y1736291D01*
X1996665Y1735969D01*
X1996450Y1735539D01*
X1996235Y1735110D01*
X1996128D01*
X1996021Y1734895D01*
X1995376Y1734680D01*
X1995269D01*
X1995054Y1734573D01*
X1994731D01*
X1994409D01*
X1994302D01*
X1994194Y1734680D01*
X1993980Y1734895D01*
X1993765Y1735110D01*
X1993657Y1735217D01*
X1993550Y1735432D01*
X1993443Y1735647D01*
Y1736613D01*
X1993335Y1737365D01*
Y1738225D01*
X1993120Y1739299D01*
X1992798Y1740480D01*
X1992476Y1741662D01*
X1991939Y1742844D01*
X1991831Y1742951D01*
X1991616Y1743381D01*
X1991294Y1744025D01*
X1990865Y1744777D01*
X1990435Y1745744D01*
X1989898Y1746818D01*
X1988609Y1749181D01*
X1988501Y1749289D01*
X1988394Y1749611D01*
X1988072Y1750148D01*
X1987857Y1750685D01*
X1987749Y1750793D01*
X1987642Y1751222D01*
X1987535Y1751867D01*
X1987427Y1752619D01*
X1987535D01*
X1987857Y1752404D01*
X1988286Y1752189D01*
X1988931Y1751974D01*
X1990327Y1751222D01*
X1992046Y1750363D01*
X1992153D01*
X1992476Y1750148D01*
X1992905Y1749933D01*
X1993550Y1749718D01*
X1994946Y1748966D01*
X1996665Y1748107D01*
X1996772Y1748000D01*
X1997095Y1747892D01*
X1997632Y1747570D01*
X1998276Y1747248D01*
X1999028Y1746818D01*
X1999888Y1746388D01*
X2001821Y1745314D01*
X2001928Y1745207D01*
X2002251Y1745099D01*
X2002788Y1744777D01*
X2003540Y1744455D01*
X2004292Y1744025D01*
X2005258Y1743595D01*
X2007192Y1742629D01*
X2007299D01*
X2007621Y1742414D01*
X2008051Y1742307D01*
X2008481Y1742092D01*
X2008588D01*
X2008911Y1741984D01*
X2009448Y1741877D01*
X2009985Y1741770D01*
X2010092D01*
X2010199D01*
X2010844Y1741877D01*
X2011596Y1742092D01*
X2012240Y1742629D01*
X2012348Y1742844D01*
X2012455Y1743273D01*
Y1744025D01*
X2012348Y1744455D01*
X2012133Y1744992D01*
Y1745099D01*
X2012026Y1745207D01*
X2011596Y1745851D01*
X2010951Y1746711D01*
X2010199Y1747570D01*
Y1747677D01*
X2009985Y1747785D01*
X2009555Y1748429D01*
X2008803Y1749181D01*
X2008051Y1750148D01*
X2007944Y1750255D01*
X2007621Y1750685D01*
X2007084Y1751222D01*
X2006547Y1751759D01*
X2006440Y1751867D01*
X2006010Y1752296D01*
X2005473Y1752726D01*
X2004936Y1753371D01*
X2004829Y1753585D01*
X2004721Y1753800D01*
X2004614Y1754122D01*
Y1754445D01*
X2004506Y1754982D01*
X2004614D01*
X2004721D01*
X2005366Y1755089D01*
X2005473D01*
X2005581D01*
X2006118Y1754982D01*
D02*
G37*
G36*
X1996128Y1727483D02*
X1996558Y1727376D01*
X1997847Y1726946D01*
X1998491Y1726516D01*
X1999136Y1726087D01*
X1999243Y1725979D01*
X1999458Y1725872D01*
X1999780Y1725550D01*
X2000102Y1725120D01*
X2000962Y1724046D01*
X2001284Y1723401D01*
X2001606Y1722649D01*
Y1722542D01*
X2001714Y1722327D01*
X2001821Y1721683D01*
Y1720394D01*
X2001606Y1719857D01*
X2001284Y1719105D01*
X2000747Y1718353D01*
X2000639Y1718245D01*
X2000210Y1717923D01*
X1999565Y1717708D01*
X1998706Y1717601D01*
X1998598D01*
X1998169Y1717708D01*
X1997739Y1718030D01*
X1997310Y1718568D01*
X1997202Y1718782D01*
X1997095Y1719212D01*
X1996987Y1720071D01*
Y1721145D01*
X1997095Y1721468D01*
X1997202Y1722220D01*
Y1722542D01*
X1996987Y1722864D01*
X1996558Y1723079D01*
X1996450D01*
X1996235Y1723186D01*
X1995913Y1723294D01*
X1995483D01*
X1995376D01*
X1995054D01*
X1994409Y1723079D01*
X1994302Y1722972D01*
X1993980Y1722864D01*
X1993657Y1722542D01*
X1993443Y1722112D01*
Y1722005D01*
X1993335Y1721683D01*
Y1721253D01*
X1993443Y1720823D01*
Y1720716D01*
X1993657Y1720286D01*
X1993872Y1719749D01*
X1994087Y1719105D01*
Y1718997D01*
X1994302Y1718568D01*
X1994517Y1718030D01*
X1994839Y1717493D01*
X1994946Y1717278D01*
X1995376Y1716634D01*
X1996021Y1715775D01*
X1996987Y1714593D01*
X1998061Y1713197D01*
X1999243Y1711800D01*
X2000532Y1710296D01*
X2002036Y1708793D01*
X2002251Y1708578D01*
X2002788Y1708148D01*
X2003647Y1707396D01*
X2004829Y1706537D01*
X2006225Y1705570D01*
X2007836Y1704496D01*
X2009662Y1703529D01*
X2011703Y1702562D01*
X2011811D01*
X2012133Y1702348D01*
X2012563Y1702133D01*
X2013100Y1701918D01*
X2014174Y1701166D01*
X2014604Y1700736D01*
X2014818Y1700307D01*
X2014926Y1700092D01*
Y1699770D01*
X2015033Y1699340D01*
X2015141Y1698695D01*
Y1696869D01*
X2015033Y1695580D01*
X2014926D01*
X2014818Y1695688D01*
X2014174Y1696010D01*
X2013207Y1696440D01*
X2011918Y1697084D01*
X2010414Y1697836D01*
X2008803Y1698695D01*
X2006977Y1699662D01*
X2005151Y1700629D01*
X2005043D01*
X2004936Y1700736D01*
X2004292Y1701059D01*
X2003325Y1701596D01*
X2002036Y1702348D01*
X2000532Y1703207D01*
X1998813Y1704174D01*
X1996987Y1705140D01*
X1995054Y1706322D01*
Y1706215D01*
X1995161Y1706000D01*
Y1705570D01*
X1995269Y1705140D01*
X1995591Y1703959D01*
X1995913Y1702777D01*
Y1702562D01*
X1996021Y1702240D01*
X1996128Y1701810D01*
X1996343Y1700844D01*
X1996665Y1699662D01*
X1996558D01*
X1996450D01*
X1996343D01*
X1996235Y1699555D01*
X1996128Y1699662D01*
X1995913Y1699984D01*
X1995806Y1700092D01*
X1995591Y1700522D01*
X1995483Y1700629D01*
X1995376Y1700951D01*
X1995161Y1701488D01*
X1994731Y1702133D01*
X1994409Y1702885D01*
X1993980Y1703744D01*
X1993013Y1705570D01*
X1992905Y1705677D01*
X1992798Y1706000D01*
X1992476Y1706537D01*
X1992046Y1707074D01*
X1990865Y1708578D01*
X1989361Y1710189D01*
X1989253Y1710296D01*
X1988931Y1710619D01*
X1988824Y1710726D01*
X1988716Y1711156D01*
Y1712337D01*
X1988824Y1712552D01*
X1988931Y1712767D01*
X1989146Y1712874D01*
X1989361Y1712982D01*
X1989683Y1713089D01*
X1989790D01*
X1990005D01*
X1990542D01*
X1990757Y1712982D01*
X1991187Y1712874D01*
X1991724Y1712552D01*
X1992476Y1712230D01*
X1992583Y1712122D01*
X1993013Y1712015D01*
X1993657Y1711693D01*
X1994409Y1711371D01*
Y1711478D01*
X1994302Y1711800D01*
X1994087Y1712230D01*
X1993872Y1712767D01*
X1993228Y1714163D01*
X1992583Y1715667D01*
Y1715775D01*
X1992476Y1715990D01*
X1992261Y1716419D01*
X1992046Y1717064D01*
X1991509Y1718460D01*
X1990972Y1720071D01*
Y1720286D01*
X1990865Y1720716D01*
X1990757Y1721360D01*
Y1723401D01*
X1990865Y1724153D01*
Y1724261D01*
X1990972Y1724475D01*
X1991187Y1725227D01*
X1991616Y1726087D01*
X1992368Y1726839D01*
X1992583Y1726946D01*
X1993228Y1727268D01*
X1994087Y1727483D01*
X1995376Y1727590D01*
X1995483D01*
X1995698D01*
X1996128Y1727483D01*
D02*
G37*
G36*
X1983990Y1698481D02*
X1984527Y1698266D01*
X1984849Y1697836D01*
Y1697729D01*
X1984957Y1697406D01*
X1985064Y1696977D01*
X1985171Y1696332D01*
Y1695043D01*
X1985279Y1694291D01*
Y1693110D01*
X1985171Y1692358D01*
Y1691606D01*
X1985279Y1690961D01*
X1985601Y1690210D01*
X1985708Y1690102D01*
X1986031Y1689780D01*
X1986568Y1689350D01*
X1987320Y1688920D01*
X1987427D01*
X1987642Y1688706D01*
X1988072Y1688598D01*
X1988609Y1688276D01*
X1990005Y1687632D01*
X1991616Y1686772D01*
X1991724D01*
X1991939Y1686557D01*
X1992368Y1686342D01*
X1992905Y1686128D01*
X1994194Y1685376D01*
X1995806Y1684516D01*
X1995913Y1684409D01*
X1996235Y1684302D01*
X1996772Y1683979D01*
X1997524Y1683657D01*
X1998276Y1683227D01*
X1999243Y1682798D01*
X2001176Y1681724D01*
X2001284Y1681616D01*
X2001606Y1681509D01*
X2002143Y1681187D01*
X2002895Y1680864D01*
X2003647Y1680435D01*
X2004614Y1680005D01*
X2006655Y1679038D01*
X2006870Y1678931D01*
X2007299Y1678716D01*
X2007836Y1678501D01*
X2008588Y1678179D01*
X2008803Y1678071D01*
X2009233Y1677964D01*
X2009770Y1677749D01*
X2010522Y1677642D01*
X2010629D01*
X2010737D01*
X2011381D01*
X2012026Y1677857D01*
X2012348Y1678071D01*
X2012563Y1678394D01*
X2012670Y1678609D01*
X2012778Y1679038D01*
Y1679790D01*
X2012670Y1680220D01*
X2012455Y1680649D01*
X2012348Y1680864D01*
X2012133Y1681294D01*
X2011811Y1681938D01*
X2011274Y1682583D01*
X2011166Y1682798D01*
X2010737Y1683227D01*
X2010307Y1683764D01*
X2009662Y1684409D01*
X2009448Y1684624D01*
X2008911Y1685054D01*
X2008159Y1685805D01*
X2007299Y1686665D01*
X2007192D01*
X2007084Y1686880D01*
X2006547Y1687309D01*
X2005795Y1687954D01*
X2004936Y1688706D01*
Y1688813D01*
X2005043Y1688920D01*
X2005151Y1689028D01*
X2005258Y1689243D01*
X2005366D01*
X2005473Y1689135D01*
X2006118Y1689028D01*
X2006225D01*
X2006333Y1688920D01*
X2006977Y1688706D01*
X2007084D01*
X2007299Y1688491D01*
X2007729Y1688276D01*
X2008266Y1688061D01*
X2009448Y1687309D01*
X2010844Y1686342D01*
X2010951Y1686235D01*
X2011166Y1686128D01*
X2011381Y1685805D01*
X2011811Y1685376D01*
X2012885Y1684409D01*
X2013959Y1683120D01*
Y1683013D01*
X2014174Y1682905D01*
X2014496Y1682261D01*
X2015033Y1681401D01*
X2015463Y1680327D01*
Y1680220D01*
X2015570Y1680112D01*
X2015678Y1679360D01*
X2015893Y1678394D01*
X2016000Y1677319D01*
Y1676568D01*
X2015893Y1676245D01*
Y1675816D01*
X2015463Y1674849D01*
X2015248Y1674312D01*
X2014818Y1673775D01*
X2014711Y1673667D01*
X2014604Y1673560D01*
X2014281Y1673345D01*
X2013852Y1673023D01*
X2012778Y1672593D01*
X2012133Y1672378D01*
X2011488D01*
X2011381D01*
X2011274D01*
X2010522D01*
X2009555Y1672486D01*
X2008481Y1672593D01*
X2008373D01*
X2008266D01*
X2007621Y1672808D01*
X2006762Y1673023D01*
X2005688Y1673345D01*
X2005581D01*
X2005258Y1673452D01*
X2004829Y1673667D01*
X2004184Y1673882D01*
X2002788Y1674419D01*
X2001069Y1675064D01*
X2000962D01*
X2000639Y1675279D01*
X2000210Y1675493D01*
X1999673Y1675708D01*
X1999028Y1676030D01*
X1998169Y1676460D01*
X1996450Y1677212D01*
Y1677105D01*
X1996558Y1676782D01*
X1996665Y1676353D01*
X1996772Y1675816D01*
X1997202Y1674527D01*
X1997524Y1673023D01*
Y1672915D01*
X1997632Y1672701D01*
X1997739Y1672271D01*
X1997847Y1671734D01*
X1998169Y1670445D01*
X1998491Y1669048D01*
X1998384Y1668941D01*
X1998276Y1668834D01*
X1998169D01*
X1997954Y1668726D01*
Y1668834D01*
X1997847Y1668941D01*
X1997524Y1669586D01*
X1997095Y1670445D01*
X1996665Y1671519D01*
Y1671626D01*
X1996558Y1671734D01*
X1996235Y1672486D01*
X1995806Y1673345D01*
X1995269Y1674312D01*
Y1674419D01*
X1995161Y1674527D01*
X1994731Y1675171D01*
X1994087Y1675923D01*
X1993443Y1676890D01*
Y1676997D01*
X1993228Y1677105D01*
X1992798Y1677749D01*
X1992153Y1678609D01*
X1991294Y1679468D01*
X1991079Y1679683D01*
X1990542Y1680112D01*
X1989790Y1680757D01*
X1988716Y1681509D01*
X1988609D01*
X1988501Y1681724D01*
X1987749Y1682153D01*
X1986783Y1682905D01*
X1985601Y1683872D01*
Y1683657D01*
X1985494Y1683013D01*
Y1681079D01*
X1985386Y1680649D01*
Y1680112D01*
X1985279Y1679360D01*
Y1679253D01*
X1985171Y1679146D01*
X1984957Y1678501D01*
Y1678394D01*
X1984849Y1678286D01*
X1984527Y1677749D01*
X1984420D01*
X1984205Y1677857D01*
X1983453Y1678286D01*
X1983345D01*
X1983130Y1678501D01*
X1982808Y1678609D01*
X1982701Y1678931D01*
X1982593Y1679146D01*
X1982486Y1679575D01*
X1982271Y1680220D01*
X1982056Y1680972D01*
Y1681187D01*
X1981949Y1681616D01*
Y1683227D01*
X1981841Y1683764D01*
X1981734Y1684516D01*
X1981519Y1685161D01*
X1981412Y1685268D01*
X1981090Y1685591D01*
X1980553Y1686020D01*
X1979801Y1686557D01*
X1979586Y1686665D01*
X1979156Y1686880D01*
X1978619Y1687202D01*
X1977867Y1687739D01*
X1977760Y1687846D01*
X1977330Y1688061D01*
X1976793Y1688491D01*
X1976148Y1689028D01*
X1976041Y1689135D01*
X1975934Y1689243D01*
X1975397Y1689887D01*
X1975289Y1689995D01*
X1975182Y1690210D01*
X1974967Y1690532D01*
X1974859Y1690961D01*
Y1691069D01*
X1974752Y1691176D01*
Y1691713D01*
X1974859Y1692465D01*
X1974967Y1692787D01*
X1975182Y1693110D01*
X1975289Y1693217D01*
X1975719Y1693539D01*
X1976471Y1693754D01*
X1977437D01*
X1977545D01*
X1977760Y1693647D01*
X1978404Y1693432D01*
X1978512D01*
X1978726Y1693325D01*
X1979371Y1693002D01*
X1979478D01*
X1979586Y1692895D01*
X1980230Y1692680D01*
X1980338D01*
X1980553Y1692573D01*
X1980875Y1692358D01*
X1981412Y1692143D01*
Y1692358D01*
X1981519Y1692895D01*
Y1693647D01*
X1981627Y1694399D01*
Y1694614D01*
X1981734Y1695043D01*
Y1695688D01*
X1981841Y1696440D01*
Y1696547D01*
X1981949Y1696869D01*
X1982056Y1697299D01*
X1982164Y1697836D01*
X1982271Y1697944D01*
X1982486Y1698158D01*
X1982808Y1698481D01*
X1983453Y1698588D01*
X1983668D01*
X1983990Y1698481D01*
D02*
G37*
G36*
X1924803Y1706537D02*
X1924911D01*
X1925018D01*
X1925770Y1706322D01*
X1926737Y1706107D01*
X1927811Y1705677D01*
X1927918D01*
X1928026Y1705570D01*
X1928670Y1705355D01*
X1929530Y1704926D01*
X1930496Y1704388D01*
X1930711Y1704281D01*
X1931356Y1703959D01*
X1932323Y1703422D01*
X1933611Y1702670D01*
X1935115Y1701810D01*
X1936727Y1700951D01*
X1938553Y1699877D01*
X1940379Y1698803D01*
X1940594Y1698695D01*
X1941238Y1698266D01*
X1942205Y1697729D01*
X1943386Y1696977D01*
X1944890Y1696117D01*
X1946501Y1695151D01*
X1948327Y1694184D01*
X1950154Y1693110D01*
X1950368Y1693002D01*
X1950798Y1692787D01*
X1951550Y1692358D01*
X1952517Y1692036D01*
X1952624D01*
X1952732Y1691928D01*
X1953269Y1691821D01*
X1954128Y1691606D01*
X1955095Y1691391D01*
X1955202D01*
X1955417D01*
X1956062Y1691284D01*
X1956921Y1691391D01*
X1957243Y1691606D01*
X1957565Y1691928D01*
X1957673Y1692143D01*
X1957780Y1692573D01*
X1957888Y1693432D01*
X1957780Y1693862D01*
X1957673Y1694506D01*
Y1694614D01*
X1957565Y1694828D01*
X1957458Y1695151D01*
X1957243Y1695473D01*
X1956814Y1696440D01*
X1956062Y1697406D01*
X1955954Y1697514D01*
X1955847Y1697621D01*
X1955310Y1698158D01*
X1954558Y1699018D01*
X1953591Y1699877D01*
X1953483Y1699984D01*
X1953054Y1700307D01*
X1952517Y1700736D01*
X1951980Y1701273D01*
X1951872Y1701381D01*
X1951550Y1701703D01*
X1951120Y1702133D01*
X1950691Y1702777D01*
Y1702885D01*
X1950583Y1703100D01*
X1950476Y1703422D01*
Y1704388D01*
X1950583Y1704818D01*
X1950798Y1705033D01*
X1950905Y1705140D01*
X1951013Y1705248D01*
X1951443Y1705355D01*
X1951980D01*
X1952087D01*
X1952409D01*
X1952839Y1705248D01*
X1953161Y1705033D01*
X1953269Y1704926D01*
X1953591Y1704603D01*
X1954128Y1704174D01*
X1954772Y1703637D01*
X1955524Y1702885D01*
X1956276Y1702133D01*
X1957995Y1700414D01*
X1958103Y1700307D01*
X1958425Y1699984D01*
X1958854Y1699447D01*
X1959391Y1698803D01*
X1959928Y1697944D01*
X1960573Y1696977D01*
X1961217Y1695903D01*
X1961862Y1694721D01*
X1961969Y1694614D01*
X1962077Y1694184D01*
X1962292Y1693539D01*
X1962399Y1692680D01*
X1962507Y1691713D01*
X1962399Y1690747D01*
X1962184Y1689672D01*
X1961647Y1688598D01*
X1961540Y1688491D01*
X1961325Y1688169D01*
X1960895Y1687739D01*
X1960358Y1687309D01*
X1959606Y1686772D01*
X1958747Y1686235D01*
X1957780Y1685805D01*
X1956706Y1685591D01*
X1956599D01*
X1956384D01*
X1955847Y1685483D01*
X1955739D01*
X1955524D01*
X1955095D01*
X1954665Y1685376D01*
X1954558D01*
X1954236Y1685483D01*
X1953698D01*
X1953054Y1685591D01*
X1952195Y1685805D01*
X1951335Y1686020D01*
X1949402Y1686450D01*
X1949294D01*
X1948972Y1686557D01*
X1948435Y1686772D01*
X1947791Y1686987D01*
X1947039Y1687309D01*
X1946179Y1687632D01*
X1944353Y1688383D01*
X1944246Y1688491D01*
X1943923Y1688598D01*
X1943386Y1688920D01*
X1942742Y1689350D01*
X1941990Y1689887D01*
X1941131Y1690424D01*
X1939305Y1691606D01*
X1939197Y1691713D01*
X1938875Y1691928D01*
X1938338Y1692250D01*
X1937693Y1692680D01*
X1936941Y1693217D01*
X1936082Y1693754D01*
X1934256Y1695043D01*
X1934149D01*
X1934041Y1695258D01*
X1933397Y1695688D01*
X1932537Y1696332D01*
X1931678Y1697084D01*
X1931571D01*
X1931463Y1697299D01*
X1930926Y1697729D01*
X1930067Y1698373D01*
X1929207Y1699125D01*
X1929100Y1699232D01*
X1928885Y1699340D01*
X1928348Y1699770D01*
X1928241D01*
X1928026Y1699877D01*
X1927381Y1700199D01*
X1927274D01*
X1926844Y1700307D01*
X1926415Y1700199D01*
X1925878Y1699984D01*
X1925770Y1699877D01*
X1925663Y1699662D01*
X1925555Y1699232D01*
X1925663Y1698588D01*
X1925770Y1698481D01*
X1925878Y1698051D01*
X1926200Y1697514D01*
X1926522Y1696977D01*
X1926629Y1696869D01*
X1926844Y1696440D01*
X1927166Y1695903D01*
X1927596Y1695365D01*
X1927704Y1695258D01*
X1927918Y1694936D01*
X1928348Y1694506D01*
X1928885Y1693969D01*
X1928993Y1693862D01*
X1929100Y1693539D01*
Y1692787D01*
X1928885Y1692465D01*
X1928778Y1692358D01*
X1928348Y1692036D01*
X1927811Y1691821D01*
X1927166D01*
X1926952D01*
X1926522Y1692036D01*
X1925985Y1692143D01*
X1925233Y1692465D01*
X1925126Y1692573D01*
X1924803Y1692787D01*
X1924266Y1693110D01*
X1923729Y1693539D01*
X1922977Y1694184D01*
X1922333Y1695043D01*
X1921688Y1696010D01*
X1921044Y1697192D01*
Y1697299D01*
X1920829Y1697621D01*
X1920721Y1698051D01*
X1920507Y1698588D01*
X1920184Y1699984D01*
X1919970Y1701488D01*
Y1702025D01*
X1920077Y1702670D01*
X1920292Y1703314D01*
Y1703422D01*
X1920399Y1703637D01*
X1920614Y1704388D01*
X1921151Y1705248D01*
X1921903Y1706000D01*
X1922118Y1706107D01*
X1922655Y1706429D01*
X1923622Y1706644D01*
X1924159D01*
X1924803Y1706537D01*
D02*
G37*
G36*
X1930067Y1676030D02*
X1930174Y1675923D01*
Y1675816D01*
X1930389Y1675708D01*
X1930819Y1675064D01*
X1931356Y1674204D01*
X1932108Y1673130D01*
Y1673023D01*
X1932215Y1672915D01*
X1932430Y1672593D01*
X1932537Y1672164D01*
X1932967Y1671089D01*
X1933397Y1669800D01*
X1933289D01*
X1933074D01*
X1932645Y1669693D01*
X1932108D01*
X1930926Y1669800D01*
X1930282Y1670015D01*
X1929637Y1670230D01*
X1929530D01*
X1929315Y1670337D01*
X1928670Y1670874D01*
X1927918Y1671626D01*
X1927596Y1672164D01*
X1927381Y1672808D01*
Y1672915D01*
X1927274Y1673345D01*
X1927381Y1673882D01*
X1927489Y1674634D01*
X1927596Y1674849D01*
X1927811Y1675171D01*
X1928133Y1675601D01*
X1928670Y1676030D01*
X1928778D01*
X1928885Y1676138D01*
X1929530D01*
X1929637D01*
X1929852D01*
X1930067Y1676030D01*
D02*
G37*
G36*
X1954021Y1676353D02*
X1954772Y1675816D01*
X1954880Y1675708D01*
X1955202Y1675493D01*
X1955632Y1675171D01*
X1956169Y1674742D01*
X1957458Y1673667D01*
X1958854Y1672271D01*
X1958962Y1672164D01*
X1959177Y1671949D01*
X1959499Y1671519D01*
X1959928Y1670982D01*
X1960466Y1670230D01*
X1961003Y1669478D01*
X1962077Y1667759D01*
Y1667652D01*
X1962292Y1667330D01*
X1962399Y1666900D01*
X1962614Y1666470D01*
Y1666363D01*
X1962721Y1666041D01*
X1962829Y1665611D01*
X1962936Y1665181D01*
Y1663033D01*
X1962721Y1662066D01*
X1962399Y1661100D01*
X1961969Y1660240D01*
X1961217Y1659381D01*
X1961110Y1659274D01*
X1960788Y1659059D01*
X1960358Y1658736D01*
X1959606Y1658414D01*
X1958747Y1658199D01*
X1957780Y1657984D01*
X1956599Y1658092D01*
X1955310Y1658307D01*
X1955202D01*
X1955095Y1658414D01*
X1954343Y1658629D01*
X1953376Y1658951D01*
X1952302Y1659488D01*
X1952195D01*
X1952087Y1659596D01*
X1951335Y1659918D01*
X1950368Y1660348D01*
X1949294Y1660885D01*
X1949187Y1660992D01*
X1948757Y1661100D01*
X1948113Y1661422D01*
X1947468Y1661744D01*
X1947253Y1661852D01*
X1946824Y1662066D01*
X1946179Y1662389D01*
X1945320Y1662711D01*
Y1661422D01*
X1945427Y1660777D01*
Y1659703D01*
X1945320Y1659166D01*
Y1659059D01*
X1945105Y1658736D01*
X1944675Y1657984D01*
X1944568Y1657877D01*
X1944353Y1657662D01*
X1943709Y1656910D01*
X1943601D01*
X1943386Y1656803D01*
X1943064Y1656696D01*
X1942634Y1656803D01*
X1942527D01*
X1942312Y1657018D01*
X1942097Y1657340D01*
X1941990Y1657877D01*
Y1658629D01*
X1941883Y1659381D01*
X1941775Y1660455D01*
X1941453Y1661744D01*
X1941131Y1663033D01*
X1940594Y1664429D01*
X1939949Y1665826D01*
X1939842Y1666041D01*
X1939627Y1666470D01*
X1939197Y1667115D01*
X1938660Y1668082D01*
X1938016Y1669156D01*
X1937371Y1670445D01*
X1935975Y1673130D01*
Y1673238D01*
X1935867Y1673345D01*
X1935760Y1673775D01*
X1935652Y1673990D01*
X1935438Y1674204D01*
X1935330Y1674634D01*
X1935438Y1674527D01*
X1935760Y1674419D01*
X1936297Y1674204D01*
X1936941Y1673882D01*
X1937693Y1673452D01*
X1938445Y1673023D01*
X1940271Y1672164D01*
X1940379D01*
X1940701Y1671949D01*
X1941131Y1671734D01*
X1941668Y1671412D01*
X1943172Y1670660D01*
X1944783Y1669800D01*
X1944890D01*
X1945105Y1669586D01*
X1945535Y1669478D01*
X1945964Y1669156D01*
X1947253Y1668511D01*
X1948650Y1667759D01*
X1948757D01*
X1948972Y1667545D01*
X1949402Y1667330D01*
X1949831Y1667115D01*
X1951120Y1666470D01*
X1952517Y1665719D01*
X1952624Y1665611D01*
X1952946Y1665504D01*
X1953483Y1665181D01*
X1954128Y1664967D01*
X1954236Y1664859D01*
X1954558Y1664752D01*
X1955095Y1664429D01*
X1955739Y1664215D01*
X1955847D01*
X1955954Y1664107D01*
X1956599Y1663892D01*
X1957350Y1663678D01*
X1958210D01*
X1958425D01*
X1958747Y1663785D01*
X1959284Y1664000D01*
X1959714Y1664429D01*
Y1664537D01*
X1959821Y1664644D01*
X1960036Y1665181D01*
X1960143Y1665826D01*
X1960036Y1666148D01*
X1959928Y1666470D01*
X1959821Y1666685D01*
X1959606Y1667007D01*
X1959284Y1667652D01*
X1958854Y1668189D01*
X1958747Y1668297D01*
X1958640Y1668404D01*
X1958103Y1669156D01*
X1957243Y1670015D01*
X1956384Y1671089D01*
X1956276Y1671197D01*
X1956169Y1671304D01*
X1955524Y1671949D01*
X1954665Y1672915D01*
X1953698Y1673990D01*
X1953591Y1674097D01*
X1953376Y1674312D01*
X1952839Y1674956D01*
X1952732Y1675064D01*
X1952624Y1675279D01*
X1951980Y1676030D01*
X1952195Y1676138D01*
X1952624Y1676353D01*
X1953161Y1676460D01*
X1953698D01*
X1953806D01*
X1954021Y1676353D01*
D02*
G37*
G36*
X1993443Y1663570D02*
X1994087Y1663355D01*
X1994731Y1663141D01*
X1995483Y1662711D01*
X1995591Y1662603D01*
X1995806Y1662496D01*
X1996128Y1662174D01*
X1996558Y1661744D01*
X1997524Y1660670D01*
X1998491Y1659166D01*
Y1659059D01*
X1998598Y1658629D01*
X1998706Y1658414D01*
X1998813Y1658092D01*
Y1657233D01*
X1998706Y1656481D01*
X1998384Y1655729D01*
X1998276Y1655621D01*
X1997847Y1655299D01*
X1997202Y1655192D01*
X1996772Y1655084D01*
X1996235Y1655192D01*
X1996021Y1655299D01*
X1995591Y1655406D01*
X1995054Y1655729D01*
X1994409Y1656158D01*
X1994302Y1656266D01*
X1993872Y1656588D01*
X1993335Y1656910D01*
X1992691Y1657340D01*
X1992583D01*
X1992368Y1657447D01*
X1991724Y1657877D01*
X1991616D01*
X1991402Y1657984D01*
X1990757Y1658414D01*
Y1658307D01*
X1990650Y1657984D01*
Y1657555D01*
X1990542Y1657125D01*
Y1657018D01*
X1990435Y1656803D01*
Y1655836D01*
X1990542Y1655621D01*
Y1655192D01*
X1990650Y1654762D01*
X1991079Y1653580D01*
X1991616Y1652291D01*
Y1652184D01*
X1991724Y1651969D01*
X1991939Y1651647D01*
X1992261Y1651217D01*
X1992905Y1650251D01*
X1993872Y1649176D01*
X1993980Y1649069D01*
X1994409Y1648747D01*
X1995054Y1648210D01*
X1995806Y1647458D01*
X1996772Y1646706D01*
X1997954Y1645954D01*
X1999136Y1645094D01*
X2000425Y1644343D01*
X2000532Y1644235D01*
X2001069Y1644020D01*
X2001714Y1643698D01*
X2002680Y1643376D01*
X2003862Y1642839D01*
X2005151Y1642409D01*
X2006655Y1641979D01*
X2008159Y1641657D01*
X2008266D01*
X2008696Y1641550D01*
X2009233D01*
X2009877Y1641657D01*
X2009985D01*
X2010414Y1641765D01*
X2010951Y1641872D01*
X2011596Y1642087D01*
X2011703Y1642194D01*
X2012026Y1642409D01*
X2012455Y1642731D01*
X2012885Y1643268D01*
X2012992Y1643376D01*
X2013100Y1643806D01*
X2013207Y1644343D01*
Y1645309D01*
X2013100Y1645739D01*
X2012885Y1646491D01*
X2012778Y1647243D01*
Y1647350D01*
X2012563Y1647780D01*
X2012455Y1648317D01*
X2012133Y1648961D01*
Y1649069D01*
X2011918Y1649284D01*
X2011703Y1649713D01*
X2011381Y1650251D01*
X2010629Y1651539D01*
X2009662Y1653043D01*
X2009555Y1653151D01*
X2009448Y1653366D01*
X2009125Y1653795D01*
X2008803Y1654332D01*
X2007944Y1655621D01*
X2006870Y1657125D01*
X2007084Y1657018D01*
X2007621Y1656803D01*
X2008481Y1656481D01*
X2009448Y1655836D01*
X2010629Y1654977D01*
X2011811Y1653903D01*
X2012992Y1652506D01*
X2013959Y1650788D01*
X2014066Y1650573D01*
X2014389Y1649928D01*
X2014818Y1648961D01*
X2015141Y1647780D01*
X2015570Y1646276D01*
X2015678Y1644557D01*
Y1642731D01*
X2015356Y1640798D01*
Y1640690D01*
X2015248Y1640368D01*
X2015033Y1639831D01*
X2014711Y1639187D01*
X2014389Y1638542D01*
X2013852Y1637790D01*
X2013315Y1637038D01*
X2012563Y1636394D01*
X2012455Y1636286D01*
X2012240Y1636179D01*
X2011811Y1635857D01*
X2011381Y1635642D01*
X2010629Y1635320D01*
X2009877Y1635105D01*
X2009018Y1634890D01*
X2007944D01*
X2007836D01*
X2007729D01*
X2007084Y1634997D01*
X2006225Y1635105D01*
X2005151Y1635212D01*
X2005043D01*
X2004936Y1635320D01*
X2004184Y1635427D01*
X2003217Y1635534D01*
X2002143Y1635749D01*
Y1635534D01*
X2002036Y1635105D01*
X2001928Y1634460D01*
X2001821Y1633708D01*
Y1633493D01*
X2001714Y1633064D01*
X2001606Y1632312D01*
X2001499Y1631345D01*
X2001391D01*
X2001284Y1631453D01*
X2001069Y1631560D01*
X2000962Y1631667D01*
X2000854Y1631775D01*
X2000747Y1631882D01*
Y1631990D01*
X2000639Y1632419D01*
X2000425Y1632956D01*
X2000102Y1633708D01*
X1999780Y1634568D01*
X1999350Y1635534D01*
X1998276Y1637468D01*
X1998169Y1637575D01*
X1997954Y1637898D01*
X1997524Y1638327D01*
X1997095Y1638972D01*
X1995806Y1640476D01*
X1994194Y1642194D01*
X1994087Y1642302D01*
X1993657Y1642731D01*
X1993120Y1643376D01*
X1992476Y1644128D01*
X1991724Y1645094D01*
X1990972Y1646169D01*
X1989361Y1648639D01*
X1989253Y1648854D01*
X1989038Y1649284D01*
X1988824Y1650036D01*
X1988394Y1651002D01*
X1988072Y1652184D01*
X1987857Y1653580D01*
X1987642Y1655084D01*
X1987535Y1656696D01*
Y1657770D01*
X1987642Y1658414D01*
X1987964Y1659918D01*
X1988179Y1660670D01*
X1988501Y1661314D01*
Y1661422D01*
X1988716Y1661637D01*
X1989253Y1662281D01*
X1990327Y1663033D01*
X1990972Y1663355D01*
X1991724Y1663570D01*
X1991831D01*
X1992046D01*
X1992368Y1663678D01*
X1992905D01*
X1993443Y1663570D01*
D02*
G37*
G36*
X1949402Y1650036D02*
X1949617Y1649928D01*
X1950261Y1649284D01*
X1951013Y1648424D01*
X1951765Y1647243D01*
Y1647135D01*
X1951872Y1646921D01*
X1951980Y1646598D01*
X1952087Y1646169D01*
X1952195Y1645094D01*
Y1644450D01*
X1952087Y1643698D01*
Y1643483D01*
X1951980Y1643054D01*
X1952087Y1642409D01*
X1952195Y1641765D01*
X1952302Y1641657D01*
X1952409Y1641335D01*
X1952732Y1640905D01*
X1953269Y1640368D01*
X1953376D01*
X1953483Y1640153D01*
X1954128Y1639616D01*
X1954987Y1638864D01*
X1955954Y1638005D01*
X1956062Y1637898D01*
X1956169Y1637790D01*
X1956814Y1637253D01*
X1957565Y1636394D01*
X1958317Y1635427D01*
X1958425Y1635320D01*
X1958747Y1634997D01*
X1959177Y1634353D01*
X1959714Y1633708D01*
X1960251Y1632742D01*
X1960788Y1631775D01*
X1961325Y1630593D01*
X1961755Y1629412D01*
Y1629304D01*
X1961862Y1628875D01*
X1962077Y1628230D01*
X1962184Y1627371D01*
X1962292Y1626297D01*
Y1625115D01*
X1962184Y1623826D01*
X1961969Y1622430D01*
Y1622322D01*
X1961862Y1622107D01*
X1961647Y1621355D01*
X1961217Y1620496D01*
X1960895Y1620174D01*
X1960573Y1619852D01*
X1960358Y1619744D01*
X1959821Y1619422D01*
X1958854Y1619100D01*
X1957565Y1618885D01*
X1957458D01*
X1957350D01*
X1956599Y1618777D01*
X1955632Y1618885D01*
X1954558Y1618992D01*
X1954450D01*
X1954343Y1619100D01*
X1953591Y1619315D01*
X1952732Y1619637D01*
X1951658Y1620067D01*
X1951550D01*
X1951335Y1620174D01*
X1950905Y1620389D01*
X1950476Y1620603D01*
X1949294Y1621248D01*
X1947898Y1621893D01*
X1947791D01*
X1947576Y1622000D01*
X1947253Y1622215D01*
X1946716Y1622430D01*
X1945535Y1623074D01*
X1944138Y1623719D01*
X1944031Y1623826D01*
X1943816Y1623934D01*
X1943172Y1624256D01*
X1943064Y1624363D01*
X1942849Y1624471D01*
X1942420Y1624685D01*
X1941883Y1624900D01*
Y1624256D01*
X1941990Y1623611D01*
Y1622859D01*
X1942097Y1622430D01*
Y1621893D01*
X1942205Y1621355D01*
X1942097D01*
X1941990D01*
X1941668D01*
X1941560D01*
X1941453D01*
X1941346Y1621463D01*
X1941131Y1621785D01*
X1940808Y1622215D01*
X1940486Y1622752D01*
X1939412Y1624256D01*
X1938338Y1625867D01*
X1938230Y1625974D01*
X1938016Y1626297D01*
X1937693Y1626726D01*
X1937371Y1627371D01*
X1936297Y1628767D01*
X1935223Y1630486D01*
Y1630593D01*
X1935115Y1630808D01*
X1935008Y1631130D01*
Y1631990D01*
X1935115Y1632312D01*
X1935330Y1632634D01*
Y1632742D01*
X1935545Y1632849D01*
X1935867Y1632956D01*
X1936297Y1633064D01*
X1936404D01*
X1936619D01*
X1937371D01*
X1937478D01*
X1937801Y1632849D01*
X1938445Y1632634D01*
X1939090Y1632312D01*
X1939949Y1631990D01*
X1940916Y1631560D01*
X1942957Y1630593D01*
X1943064Y1630486D01*
X1943386Y1630379D01*
X1943923Y1630164D01*
X1944675Y1629841D01*
X1945427Y1629412D01*
X1946394Y1628982D01*
X1948435Y1628015D01*
X1948542D01*
X1948757Y1627908D01*
X1949079Y1627693D01*
X1949617Y1627478D01*
X1950798Y1626941D01*
X1952195Y1626404D01*
X1952302D01*
X1952517Y1626297D01*
X1952839Y1626082D01*
X1953376Y1625974D01*
X1954450Y1625437D01*
X1955847Y1624900D01*
X1955954D01*
X1956169Y1624793D01*
X1956921Y1624685D01*
X1957028D01*
X1957243D01*
X1957780Y1624578D01*
X1957995D01*
X1958425D01*
X1958962Y1624793D01*
X1959391Y1625222D01*
X1959499Y1625330D01*
X1959606Y1625652D01*
X1959714Y1626189D01*
X1959606Y1626834D01*
X1959499Y1626941D01*
Y1627048D01*
X1959391Y1627156D01*
X1959284Y1627263D01*
X1959069Y1627693D01*
X1958640Y1628230D01*
X1958103Y1628875D01*
X1957565Y1629734D01*
X1956814Y1630701D01*
X1955310Y1632742D01*
X1955202Y1632849D01*
X1954880Y1633171D01*
X1954450Y1633708D01*
X1953913Y1634353D01*
X1953161Y1635105D01*
X1952302Y1635964D01*
X1950368Y1637575D01*
X1950261Y1637683D01*
X1949831Y1637898D01*
X1949294Y1638112D01*
X1948757Y1638220D01*
X1948650D01*
X1948220D01*
X1947576Y1638112D01*
X1946931Y1638005D01*
X1946824D01*
X1946394Y1637898D01*
X1945857Y1637790D01*
X1945105Y1637683D01*
X1944246D01*
X1943279D01*
X1942312D01*
X1941346Y1637898D01*
X1941238D01*
X1940916Y1638005D01*
X1940379Y1638220D01*
X1939734Y1638542D01*
X1938982Y1638972D01*
X1938230Y1639616D01*
X1937371Y1640368D01*
X1936619Y1641228D01*
X1936512Y1641335D01*
X1936190Y1641765D01*
X1935867Y1642302D01*
X1935545Y1642946D01*
X1935438Y1643161D01*
X1935330Y1643591D01*
Y1644235D01*
X1935545Y1644987D01*
Y1645094D01*
X1935652Y1645202D01*
X1935975Y1645632D01*
X1936512Y1646169D01*
X1937156Y1646598D01*
X1937371D01*
X1937801Y1646706D01*
X1938553Y1646813D01*
X1939412D01*
X1939627D01*
X1940164D01*
X1940916Y1646706D01*
X1941775Y1646598D01*
X1941990D01*
X1942527Y1646491D01*
X1943172Y1646276D01*
X1944031Y1646061D01*
X1944246D01*
X1944783Y1645846D01*
X1945427Y1645632D01*
X1946287Y1645309D01*
X1946501Y1645202D01*
X1947039Y1645094D01*
X1947791Y1644772D01*
X1948650Y1644450D01*
Y1644557D01*
X1948865Y1644665D01*
X1949187Y1645309D01*
X1949402Y1646169D01*
Y1646706D01*
X1949294Y1647243D01*
Y1647350D01*
X1949187Y1647458D01*
X1949079Y1648102D01*
Y1649069D01*
X1949294Y1650143D01*
X1949402Y1650036D01*
D02*
G37*
G36*
X1928778Y1611044D02*
X1929207Y1610829D01*
X1929315D01*
X1929422Y1610721D01*
X1929637Y1610614D01*
X1929745Y1610399D01*
Y1610291D01*
X1929852Y1610184D01*
X1930174Y1609647D01*
X1930604Y1608788D01*
X1931141Y1607928D01*
Y1607821D01*
X1931248Y1607713D01*
X1931571Y1607177D01*
X1932000Y1606425D01*
X1932430Y1605565D01*
Y1604706D01*
X1932323Y1604491D01*
X1932108Y1604276D01*
X1931893Y1604169D01*
X1931785D01*
X1931356Y1604061D01*
X1930604Y1604169D01*
X1930174Y1604276D01*
X1929637Y1604491D01*
X1929530D01*
X1929315Y1604599D01*
X1928670Y1605028D01*
X1927918Y1605673D01*
X1927166Y1606425D01*
X1927059Y1606532D01*
X1926844Y1606962D01*
X1926629Y1607606D01*
X1926522Y1608251D01*
Y1608466D01*
X1926629Y1608895D01*
X1926844Y1609432D01*
X1927381Y1610184D01*
Y1610291D01*
X1927489Y1610399D01*
X1927918Y1610721D01*
X1928133Y1610829D01*
X1928563Y1611151D01*
X1928778Y1611044D01*
D02*
G37*
G36*
X1952946Y1611366D02*
X1953591Y1611044D01*
X1953698Y1610936D01*
X1954021Y1610721D01*
X1954558Y1610399D01*
X1955095Y1609862D01*
X1956599Y1608573D01*
X1958210Y1606962D01*
X1958317Y1606854D01*
X1958532Y1606639D01*
X1958962Y1606210D01*
X1959391Y1605565D01*
X1959928Y1604813D01*
X1960466Y1604061D01*
X1961110Y1603095D01*
X1961647Y1602021D01*
Y1601913D01*
X1961755Y1601806D01*
X1961862Y1601483D01*
X1961969Y1601054D01*
X1962184Y1600087D01*
X1962292Y1598905D01*
Y1598261D01*
X1962184Y1597831D01*
X1961969Y1596864D01*
X1961647Y1595683D01*
Y1595576D01*
X1961540Y1595468D01*
X1961110Y1594824D01*
X1960466Y1594072D01*
X1959499Y1593320D01*
X1959391D01*
X1959177Y1593212D01*
X1958854Y1593105D01*
X1958425Y1592997D01*
X1957350Y1592890D01*
X1955954D01*
X1955847D01*
X1955739D01*
X1955095Y1593105D01*
X1954236Y1593320D01*
X1953269Y1593642D01*
X1953161D01*
X1953054Y1593749D01*
X1952409Y1593964D01*
X1951550Y1594286D01*
X1950583Y1594609D01*
X1950476D01*
X1950368Y1594716D01*
X1949724Y1595038D01*
X1948865Y1595468D01*
X1947791Y1596005D01*
X1947683D01*
X1947576Y1596113D01*
X1946931Y1596542D01*
X1945964Y1596972D01*
X1944783Y1597616D01*
Y1595038D01*
X1944675Y1594609D01*
Y1594501D01*
X1944568Y1594179D01*
X1944461Y1593749D01*
X1944246Y1593212D01*
X1944138Y1593105D01*
X1944031Y1592783D01*
X1943601Y1592031D01*
X1943494Y1591923D01*
X1943172Y1591709D01*
X1942634Y1591494D01*
X1942097Y1591601D01*
X1941990D01*
X1941668Y1591816D01*
X1941346Y1592246D01*
X1941238Y1592783D01*
Y1593427D01*
X1941131Y1594072D01*
X1941023Y1595038D01*
X1940916Y1596005D01*
X1940594Y1597187D01*
X1940271Y1598261D01*
X1939734Y1599442D01*
X1939627Y1599550D01*
X1939519Y1599980D01*
X1939197Y1600624D01*
X1938768Y1601376D01*
X1938338Y1602343D01*
X1937801Y1603309D01*
X1936619Y1605565D01*
X1936512Y1605673D01*
X1936297Y1606102D01*
X1935975Y1606639D01*
X1935652Y1607284D01*
X1935545Y1607391D01*
X1935330Y1607928D01*
X1935008Y1608573D01*
X1934578Y1609432D01*
X1934686Y1609325D01*
X1935008Y1609217D01*
X1935545Y1609003D01*
X1936190Y1608680D01*
X1937693Y1607821D01*
X1939412Y1606962D01*
X1939519D01*
X1939842Y1606747D01*
X1940271Y1606639D01*
X1940808Y1606317D01*
X1942312Y1605673D01*
X1943923Y1604813D01*
X1944031D01*
X1944246Y1604599D01*
X1944675Y1604491D01*
X1945105Y1604169D01*
X1946394Y1603524D01*
X1947791Y1602772D01*
X1947898D01*
X1948113Y1602558D01*
X1948542Y1602343D01*
X1948972Y1602128D01*
X1950261Y1601376D01*
X1951765Y1600624D01*
X1951872Y1600517D01*
X1952195Y1600409D01*
X1952732Y1600087D01*
X1953376Y1599872D01*
X1953483Y1599765D01*
X1953806Y1599657D01*
X1954343Y1599335D01*
X1954987Y1599120D01*
X1955095D01*
X1955202Y1599013D01*
X1955847Y1598798D01*
X1956706Y1598583D01*
X1957565Y1598476D01*
X1957673D01*
X1958103Y1598583D01*
X1958640Y1598798D01*
X1959069Y1599228D01*
Y1599335D01*
X1959177Y1599442D01*
X1959284Y1599980D01*
X1959391Y1600624D01*
X1959284Y1601054D01*
X1959177Y1601376D01*
X1959069Y1601483D01*
X1958854Y1601913D01*
X1958532Y1602450D01*
X1958103Y1603095D01*
Y1603202D01*
X1957888Y1603309D01*
X1957350Y1603954D01*
X1956599Y1604813D01*
X1955739Y1605887D01*
X1955632Y1605995D01*
X1955524Y1606102D01*
X1954987Y1606747D01*
X1954128Y1607606D01*
X1953269Y1608573D01*
X1953161Y1608680D01*
X1952946Y1608895D01*
X1952302Y1609647D01*
X1952195Y1609754D01*
X1951980Y1609969D01*
X1951335Y1610721D01*
X1951443Y1610829D01*
X1951765Y1611151D01*
X1952195Y1611366D01*
X1952624Y1611473D01*
X1952732D01*
X1952946Y1611366D01*
D02*
G37*
G36*
X1993872Y1627371D02*
X1994517Y1627263D01*
X1994624D01*
X1994731Y1627156D01*
X1995483Y1626726D01*
X1996343Y1626082D01*
X1997202Y1625222D01*
Y1625115D01*
X1997417Y1625008D01*
X1997632Y1624685D01*
X1997954Y1624256D01*
X1998598Y1623289D01*
X1999350Y1622107D01*
Y1622000D01*
X1999565Y1621785D01*
X1999673Y1621463D01*
X1999995Y1621033D01*
X2000532Y1619959D01*
X2001069Y1618777D01*
Y1618670D01*
X2001284Y1618348D01*
X2001391Y1617918D01*
X2001714Y1617274D01*
X2001928Y1616522D01*
X2002251Y1615662D01*
X2002788Y1613836D01*
Y1613729D01*
X2002895Y1613407D01*
X2003003Y1612870D01*
X2003110Y1612225D01*
X2003217Y1611473D01*
Y1608358D01*
X2003325Y1607821D01*
X2003432Y1607177D01*
X2003754Y1606425D01*
X2003862Y1606317D01*
X2004184Y1606102D01*
X2004829Y1605780D01*
X2005688Y1605565D01*
X2005903D01*
X2006333Y1605458D01*
X2007084Y1605350D01*
X2007944Y1605136D01*
X2008159D01*
X2008588Y1605028D01*
X2009340Y1604921D01*
X2010092D01*
X2010199D01*
X2010414D01*
X2011059Y1605028D01*
X2011811Y1605243D01*
X2012133Y1605458D01*
X2012348Y1605673D01*
X2012455Y1605780D01*
X2012778Y1606317D01*
X2012992Y1607069D01*
X2013207Y1608143D01*
Y1608788D01*
X2013100Y1609217D01*
X2012885Y1610291D01*
X2012563Y1611473D01*
Y1611581D01*
X2012455Y1611795D01*
X2012348Y1612118D01*
X2012240Y1612440D01*
X2011811Y1613514D01*
X2011274Y1614588D01*
X2011166Y1614803D01*
X2010951Y1615233D01*
X2010629Y1615985D01*
X2010199Y1616736D01*
Y1616844D01*
X2010092Y1616951D01*
X2009877Y1617489D01*
X2009555Y1618240D01*
X2009125Y1618992D01*
X2009233D01*
X2009448Y1619100D01*
X2009555Y1619207D01*
X2009877Y1619315D01*
X2009985Y1619207D01*
X2010307Y1618885D01*
X2010737Y1618348D01*
X2011381Y1617596D01*
X2012133Y1616736D01*
X2012778Y1615662D01*
X2014281Y1613407D01*
X2014389Y1613299D01*
X2014496Y1612870D01*
X2014818Y1612118D01*
X2015141Y1611258D01*
X2015356Y1610184D01*
X2015678Y1608895D01*
X2015785Y1607499D01*
Y1605887D01*
X2015678Y1605458D01*
X2015570Y1605243D01*
Y1604599D01*
X2015463Y1604169D01*
X2015356Y1603524D01*
X2015141Y1602665D01*
X2014711Y1601806D01*
X2014281Y1600839D01*
X2013529Y1600087D01*
X2012670Y1599335D01*
X2012563Y1599228D01*
X2012240Y1599120D01*
X2011703Y1598798D01*
X2010951Y1598583D01*
X2010092Y1598368D01*
X2009125Y1598154D01*
X2007944Y1598046D01*
X2006762Y1598154D01*
X2006547D01*
X2006118Y1598261D01*
X2005581Y1598476D01*
X2004829Y1598691D01*
X2004614Y1598798D01*
X2004184Y1598905D01*
X2003647D01*
X2003003Y1598798D01*
X2002895Y1598691D01*
X2002573Y1598476D01*
X2002251Y1598154D01*
X2001928Y1597509D01*
X2001821Y1597294D01*
X2001606Y1596864D01*
X2001284Y1596327D01*
X2000962Y1595683D01*
X2000854Y1595576D01*
X2000639Y1595146D01*
X2000210Y1594609D01*
X1999673Y1593964D01*
X1999565Y1593857D01*
X1999136Y1593535D01*
X1998598Y1593105D01*
X1997739Y1592783D01*
Y1592890D01*
X1997847Y1592997D01*
X1998061Y1593535D01*
X1998276Y1594286D01*
X1998598Y1595038D01*
X1998706Y1595253D01*
X1998921Y1595683D01*
X1999243Y1596327D01*
X1999565Y1597079D01*
Y1597187D01*
X1999673Y1597402D01*
X1999780Y1597724D01*
X1999888Y1598154D01*
X2000102Y1599120D01*
Y1599980D01*
X1999995Y1600087D01*
X1999780Y1600624D01*
X1999243Y1601269D01*
X1998813Y1601698D01*
X1998276Y1602128D01*
X1998061Y1602235D01*
X1997632Y1602665D01*
X1996880Y1603202D01*
X1995913Y1604061D01*
X1994946Y1605028D01*
X1993872Y1606102D01*
X1992691Y1607391D01*
X1991724Y1608680D01*
X1991616Y1608895D01*
X1991294Y1609325D01*
X1990865Y1610077D01*
X1990327Y1611151D01*
X1989683Y1612440D01*
X1989038Y1613944D01*
X1988501Y1615555D01*
X1988072Y1617274D01*
Y1617489D01*
X1987964Y1618026D01*
X1987857Y1618777D01*
X1987749Y1619637D01*
Y1622322D01*
X1987857Y1622645D01*
Y1622967D01*
X1988072Y1624041D01*
X1988501Y1625115D01*
Y1625222D01*
X1988609Y1625330D01*
X1989146Y1625867D01*
X1989898Y1626619D01*
X1991079Y1627156D01*
X1991187D01*
X1991402Y1627263D01*
X1991724Y1627371D01*
X1992153D01*
X1993335Y1627478D01*
X1993872Y1627371D01*
D02*
G37*
G36*
X1926844Y1592460D02*
X1926952D01*
X1927274Y1592353D01*
X1927918Y1592138D01*
X1928670Y1591816D01*
X1929530Y1591386D01*
X1930496Y1590742D01*
X1931571Y1589990D01*
X1932752Y1589023D01*
X1932860Y1588916D01*
X1933182Y1588486D01*
X1933719Y1587949D01*
X1934256Y1587090D01*
X1934901Y1586015D01*
X1935330Y1584834D01*
X1935652Y1583437D01*
X1935760Y1581934D01*
Y1581719D01*
X1935652Y1580967D01*
X1935438Y1580108D01*
X1935008Y1579248D01*
X1934901Y1579033D01*
X1934471Y1578604D01*
X1933826Y1578067D01*
X1932967Y1577422D01*
X1932860Y1577315D01*
X1932430D01*
X1931893Y1577207D01*
X1931248Y1577422D01*
X1931141Y1577529D01*
X1930819Y1577744D01*
X1930389Y1578174D01*
X1930174Y1578711D01*
Y1578819D01*
X1930067Y1579141D01*
Y1580322D01*
X1930174Y1580645D01*
X1930604Y1580859D01*
X1930819Y1580967D01*
X1931248Y1581074D01*
X1931463D01*
X1931893Y1581182D01*
X1932323Y1581396D01*
X1932537Y1581826D01*
Y1583330D01*
X1932430Y1583545D01*
X1932323Y1583867D01*
X1932108Y1584297D01*
X1931893Y1584834D01*
X1931463Y1585371D01*
X1930926Y1585908D01*
X1930282Y1586445D01*
X1930174Y1586552D01*
X1929959Y1586660D01*
X1929637Y1586875D01*
X1929100Y1587197D01*
X1927918Y1587627D01*
X1927274Y1587734D01*
X1926629D01*
X1926522D01*
X1926415D01*
X1925985Y1587627D01*
X1925448Y1587412D01*
X1924911Y1586982D01*
X1924803Y1586875D01*
X1924588Y1586552D01*
X1924481Y1586015D01*
X1924374Y1585371D01*
Y1584726D01*
X1924481Y1584189D01*
X1924588Y1583437D01*
Y1583330D01*
X1924696Y1582900D01*
X1924803Y1582256D01*
X1925018Y1581611D01*
Y1581504D01*
X1925233Y1581074D01*
X1925448Y1580537D01*
X1925878Y1579785D01*
X1926307Y1578819D01*
X1926844Y1577852D01*
X1928133Y1575918D01*
X1928241Y1575811D01*
X1928456Y1575489D01*
X1928885Y1574951D01*
X1929422Y1574307D01*
X1930067Y1573555D01*
X1930819Y1572803D01*
X1932537Y1571084D01*
X1932645Y1570977D01*
X1933074Y1570655D01*
X1933611Y1570118D01*
X1934363Y1569366D01*
X1935330Y1568614D01*
X1936404Y1567755D01*
X1938768Y1566036D01*
X1938875Y1565928D01*
X1939305Y1565714D01*
X1940056Y1565284D01*
X1940916Y1564747D01*
X1941883Y1564102D01*
X1943064Y1563458D01*
X1945642Y1562061D01*
X1945750D01*
X1945964Y1561954D01*
X1946287Y1561739D01*
X1946824Y1561524D01*
X1948005Y1561095D01*
X1949402Y1560665D01*
X1949509D01*
X1949724Y1560558D01*
X1950154D01*
X1950583Y1560450D01*
X1951980Y1560343D01*
X1953483D01*
X1953591D01*
X1953806D01*
X1954236Y1560450D01*
X1954772Y1560558D01*
X1955954Y1560987D01*
X1957243Y1561632D01*
X1957350Y1561739D01*
X1957458Y1561847D01*
X1957995Y1562491D01*
X1958640Y1563458D01*
X1959284Y1564854D01*
Y1564962D01*
X1959391Y1565391D01*
X1959499Y1565928D01*
X1959606Y1566788D01*
Y1567647D01*
X1959499Y1568721D01*
X1959284Y1569903D01*
X1958854Y1571192D01*
X1958747Y1571299D01*
X1958640Y1571729D01*
X1958317Y1572374D01*
X1957888Y1573125D01*
X1957350Y1573985D01*
X1956599Y1574844D01*
X1955847Y1575596D01*
X1954880Y1576241D01*
X1954772D01*
X1954558Y1576348D01*
X1953913Y1576670D01*
X1953806D01*
X1953591Y1576778D01*
X1952946Y1576885D01*
X1952839D01*
X1952732D01*
X1952409D01*
X1952087Y1576778D01*
X1951980D01*
X1951872Y1576670D01*
X1951658Y1576455D01*
X1951550Y1576241D01*
X1951443Y1576026D01*
Y1575811D01*
X1951550Y1575489D01*
Y1575381D01*
X1951658Y1575166D01*
X1951765Y1574951D01*
X1951980Y1574737D01*
X1952087D01*
X1952195Y1574522D01*
X1952839Y1574307D01*
X1952946D01*
X1953161Y1574200D01*
X1953806Y1573877D01*
X1954021Y1573770D01*
X1954450Y1573555D01*
X1954987Y1573125D01*
X1955417Y1572588D01*
X1955524Y1572481D01*
X1955632Y1572051D01*
Y1571407D01*
X1955524Y1570547D01*
Y1570333D01*
X1955310Y1569903D01*
X1954987Y1569366D01*
X1954450Y1568936D01*
X1954343Y1568829D01*
X1953913Y1568721D01*
X1953269Y1568614D01*
X1952302D01*
X1952195D01*
X1951980Y1568721D01*
X1951658D01*
X1951228Y1568829D01*
X1950261Y1569258D01*
X1949402Y1570010D01*
Y1570118D01*
X1949187Y1570225D01*
X1948865Y1570870D01*
X1948327Y1571729D01*
X1947791Y1572911D01*
Y1573018D01*
X1947683Y1573233D01*
X1947576Y1573555D01*
Y1573985D01*
X1947361Y1575059D01*
Y1576563D01*
X1947683Y1577207D01*
X1948113Y1578174D01*
X1948542Y1578604D01*
X1948972Y1579141D01*
Y1579248D01*
X1949187Y1579356D01*
X1949724Y1579893D01*
X1950583Y1580322D01*
X1951120Y1580537D01*
X1951658Y1580645D01*
X1951765D01*
X1951872D01*
X1952195D01*
X1952624D01*
X1953591D01*
X1954772Y1580322D01*
X1954880D01*
X1955310Y1580108D01*
X1955847Y1579893D01*
X1956491Y1579463D01*
X1957243Y1579033D01*
X1957888Y1578496D01*
X1958640Y1577744D01*
X1959284Y1576992D01*
X1959391Y1576885D01*
X1959499Y1576563D01*
X1959821Y1576026D01*
X1960143Y1575381D01*
X1960573Y1574629D01*
X1961003Y1573770D01*
X1961755Y1571729D01*
X1961862Y1571514D01*
X1961969Y1570977D01*
X1962184Y1570118D01*
X1962292Y1569151D01*
Y1568936D01*
X1962399Y1568292D01*
X1962507Y1567432D01*
X1962614Y1566466D01*
Y1565606D01*
X1962507Y1565069D01*
X1962399Y1564425D01*
X1962292Y1563565D01*
X1961862Y1561739D01*
X1961217Y1559806D01*
X1960251Y1557765D01*
X1958962Y1555939D01*
X1958210Y1555187D01*
X1957243Y1554435D01*
X1957136D01*
X1957028Y1554328D01*
X1956706Y1554113D01*
X1956276Y1554005D01*
X1955739Y1553790D01*
X1955202Y1553576D01*
X1953591Y1553253D01*
X1951658Y1553146D01*
X1949402Y1553253D01*
X1948220Y1553468D01*
X1946824Y1553683D01*
X1945535Y1554220D01*
X1944031Y1554757D01*
X1943923D01*
X1943601Y1554972D01*
X1943172Y1555187D01*
X1942634Y1555509D01*
X1941883Y1555939D01*
X1941023Y1556368D01*
X1938982Y1557657D01*
X1936727Y1559269D01*
X1934471Y1561095D01*
X1932108Y1563243D01*
X1929959Y1565714D01*
X1929852Y1565821D01*
X1929745Y1566036D01*
X1929422Y1566466D01*
X1929100Y1567003D01*
X1928563Y1567647D01*
X1928133Y1568399D01*
X1927489Y1569366D01*
X1926844Y1570333D01*
X1925555Y1572696D01*
X1924266Y1575489D01*
X1922977Y1578496D01*
X1921903Y1581826D01*
Y1581934D01*
X1921796Y1582148D01*
Y1582471D01*
X1921688Y1582900D01*
X1921581Y1584082D01*
X1921688Y1585478D01*
Y1585801D01*
X1921796Y1586230D01*
Y1586660D01*
X1921903Y1587841D01*
X1922118Y1589238D01*
Y1589345D01*
X1922225Y1589560D01*
X1922440Y1590312D01*
X1922977Y1591171D01*
X1923837Y1591923D01*
X1923944D01*
X1924051Y1592031D01*
X1924696Y1592353D01*
X1925663Y1592568D01*
X1926200D01*
X1926844Y1592460D01*
D02*
G37*
G36*
X1977330Y1589238D02*
X1978404Y1588916D01*
X1978512D01*
X1978619Y1588808D01*
X1979156Y1588593D01*
X1980015Y1588271D01*
X1980875Y1587841D01*
X1981090Y1587734D01*
X1981627Y1587412D01*
X1982379Y1586982D01*
X1983238Y1586552D01*
X1983345D01*
X1983453Y1586445D01*
X1984097Y1586015D01*
X1985064Y1585478D01*
X1986353Y1584726D01*
X1987964Y1583867D01*
X1989576Y1582793D01*
X1991402Y1581719D01*
X1993335Y1580645D01*
X1993443D01*
X1993550Y1580537D01*
X1994194Y1580108D01*
X1995269Y1579570D01*
X1996558Y1578819D01*
X1998061Y1577959D01*
X1999780Y1576992D01*
X2001606Y1576026D01*
X2003540Y1574951D01*
X2003754Y1574844D01*
X2004292Y1574629D01*
X2005043Y1574200D01*
X2006010Y1573877D01*
X2006118D01*
X2006225D01*
X2006870Y1573663D01*
X2007729Y1573555D01*
X2008696Y1573340D01*
X2008803D01*
X2008911D01*
X2009555D01*
X2010199Y1573555D01*
X2010844Y1573985D01*
X2010951Y1574092D01*
X2011059Y1574522D01*
Y1575274D01*
X2010951Y1576348D01*
Y1576455D01*
X2010844Y1576670D01*
X2010737Y1576992D01*
X2010629Y1577422D01*
X2010092Y1578389D01*
X2009340Y1579356D01*
X2009233Y1579463D01*
X2009125Y1579570D01*
X2008588Y1580215D01*
X2007729Y1580967D01*
X2006762Y1581934D01*
X2006655Y1582041D01*
X2006333Y1582256D01*
X2005903Y1582686D01*
X2005366Y1583223D01*
X2005258Y1583330D01*
X2004936Y1583652D01*
X2004506Y1584082D01*
X2003969Y1584512D01*
X2003862Y1584619D01*
X2003647Y1585049D01*
X2003325Y1585478D01*
X2003110Y1586123D01*
Y1586660D01*
X2003217Y1587197D01*
X2003647Y1587734D01*
X2003754Y1587841D01*
X2004077Y1588056D01*
X2004614Y1588271D01*
X2005151D01*
X2005258Y1588164D01*
X2005581Y1588056D01*
X2006010Y1587734D01*
X2006547Y1587412D01*
X2006655Y1587304D01*
X2006977Y1587090D01*
X2007407Y1586660D01*
X2007944Y1586123D01*
X2009340Y1584726D01*
X2010951Y1583115D01*
X2011059Y1583008D01*
X2011274Y1582793D01*
X2011596Y1582256D01*
X2012133Y1581719D01*
X2012670Y1581074D01*
X2013207Y1580215D01*
X2014389Y1578389D01*
X2014496Y1578174D01*
X2014818Y1577529D01*
X2015141Y1576670D01*
X2015463Y1575489D01*
X2015678Y1574200D01*
Y1572911D01*
X2015356Y1571514D01*
X2015141Y1570870D01*
X2014711Y1570225D01*
X2014604Y1570118D01*
X2014281Y1569688D01*
X2013637Y1569258D01*
X2012885Y1568614D01*
X2011918Y1568077D01*
X2010629Y1567540D01*
X2009233Y1567218D01*
X2007621Y1567003D01*
X2007514D01*
X2007192Y1567110D01*
X2006655Y1567218D01*
X2005903Y1567325D01*
X2005151Y1567432D01*
X2004184Y1567647D01*
X2002251Y1568184D01*
X2002143D01*
X2001821Y1568292D01*
X2001284Y1568506D01*
X2000532Y1568721D01*
X1999780Y1569044D01*
X1998813Y1569366D01*
X1996987Y1570333D01*
X1996880Y1570440D01*
X1996558Y1570655D01*
X1995913Y1570977D01*
X1995269Y1571407D01*
X1994409Y1571836D01*
X1993550Y1572481D01*
X1991616Y1573770D01*
X1991509Y1573877D01*
X1991187Y1574092D01*
X1990650Y1574414D01*
X1989898Y1574951D01*
X1989146Y1575489D01*
X1988179Y1576133D01*
X1986246Y1577422D01*
X1986138D01*
X1986031Y1577529D01*
X1985494Y1577959D01*
X1984634Y1578604D01*
X1983775Y1579248D01*
X1983668D01*
X1983560Y1579463D01*
X1982916Y1579893D01*
X1982164Y1580537D01*
X1981197Y1581289D01*
X1981090Y1581396D01*
X1980875Y1581504D01*
X1980230Y1581934D01*
X1980123Y1582041D01*
X1979908Y1582148D01*
X1979156Y1582471D01*
X1978941D01*
X1978619D01*
X1978082D01*
X1977652Y1582148D01*
X1977545Y1582041D01*
X1977437Y1581826D01*
X1977330Y1581396D01*
X1977437Y1580752D01*
Y1580645D01*
X1977545Y1580430D01*
X1977867Y1579678D01*
Y1579570D01*
X1977975Y1579356D01*
X1978404Y1578711D01*
Y1578604D01*
X1978619Y1578496D01*
X1979156Y1577959D01*
X1979263D01*
X1979371Y1577744D01*
X1979801Y1577207D01*
X1979908Y1577100D01*
X1980015Y1576885D01*
X1980338Y1576455D01*
X1980553Y1575918D01*
X1980660Y1575811D01*
X1980767Y1575489D01*
X1980875Y1575059D01*
Y1574737D01*
X1980767Y1574629D01*
X1980553Y1574307D01*
X1980123Y1573985D01*
X1979586Y1573877D01*
X1979478D01*
X1979049D01*
X1978512Y1573985D01*
X1977975Y1574200D01*
X1977867Y1574307D01*
X1977437Y1574414D01*
X1976900Y1574737D01*
X1976363Y1575059D01*
X1976256Y1575166D01*
X1975934Y1575381D01*
X1975504Y1575703D01*
X1974967Y1576133D01*
X1974859Y1576241D01*
X1974645Y1576455D01*
X1974430Y1576778D01*
X1974000Y1577207D01*
X1973248Y1578281D01*
X1972496Y1579570D01*
Y1579678D01*
X1972389Y1579893D01*
X1972281Y1580322D01*
X1972067Y1580859D01*
X1971852Y1582256D01*
X1971637Y1583760D01*
Y1584297D01*
X1971744Y1584941D01*
X1971852Y1585586D01*
X1972067Y1586338D01*
X1972389Y1587197D01*
X1972818Y1587841D01*
X1973463Y1588486D01*
X1973570Y1588593D01*
X1973785Y1588701D01*
X1974215Y1588916D01*
X1974752Y1589131D01*
X1975504Y1589238D01*
X1976363Y1589345D01*
X1977330Y1589238D01*
D02*
G37*
G36*
X1978404Y1565714D02*
X1979586Y1565499D01*
X1980875Y1564962D01*
X1980982D01*
X1981090Y1564854D01*
X1981627Y1564532D01*
X1982486Y1563888D01*
X1983345Y1563136D01*
X1983560Y1562921D01*
X1983990Y1562384D01*
X1984634Y1561632D01*
X1985171Y1560773D01*
X1985279Y1560665D01*
X1985386Y1560450D01*
X1985601Y1560021D01*
X1985923Y1559591D01*
X1986675Y1558194D01*
X1987427Y1556691D01*
Y1556583D01*
X1987642Y1556368D01*
X1987749Y1555939D01*
X1988072Y1555402D01*
X1988716Y1554005D01*
X1989468Y1552501D01*
Y1552394D01*
X1989576Y1552072D01*
X1990005Y1551320D01*
Y1551212D01*
X1990220Y1550890D01*
X1990435Y1550353D01*
X1990757Y1549709D01*
X1990865Y1549923D01*
X1991079Y1550246D01*
X1991294Y1550783D01*
X1991616Y1551320D01*
Y1551427D01*
X1991831Y1551642D01*
X1992261Y1552394D01*
Y1552501D01*
X1992476Y1552609D01*
X1992905Y1553038D01*
X1993657Y1553576D01*
X1993980Y1553683D01*
X1994409D01*
X1994624D01*
X1995054Y1553361D01*
X1995591Y1552824D01*
X1995913Y1552501D01*
X1996128Y1551964D01*
Y1551857D01*
X1996235Y1551642D01*
X1996343Y1551320D01*
X1996450Y1550998D01*
X1996665Y1549923D01*
Y1547990D01*
X1996558Y1547560D01*
X1996343Y1546486D01*
X1995806Y1545305D01*
Y1545197D01*
X1995591Y1544982D01*
X1995483Y1544553D01*
X1995376Y1544016D01*
X1995161Y1542726D01*
Y1542082D01*
X1995269Y1541438D01*
Y1541330D01*
X1995376Y1541115D01*
X1995483Y1540793D01*
X1995698Y1540471D01*
X1996235Y1539397D01*
X1997095Y1538215D01*
X1997202Y1538108D01*
X1997310Y1537893D01*
X1997632Y1537570D01*
X1998061Y1537248D01*
X1999243Y1536174D01*
X2000639Y1535207D01*
X2000747D01*
X2000962Y1534993D01*
X2001391Y1534778D01*
X2001928Y1534563D01*
X2002573Y1534348D01*
X2003325Y1534026D01*
X2005151Y1533703D01*
X2005258D01*
X2005688D01*
X2006225D01*
X2006977Y1533811D01*
X2007836Y1533918D01*
X2008696Y1534241D01*
X2009555Y1534670D01*
X2010414Y1535207D01*
X2010522Y1535315D01*
X2010737Y1535530D01*
X2011059Y1535959D01*
X2011488Y1536496D01*
X2011811Y1537141D01*
X2012133Y1538000D01*
X2012455Y1538967D01*
X2012563Y1540041D01*
Y1542404D01*
X2012348Y1543801D01*
Y1543908D01*
X2012240Y1544123D01*
Y1544445D01*
X2012133Y1544875D01*
X2011703Y1546056D01*
X2011059Y1547238D01*
X2010951Y1547345D01*
X2010629Y1547668D01*
X2010199Y1548097D01*
X2009662Y1548527D01*
X2009555Y1548634D01*
X2009125Y1548849D01*
X2008696Y1549171D01*
X2008051Y1549386D01*
X2007944D01*
X2007729Y1549494D01*
X2007299D01*
X2006762D01*
X2006655D01*
X2006333Y1549386D01*
X2006010Y1549171D01*
X2005688Y1548849D01*
Y1548742D01*
X2005581Y1548527D01*
Y1547668D01*
X2005688Y1547345D01*
X2005795Y1546916D01*
X2005903Y1546379D01*
Y1546271D01*
X2006010Y1546164D01*
X2006547Y1545627D01*
X2006655D01*
X2006870Y1545412D01*
X2007407Y1544982D01*
X2007621Y1544767D01*
X2007944Y1544230D01*
X2008373Y1543478D01*
X2008588Y1542512D01*
Y1542297D01*
X2008481Y1541760D01*
X2008266Y1541115D01*
X2007836Y1540363D01*
X2007729Y1540256D01*
X2007192Y1539934D01*
X2006547Y1539611D01*
X2006118D01*
X2005688D01*
X2005581D01*
X2005473D01*
X2004829Y1539826D01*
X2004077Y1540256D01*
X2003540Y1540578D01*
X2003110Y1541008D01*
X2003003Y1541115D01*
X2002788Y1541330D01*
X2002466Y1541867D01*
X2002036Y1542404D01*
X2001606Y1543156D01*
X2001284Y1544016D01*
X2000962Y1544982D01*
X2000747Y1546056D01*
Y1547131D01*
X2000854Y1547883D01*
X2000962Y1548742D01*
X2001284Y1549601D01*
X2001606Y1550568D01*
X2002143Y1551535D01*
X2002251Y1551642D01*
X2002466Y1551964D01*
X2002895Y1552394D01*
X2003432Y1552824D01*
X2004077Y1553361D01*
X2004936Y1553898D01*
X2005903Y1554220D01*
X2006977Y1554435D01*
X2007084D01*
X2007407D01*
X2008051Y1554328D01*
X2008696Y1554220D01*
X2009448Y1554005D01*
X2010307Y1553576D01*
X2011166Y1552931D01*
X2012026Y1552072D01*
X2012133Y1551964D01*
X2012348Y1551642D01*
X2012778Y1551105D01*
X2013207Y1550353D01*
X2013744Y1549494D01*
X2014281Y1548420D01*
X2014711Y1547345D01*
X2015141Y1546164D01*
Y1546056D01*
X2015248Y1545627D01*
X2015356Y1544982D01*
X2015570Y1544123D01*
X2015678Y1543049D01*
Y1541867D01*
X2015785Y1540686D01*
X2015678Y1539289D01*
Y1539074D01*
X2015570Y1538537D01*
X2015463Y1537785D01*
X2015248Y1536819D01*
Y1536604D01*
X2015033Y1535959D01*
X2014926Y1535100D01*
X2014604Y1534133D01*
Y1534026D01*
X2014496Y1533918D01*
X2014389Y1533596D01*
X2014281Y1533166D01*
X2013744Y1532092D01*
X2013100Y1530803D01*
X2012133Y1529514D01*
X2010951Y1528225D01*
X2009448Y1527044D01*
X2008696Y1526614D01*
X2007729Y1526292D01*
X2007621D01*
X2007514D01*
X2007192Y1526184D01*
X2006762Y1526077D01*
X2005795D01*
X2004399D01*
X2002895Y1526292D01*
X2001176Y1526829D01*
X2000210Y1527258D01*
X1999350Y1527688D01*
X1998384Y1528333D01*
X1997524Y1529085D01*
X1997417Y1529192D01*
X1997202Y1529407D01*
X1996880Y1529622D01*
X1996450Y1530051D01*
X1995483Y1531125D01*
X1994517Y1532522D01*
X1994409Y1532629D01*
X1994302Y1532844D01*
X1994087Y1533274D01*
X1993765Y1533811D01*
X1993013Y1535100D01*
X1992368Y1536604D01*
Y1536711D01*
X1992261Y1536819D01*
X1992046Y1537248D01*
X1991724Y1537785D01*
X1991402Y1538215D01*
X1991294Y1538322D01*
X1990865Y1538430D01*
X1990220D01*
X1989361Y1538215D01*
X1989253D01*
X1988824Y1538108D01*
X1988286D01*
X1987642D01*
X1987427D01*
X1987105D01*
X1986460Y1538215D01*
X1985923Y1538322D01*
X1985816D01*
X1985708Y1538430D01*
X1984957Y1538860D01*
X1983990Y1539289D01*
X1982916Y1539934D01*
X1982808D01*
X1982593Y1540041D01*
X1981949Y1540471D01*
X1981090Y1541115D01*
X1980230Y1541867D01*
X1980123Y1542082D01*
X1979693Y1542512D01*
X1979049Y1543264D01*
X1978189Y1544230D01*
X1977330Y1545412D01*
X1976363Y1546701D01*
X1975397Y1548205D01*
X1974537Y1549709D01*
X1974430Y1549923D01*
X1974215Y1550461D01*
X1973785Y1551320D01*
X1973356Y1552501D01*
X1972926Y1553790D01*
X1972496Y1555402D01*
X1972174Y1557228D01*
X1971959Y1559054D01*
X1971852Y1559161D01*
Y1560128D01*
X1971959Y1560665D01*
X1972067Y1561417D01*
X1972389Y1562276D01*
X1972711Y1563243D01*
X1973248Y1564102D01*
X1973893Y1564962D01*
X1974752Y1565499D01*
X1974859D01*
X1975182Y1565606D01*
X1975719Y1565714D01*
X1976471Y1565821D01*
X1977330D01*
X1978404Y1565714D01*
D02*
G37*
G36*
X1944246Y1534670D02*
X1945964Y1534348D01*
X1947683Y1533811D01*
X1949509Y1532952D01*
X1949724Y1532844D01*
X1950261Y1532415D01*
X1951013Y1531663D01*
X1951980Y1530696D01*
X1952946Y1529514D01*
X1953806Y1528010D01*
X1954665Y1526292D01*
X1955202Y1524251D01*
Y1524036D01*
X1955310Y1523714D01*
Y1523392D01*
X1955417Y1522317D01*
X1955524Y1521028D01*
Y1519417D01*
X1955417Y1517806D01*
X1955202Y1515980D01*
X1954772Y1514261D01*
X1954665Y1514046D01*
X1954450Y1513509D01*
X1954021Y1512650D01*
X1953483Y1511468D01*
X1952732Y1510179D01*
X1951765Y1508783D01*
X1950476Y1507386D01*
X1949079Y1505990D01*
X1948972D01*
X1948865Y1505775D01*
X1948113Y1505238D01*
X1947146Y1504701D01*
X1945964Y1504164D01*
X1945857D01*
X1945642Y1504057D01*
X1945320Y1503949D01*
X1944890Y1503842D01*
X1943816Y1503734D01*
X1942527D01*
X1942420D01*
X1942205Y1503842D01*
X1941775D01*
X1941346Y1503949D01*
X1940271Y1504379D01*
X1939197Y1505023D01*
X1939090D01*
X1938982Y1505238D01*
X1938445Y1505775D01*
X1937801Y1506742D01*
X1937264Y1507923D01*
Y1508031D01*
X1937156Y1508246D01*
Y1508568D01*
X1937049Y1508998D01*
Y1509964D01*
X1937264Y1510931D01*
Y1511039D01*
X1937371Y1511146D01*
X1937693Y1511790D01*
X1938338Y1512542D01*
X1939197Y1513402D01*
X1939305Y1513509D01*
X1939734Y1513831D01*
X1940271Y1514154D01*
X1940916Y1514583D01*
X1941023Y1514691D01*
X1941453Y1515013D01*
X1942097Y1515335D01*
X1942742Y1515765D01*
X1942849Y1515872D01*
X1943064Y1515980D01*
X1943816Y1516624D01*
X1944675Y1517698D01*
X1944998Y1518343D01*
X1945320Y1518987D01*
Y1519095D01*
X1945427Y1519310D01*
Y1519739D01*
X1945535Y1520169D01*
X1945427Y1521458D01*
X1945213Y1522103D01*
X1944890Y1522854D01*
Y1522962D01*
X1944675Y1523177D01*
X1944138Y1523821D01*
X1943279Y1524573D01*
X1942634Y1525003D01*
X1941990Y1525218D01*
X1941883D01*
X1941668Y1525325D01*
X1941238D01*
X1940701Y1525432D01*
X1939305Y1525325D01*
X1938553Y1525218D01*
X1937801Y1524895D01*
X1937693D01*
X1937586Y1524788D01*
X1936834Y1524466D01*
X1935867Y1523821D01*
X1934686Y1522962D01*
X1933397Y1521673D01*
X1932108Y1520169D01*
X1930819Y1518343D01*
X1929852Y1516087D01*
Y1515980D01*
X1929745Y1515765D01*
X1929637Y1515443D01*
X1929530Y1515013D01*
X1929207Y1513831D01*
X1928885Y1512220D01*
X1928778Y1510394D01*
X1928885Y1508461D01*
X1929207Y1506312D01*
X1929530Y1505345D01*
X1929959Y1504271D01*
Y1504164D01*
X1930174Y1503842D01*
X1930496Y1503305D01*
X1930819Y1502660D01*
X1931356Y1502016D01*
X1932000Y1501264D01*
X1932645Y1500512D01*
X1933504Y1499867D01*
X1933611Y1499760D01*
X1933934Y1499545D01*
X1934363Y1499330D01*
X1935008Y1498900D01*
X1935760Y1498471D01*
X1936619Y1498149D01*
X1938553Y1497397D01*
X1938768D01*
X1939197Y1497289D01*
X1940056Y1497074D01*
X1941131Y1496967D01*
X1942312Y1496752D01*
X1943709Y1496537D01*
X1946716Y1496430D01*
X1946931D01*
X1947468D01*
X1948220Y1496537D01*
X1949294Y1496645D01*
X1950583Y1496752D01*
X1951980Y1496967D01*
X1953483Y1497289D01*
X1954987Y1497719D01*
X1955095D01*
X1955310Y1497826D01*
X1956062Y1498149D01*
X1956814Y1498578D01*
X1957136Y1498793D01*
X1957350Y1499008D01*
Y1500297D01*
X1957243Y1500941D01*
X1957136Y1501586D01*
Y1501693D01*
X1957028Y1502123D01*
X1956921Y1502660D01*
X1956814Y1503412D01*
Y1504271D01*
X1956706Y1505238D01*
X1956814Y1507386D01*
Y1507494D01*
X1956921Y1507816D01*
X1957028Y1508461D01*
X1957136Y1509105D01*
X1957350Y1509964D01*
X1957673Y1510931D01*
X1958425Y1512865D01*
Y1512972D01*
X1958532Y1513080D01*
Y1513187D01*
X1958640Y1513402D01*
Y1513509D01*
X1958854Y1513617D01*
X1959284Y1514368D01*
X1960036Y1515228D01*
X1960895Y1516195D01*
X1961003Y1516302D01*
X1961110Y1516409D01*
X1961432Y1516624D01*
X1961755Y1516839D01*
X1962829Y1517161D01*
X1963473Y1517376D01*
X1964225D01*
X1964333D01*
X1964547D01*
X1964977Y1517269D01*
X1965407D01*
X1966588Y1516839D01*
X1967126Y1516517D01*
X1967663Y1516087D01*
Y1515980D01*
X1967877Y1515872D01*
X1968414Y1515228D01*
X1969059Y1514154D01*
X1969704Y1512972D01*
X1969811Y1512865D01*
X1969918Y1512328D01*
X1970133Y1511683D01*
X1970455Y1510716D01*
X1970670Y1509642D01*
X1970885Y1508353D01*
X1971100Y1507064D01*
Y1505668D01*
X1970992Y1505131D01*
X1970885Y1504486D01*
X1970778Y1503519D01*
X1970455Y1502445D01*
X1970026Y1501264D01*
X1969381Y1500082D01*
X1968629Y1498793D01*
X1968522Y1498686D01*
X1968307Y1498256D01*
X1967985Y1497719D01*
Y1497182D01*
X1968200Y1496860D01*
X1968522Y1496430D01*
X1969059Y1496000D01*
X1969166Y1495893D01*
X1969596Y1495678D01*
X1970240Y1495248D01*
X1970992Y1494819D01*
X1971959Y1494282D01*
X1973033Y1493745D01*
X1974215Y1493315D01*
X1975504Y1492885D01*
X1975611D01*
X1976148Y1492778D01*
X1976793Y1492563D01*
X1977652Y1492455D01*
X1978834Y1492348D01*
X1980015D01*
X1981412D01*
X1982808Y1492455D01*
X1982916D01*
X1983238Y1492563D01*
X1983668Y1492670D01*
X1984312Y1492885D01*
X1985064Y1493208D01*
X1985708Y1493637D01*
X1986460Y1494067D01*
X1987212Y1494711D01*
X1987320Y1494819D01*
X1987535Y1495034D01*
X1987857Y1495463D01*
X1988179Y1496000D01*
X1988501Y1496645D01*
X1988931Y1497397D01*
X1989146Y1498149D01*
X1989361Y1499115D01*
Y1499975D01*
X1989253Y1500619D01*
X1989146Y1501371D01*
X1988931Y1502230D01*
X1988609Y1503197D01*
X1988072Y1504164D01*
X1987964Y1504271D01*
X1987749Y1504594D01*
X1987427Y1505023D01*
X1986998Y1505668D01*
X1985816Y1506849D01*
X1985171Y1507279D01*
X1984420Y1507709D01*
X1984312D01*
X1984205Y1507816D01*
X1983668D01*
X1983023D01*
X1982271Y1507601D01*
X1982164Y1507494D01*
X1981841Y1507172D01*
X1981519Y1506527D01*
X1981412Y1505668D01*
Y1505560D01*
X1981519Y1505238D01*
X1981627Y1504701D01*
X1981734Y1504164D01*
Y1504057D01*
X1981841Y1503734D01*
X1981949Y1503305D01*
X1982056Y1502767D01*
Y1502660D01*
X1982164Y1502230D01*
X1982271Y1501586D01*
Y1500834D01*
X1982164Y1500404D01*
X1981949Y1499975D01*
X1981412Y1499438D01*
X1981304Y1499330D01*
X1980875Y1499115D01*
X1980230Y1498900D01*
X1979586Y1498793D01*
X1979371D01*
X1978941Y1498900D01*
X1978404Y1499008D01*
X1977652Y1499223D01*
X1977545D01*
X1977437Y1499330D01*
X1976900Y1499652D01*
X1976148Y1500190D01*
X1975611Y1500941D01*
Y1501049D01*
X1975504Y1501156D01*
X1975289Y1501693D01*
X1974967Y1502445D01*
X1974752Y1503412D01*
Y1503519D01*
X1974645Y1503949D01*
Y1505345D01*
X1974537Y1506205D01*
X1974645Y1507279D01*
X1974859Y1509427D01*
Y1509535D01*
X1974967Y1509857D01*
X1975182Y1510394D01*
X1975397Y1511146D01*
X1975719Y1511898D01*
X1976148Y1512865D01*
X1976685Y1513724D01*
X1977437Y1514691D01*
X1977545Y1514798D01*
X1977760Y1515013D01*
X1978082Y1515443D01*
X1978512Y1515872D01*
X1979693Y1516732D01*
X1980445Y1517054D01*
X1981197Y1517269D01*
X1981304D01*
X1981519Y1517376D01*
X1981949D01*
X1982486D01*
X1983130Y1517269D01*
X1983882Y1517054D01*
X1984634Y1516732D01*
X1985494Y1516195D01*
X1985601Y1516087D01*
X1985923Y1515980D01*
X1986353Y1515658D01*
X1986890Y1515335D01*
X1988286Y1514261D01*
X1989898Y1513080D01*
X1990005Y1512972D01*
X1990220Y1512757D01*
X1990650Y1512435D01*
X1991187Y1512005D01*
X1992476Y1510931D01*
X1993980Y1509750D01*
X1994087D01*
X1994194Y1509535D01*
X1994839Y1508998D01*
X1995806Y1508138D01*
X1997095Y1507064D01*
X1998598Y1505668D01*
X2000210Y1504164D01*
X2001928Y1502553D01*
X2003754Y1500834D01*
X2003969Y1500619D01*
X2004614Y1500082D01*
X2005473Y1499115D01*
X2006655Y1497934D01*
X2008051Y1496537D01*
X2009555Y1494926D01*
X2011166Y1493100D01*
X2012778Y1491274D01*
X2012885Y1491167D01*
X2013207Y1490844D01*
X2013315Y1490629D01*
X2013529Y1490200D01*
X2013422Y1490092D01*
X2013315Y1489877D01*
X2012992Y1489555D01*
X2012670Y1489126D01*
X2011811Y1488051D01*
X2010844Y1486763D01*
X2010737Y1486655D01*
X2010629Y1486440D01*
X2010307Y1486118D01*
X2009985Y1485688D01*
X2009018Y1484722D01*
X2007944Y1483540D01*
X2007836Y1483432D01*
X2007621Y1483218D01*
X2007192Y1482788D01*
X2006655Y1482251D01*
X2006010Y1481606D01*
X2005258Y1480747D01*
X2004399Y1479888D01*
X2003432Y1478921D01*
X2001176Y1476665D01*
X1998598Y1474195D01*
X1995913Y1471617D01*
X1993120Y1469039D01*
X1993013Y1468931D01*
X1992798Y1468716D01*
X1992368Y1468394D01*
X1991831Y1467857D01*
X1991079Y1467213D01*
X1990220Y1466461D01*
X1989361Y1465709D01*
X1988286Y1464742D01*
X1985923Y1462701D01*
X1983238Y1460553D01*
X1980230Y1458190D01*
X1977223Y1455827D01*
X1977008Y1455719D01*
X1976471Y1455289D01*
X1975719Y1454752D01*
X1974645Y1453893D01*
X1973356Y1453034D01*
X1971959Y1452067D01*
X1968952Y1450026D01*
X1968737Y1449919D01*
X1968200Y1449596D01*
X1967340Y1449059D01*
X1966159Y1448522D01*
X1964762Y1447770D01*
X1963259Y1447126D01*
X1961540Y1446374D01*
X1959714Y1445729D01*
X1959606D01*
X1959499Y1445622D01*
X1959177Y1445515D01*
X1958747Y1445407D01*
X1957565Y1445192D01*
X1956169Y1444870D01*
X1954450Y1444440D01*
X1952517Y1444225D01*
X1950476Y1444011D01*
X1948435Y1443903D01*
X1948327D01*
X1948005D01*
X1947468D01*
X1946824Y1444011D01*
X1945964D01*
X1945105Y1444118D01*
X1943279Y1444333D01*
X1943172D01*
X1942957Y1444440D01*
X1942527Y1444548D01*
X1941990Y1444655D01*
X1941238Y1444870D01*
X1940486Y1445085D01*
X1938553Y1445837D01*
X1936297Y1446803D01*
X1933826Y1448200D01*
X1932537Y1449059D01*
X1931248Y1449919D01*
X1929959Y1450993D01*
X1928670Y1452174D01*
X1928456Y1452389D01*
X1927918Y1452926D01*
X1927166Y1453678D01*
X1926307Y1454860D01*
X1925340Y1456149D01*
X1924266Y1457760D01*
X1923407Y1459371D01*
X1922655Y1461197D01*
Y1461305D01*
X1922548Y1461412D01*
X1922333Y1462057D01*
X1922118Y1463131D01*
X1921688Y1464420D01*
X1921366Y1466031D01*
X1921151Y1467857D01*
X1920936Y1469898D01*
X1920829Y1472046D01*
Y1472906D01*
X1920936Y1473765D01*
X1921151Y1474947D01*
X1921366Y1476343D01*
X1921688Y1477847D01*
X1922225Y1479351D01*
X1922870Y1480854D01*
X1922977Y1481069D01*
X1923192Y1481499D01*
X1923622Y1482251D01*
X1924266Y1483218D01*
X1925018Y1484292D01*
X1925878Y1485473D01*
X1926952Y1486763D01*
X1928241Y1488051D01*
Y1488159D01*
X1928456Y1488266D01*
X1928993Y1488803D01*
Y1488911D01*
X1929207Y1489018D01*
X1929745Y1489448D01*
Y1489555D01*
X1929852Y1489770D01*
X1929959Y1489985D01*
X1930174Y1490415D01*
X1930067Y1490522D01*
X1929745Y1490737D01*
X1929315Y1491059D01*
X1928885Y1491489D01*
X1928778Y1491596D01*
X1928456Y1491811D01*
X1928026Y1492241D01*
X1927596Y1492670D01*
X1927489Y1492778D01*
X1927059Y1493208D01*
X1926522Y1493852D01*
X1925878Y1494604D01*
X1925018Y1495678D01*
X1924266Y1496752D01*
X1923514Y1498041D01*
X1922870Y1499438D01*
X1922762Y1499652D01*
X1922655Y1500082D01*
X1922333Y1500834D01*
X1922010Y1501908D01*
X1921688Y1503090D01*
X1921366Y1504379D01*
X1921151Y1505883D01*
X1921044Y1507494D01*
Y1510716D01*
X1921151Y1512220D01*
X1921259Y1513939D01*
X1921581Y1515658D01*
X1922010Y1517484D01*
Y1517591D01*
X1922118Y1517698D01*
X1922225Y1518343D01*
X1922655Y1519202D01*
X1923085Y1520384D01*
X1923837Y1521780D01*
X1924588Y1523284D01*
X1925663Y1524788D01*
X1926844Y1526292D01*
X1926952Y1526399D01*
X1927274Y1526829D01*
X1927811Y1527366D01*
X1928563Y1528010D01*
X1929315Y1528870D01*
X1930282Y1529729D01*
X1932537Y1531340D01*
X1932645Y1531448D01*
X1933074Y1531663D01*
X1933719Y1532092D01*
X1934578Y1532522D01*
X1935545Y1532952D01*
X1936727Y1533489D01*
X1938016Y1533918D01*
X1939412Y1534348D01*
X1939519D01*
X1939627Y1534455D01*
X1939949D01*
X1940271Y1534563D01*
X1941346Y1534670D01*
X1942634Y1534778D01*
X1944246Y1534670D01*
D02*
G37*
%LPC*%
G36*
X1992476Y1621893D02*
X1992261D01*
X1991831D01*
X1991294Y1621785D01*
X1990650Y1621463D01*
X1990542Y1621355D01*
X1990220Y1620926D01*
X1990005Y1620389D01*
X1989898Y1620067D01*
X1990005Y1619744D01*
Y1619637D01*
X1990113Y1619207D01*
X1990327Y1618563D01*
X1990650Y1618026D01*
X1990757Y1617918D01*
X1990972Y1617489D01*
X1991294Y1616844D01*
X1991724Y1616092D01*
X1992368Y1615233D01*
X1993120Y1614373D01*
X1994839Y1612547D01*
X1994946Y1612440D01*
X1995269Y1612225D01*
X1995806Y1611795D01*
X1996450Y1611258D01*
X1997310Y1610614D01*
X1998276Y1609862D01*
X2000425Y1608358D01*
Y1609003D01*
X2000532Y1609432D01*
X2000425Y1610399D01*
X2000317Y1611581D01*
Y1611688D01*
X2000210Y1611795D01*
X2000102Y1612440D01*
X1999780Y1613299D01*
X1999458Y1614266D01*
Y1614373D01*
X1999350Y1614588D01*
X1999136Y1615018D01*
X1998921Y1615555D01*
X1998276Y1616844D01*
X1997524Y1618240D01*
X1997417Y1618348D01*
X1997310Y1618563D01*
X1996987Y1618885D01*
X1996665Y1619207D01*
X1995591Y1620174D01*
X1994302Y1621141D01*
X1994194Y1621248D01*
X1993765Y1621463D01*
X1993120Y1621678D01*
X1992476Y1621893D01*
D02*
G37*
G36*
X1979263Y1561524D02*
X1978619D01*
X1977760D01*
X1977008Y1561202D01*
X1976900Y1561095D01*
X1976471Y1560773D01*
X1976148Y1560128D01*
X1975934Y1559376D01*
Y1558624D01*
X1976041Y1557657D01*
X1976363Y1556583D01*
X1976471Y1556476D01*
X1976578Y1555939D01*
X1976900Y1555294D01*
X1977437Y1554542D01*
X1977975Y1553576D01*
X1978619Y1552609D01*
X1979478Y1551642D01*
X1980445Y1550783D01*
X1980553Y1550675D01*
X1980875Y1550353D01*
X1981519Y1549923D01*
X1982164Y1549386D01*
X1983130Y1548849D01*
X1984097Y1548205D01*
X1985279Y1547560D01*
X1986460Y1546916D01*
X1986568Y1547023D01*
X1986890Y1547131D01*
X1986998Y1547238D01*
X1987212Y1547345D01*
Y1547453D01*
X1987105Y1547668D01*
X1986998Y1548097D01*
X1986890Y1548634D01*
X1986568Y1549923D01*
X1986138Y1551320D01*
Y1551427D01*
X1986031Y1551642D01*
X1985923Y1552072D01*
X1985816Y1552501D01*
X1985386Y1553683D01*
X1984957Y1555079D01*
Y1555187D01*
X1984849Y1555294D01*
X1984634Y1555939D01*
X1984312Y1556691D01*
X1983775Y1557657D01*
Y1557765D01*
X1983668Y1557872D01*
X1983238Y1558409D01*
X1982701Y1559161D01*
X1982056Y1559913D01*
Y1560021D01*
X1981841Y1560128D01*
X1981412Y1560558D01*
X1980660Y1561095D01*
X1979586Y1561417D01*
X1979478D01*
X1979263Y1561524D01*
D02*
G37*
G36*
X1964547Y1511361D02*
X1964440D01*
X1964010D01*
X1963581Y1511253D01*
X1962936Y1510931D01*
X1962829Y1510824D01*
X1962721Y1510609D01*
X1962399Y1510287D01*
X1962184Y1509857D01*
X1961862Y1509212D01*
X1961647Y1508568D01*
X1961432Y1507709D01*
X1961325Y1506742D01*
Y1506312D01*
X1961432Y1505775D01*
X1961540Y1505238D01*
X1961862Y1503734D01*
X1962292Y1502982D01*
X1962721Y1502338D01*
X1962829Y1502445D01*
X1963044Y1502553D01*
X1963366Y1502875D01*
X1963688Y1503305D01*
X1964547Y1504486D01*
X1965299Y1505990D01*
Y1506097D01*
X1965407Y1506420D01*
X1965514Y1506849D01*
X1965622Y1507386D01*
X1965836Y1508783D01*
X1965729Y1509427D01*
X1965622Y1510179D01*
X1965514Y1510287D01*
X1965407Y1510716D01*
X1964977Y1511039D01*
X1964547Y1511361D01*
D02*
G37*
G36*
X1997310Y1498793D02*
X1997202Y1498686D01*
X1997095Y1498471D01*
X1996772Y1498041D01*
X1996450Y1497504D01*
X1995591Y1496108D01*
X1994517Y1494496D01*
X1994409Y1494389D01*
X1994302Y1494174D01*
X1993980Y1493745D01*
X1993657Y1493208D01*
X1992798Y1491811D01*
X1991831Y1490200D01*
X1991939Y1490092D01*
X1992153Y1489985D01*
X1992476Y1489663D01*
X1992905Y1489233D01*
X1993980Y1488051D01*
X1995054Y1486655D01*
Y1486548D01*
X1995269Y1486333D01*
X1995483Y1485903D01*
X1995698Y1485259D01*
X1996021Y1484507D01*
X1996235Y1483647D01*
X1996558Y1482681D01*
X1996772Y1481606D01*
X1996880Y1481714D01*
X1997095Y1481929D01*
X1997524Y1482358D01*
X1998061Y1482896D01*
X1999350Y1484292D01*
X2000747Y1485688D01*
X2000854Y1485796D01*
X2001069Y1486010D01*
X2001391Y1486440D01*
X2001928Y1486870D01*
X2003003Y1488051D01*
X2004399Y1489448D01*
X2004506Y1489555D01*
X2004614Y1489770D01*
X2005043Y1490415D01*
Y1490737D01*
X2004936Y1491059D01*
X2004614Y1491489D01*
X2004506Y1491596D01*
X2004292Y1491811D01*
X2003862Y1492241D01*
X2003432Y1492670D01*
X2002251Y1493852D01*
X2000854Y1495248D01*
X2000747Y1495356D01*
X2000532Y1495571D01*
X2000102Y1496000D01*
X1999673Y1496430D01*
X1998491Y1497612D01*
X1997310Y1498793D01*
D02*
G37*
G36*
X1962077Y1492885D02*
X1961755D01*
X1961432D01*
X1961325D01*
X1961110D01*
X1960573Y1492670D01*
X1960466D01*
X1960251Y1492563D01*
X1959821Y1492348D01*
X1959284Y1492133D01*
X1957995Y1491489D01*
X1956491Y1490737D01*
X1956384D01*
X1956169Y1490522D01*
X1955739Y1490415D01*
X1955095Y1490092D01*
X1953698Y1489448D01*
X1952087Y1488696D01*
Y1488589D01*
X1952195Y1488374D01*
X1952517Y1487729D01*
Y1487622D01*
X1952732Y1487407D01*
X1953054Y1486763D01*
Y1486655D01*
X1953161Y1486548D01*
X1953376Y1486225D01*
X1953591Y1485796D01*
X1954021Y1484722D01*
X1954558Y1483218D01*
X1954880Y1481499D01*
X1955095Y1479565D01*
Y1477417D01*
X1954880Y1476343D01*
X1954558Y1475161D01*
Y1475054D01*
X1954450Y1474947D01*
X1954343Y1474624D01*
X1954128Y1474195D01*
X1953698Y1473121D01*
X1953054Y1471724D01*
X1952087Y1470328D01*
X1951013Y1468824D01*
X1949724Y1467320D01*
X1948113Y1466031D01*
X1948005D01*
X1947898Y1465924D01*
X1947253Y1465494D01*
X1946287Y1465064D01*
X1945105Y1464635D01*
X1944998D01*
X1944890Y1464527D01*
X1944138Y1464420D01*
X1943172D01*
X1941990Y1464527D01*
X1941883D01*
X1941668Y1464635D01*
X1941238Y1464742D01*
X1940808Y1464850D01*
X1939734Y1465279D01*
X1938768Y1466031D01*
X1938660D01*
X1938553Y1466246D01*
X1938016Y1466783D01*
X1937371Y1467750D01*
X1936834Y1469039D01*
Y1469146D01*
X1936727Y1469361D01*
Y1470005D01*
X1936834Y1470972D01*
X1936941Y1471402D01*
X1937156Y1471939D01*
Y1472046D01*
X1937264Y1472154D01*
X1937693Y1472798D01*
X1938338Y1473550D01*
X1939197Y1474302D01*
X1939305Y1474409D01*
X1939734Y1474732D01*
X1940379Y1475161D01*
X1941131Y1475699D01*
X1941346Y1475806D01*
X1941775Y1476128D01*
X1942420Y1476558D01*
X1943172Y1476987D01*
X1943279Y1477095D01*
X1943386Y1477202D01*
X1944031Y1477847D01*
X1944675Y1478706D01*
X1944998Y1479351D01*
X1945213Y1479995D01*
Y1480318D01*
X1945320Y1480640D01*
Y1481069D01*
X1945213Y1482251D01*
X1944998Y1482896D01*
X1944675Y1483540D01*
Y1483647D01*
X1944461Y1483862D01*
X1944246Y1484185D01*
X1943923Y1484614D01*
X1943386Y1485044D01*
X1942849Y1485473D01*
X1942205Y1485903D01*
X1941346Y1486118D01*
X1941238D01*
X1940916Y1486225D01*
X1940486D01*
X1939949D01*
X1939197Y1486118D01*
X1938445Y1485903D01*
X1937586Y1485581D01*
X1936727Y1485151D01*
X1936619D01*
X1936512Y1485044D01*
X1935975Y1484614D01*
X1935115Y1483970D01*
X1934149Y1483110D01*
X1932967Y1481929D01*
X1931893Y1480640D01*
X1930819Y1479136D01*
X1929959Y1477525D01*
X1929852Y1477310D01*
X1929637Y1476665D01*
X1929315Y1475699D01*
X1928993Y1474409D01*
X1928778Y1472906D01*
X1928670Y1471080D01*
X1928778Y1469039D01*
X1929100Y1466783D01*
Y1466568D01*
X1929315Y1466031D01*
X1929637Y1465279D01*
X1929959Y1464205D01*
X1930496Y1463023D01*
X1931141Y1461842D01*
X1932000Y1460553D01*
X1932967Y1459371D01*
X1933074Y1459264D01*
X1933504Y1458834D01*
X1934149Y1458297D01*
X1934901Y1457653D01*
X1935975Y1456793D01*
X1937049Y1455934D01*
X1938338Y1455182D01*
X1939734Y1454323D01*
X1939949Y1454215D01*
X1940486Y1454000D01*
X1941238Y1453571D01*
X1942312Y1453141D01*
X1943601Y1452711D01*
X1945105Y1452282D01*
X1946609Y1451960D01*
X1948220Y1451745D01*
X1948435D01*
X1948972D01*
X1949831Y1451637D01*
X1951013D01*
X1952409Y1451745D01*
X1953913Y1451852D01*
X1955524Y1452067D01*
X1957136Y1452389D01*
X1957243D01*
X1957565Y1452497D01*
X1957995Y1452604D01*
X1958640Y1452819D01*
X1959391Y1453034D01*
X1960358Y1453248D01*
X1961432Y1453678D01*
X1962507Y1454000D01*
X1965085Y1454967D01*
X1967770Y1456149D01*
X1970563Y1457545D01*
X1973356Y1459264D01*
X1973463Y1459371D01*
X1973678Y1459479D01*
X1974108Y1459801D01*
X1974537Y1460123D01*
X1975182Y1460660D01*
X1975934Y1461197D01*
X1977652Y1462701D01*
X1979693Y1464420D01*
X1981841Y1466568D01*
X1984097Y1468824D01*
X1986246Y1471402D01*
X1986353Y1471617D01*
X1986783Y1472046D01*
X1987212Y1472691D01*
X1987749Y1473550D01*
X1987857Y1473765D01*
X1988179Y1474195D01*
X1988501Y1474947D01*
X1988931Y1475699D01*
X1989038Y1475806D01*
X1989146Y1476236D01*
X1989361Y1476987D01*
X1989468Y1477847D01*
Y1479888D01*
X1989146Y1480962D01*
X1988609Y1482144D01*
X1988501Y1482251D01*
X1988286Y1482573D01*
X1987749Y1483110D01*
X1987212Y1483647D01*
X1986353Y1484292D01*
X1985386Y1484829D01*
X1984312Y1485151D01*
X1983023Y1485366D01*
X1982916D01*
X1982701D01*
X1982379D01*
X1981841D01*
X1980767D01*
X1979478Y1485151D01*
X1979371D01*
X1979156Y1485044D01*
X1978834Y1484936D01*
X1978404Y1484829D01*
X1977330Y1484507D01*
X1976148Y1483970D01*
X1976041Y1483862D01*
X1975719Y1483755D01*
X1975182Y1483432D01*
X1974537Y1482896D01*
X1973785Y1482251D01*
X1973033Y1481392D01*
X1972281Y1480318D01*
X1971637Y1479028D01*
X1971530Y1478921D01*
X1971422Y1478384D01*
X1971207Y1477740D01*
X1971100Y1476880D01*
X1970992Y1475806D01*
Y1474732D01*
X1971207Y1473550D01*
X1971637Y1472369D01*
X1971744Y1472154D01*
X1971959Y1471724D01*
Y1471617D01*
X1972067Y1471509D01*
X1972281Y1470972D01*
Y1470865D01*
X1972389Y1470650D01*
Y1470220D01*
X1972496Y1469683D01*
X1972389Y1468394D01*
X1972174Y1467642D01*
X1971852Y1466890D01*
X1971744Y1466783D01*
X1971637Y1466568D01*
X1970992Y1465924D01*
X1970563Y1465494D01*
X1970026Y1465064D01*
X1969274Y1464742D01*
X1968522Y1464527D01*
X1968414D01*
X1968092D01*
X1967663Y1464420D01*
X1967126D01*
X1965836Y1464527D01*
X1964333Y1464850D01*
X1964225D01*
X1964010Y1464957D01*
X1963688Y1465172D01*
X1963151Y1465387D01*
X1962077Y1466138D01*
X1961003Y1467213D01*
X1960895Y1467320D01*
X1960788Y1467535D01*
X1960466Y1467965D01*
X1960143Y1468394D01*
X1959499Y1469683D01*
X1959284Y1470435D01*
X1959069Y1471187D01*
Y1473980D01*
X1959391Y1475591D01*
Y1475806D01*
X1959499Y1476236D01*
X1959714Y1476880D01*
X1960036Y1477740D01*
X1960466Y1478706D01*
X1960895Y1479780D01*
X1961540Y1480854D01*
X1962292Y1481929D01*
X1962399Y1482036D01*
X1962721Y1482358D01*
X1963151Y1482896D01*
X1963688Y1483540D01*
X1964440Y1484185D01*
X1965407Y1485044D01*
X1966373Y1485796D01*
X1967448Y1486655D01*
X1967555Y1486763D01*
X1967877Y1486977D01*
X1968307Y1487299D01*
X1968844Y1487622D01*
X1968952Y1487729D01*
X1969274Y1487944D01*
X1969811Y1488266D01*
X1970455Y1488696D01*
X1970348D01*
X1970133Y1488911D01*
X1969704Y1489126D01*
X1969166Y1489341D01*
X1967770Y1490092D01*
X1966266Y1490844D01*
X1966159D01*
X1965944Y1491059D01*
X1965514Y1491167D01*
X1964977Y1491489D01*
X1963688Y1492026D01*
X1962292Y1492778D01*
X1962184D01*
X1962077Y1492885D01*
D02*
G37*
%LPD*%
D10*
X1743000Y1680000D02*
X1869000D01*
Y1806000D01*
X1575000D02*
X1869000D01*
X1575000Y1680000D02*
Y1806000D01*
Y1680000D02*
X1701000D01*
X1764000Y1428000D02*
X1869000D01*
Y1554000D01*
X1617000D02*
X1869000D01*
X1617000Y1428000D02*
Y1554000D01*
Y1428000D02*
X1722000D01*
X1365000D02*
X1449000D01*
X1365000D02*
Y1449000D01*
Y1428000D02*
Y1449000D01*
Y1554000D01*
X1575000D01*
Y1428000D02*
Y1554000D01*
X1554000Y1428000D02*
X1575000D01*
X1491000D02*
X1554000D01*
X1365000Y1680000D02*
X1428000D01*
X1365000D02*
Y1806000D01*
X1533000D01*
Y1680000D02*
Y1806000D01*
X1470000Y1680000D02*
X1533000D01*
X1428000Y1659000D02*
Y1680000D01*
Y1659000D02*
X1470000D01*
Y1680000D01*
X1449000Y1407000D02*
Y1428000D01*
Y1407000D02*
X1491000D01*
Y1428000D01*
X1722000Y1407000D02*
Y1428000D01*
Y1407000D02*
X1764000D01*
Y1428000D01*
X1743000Y1659000D02*
Y1680000D01*
X1701000Y1659000D02*
X1743000D01*
X1701000D02*
Y1680000D01*
M02*
