G04*
G04 #@! TF.GenerationSoftware,Altium Limited,Altium Designer,18.1.7 (191)*
G04*
G04 Layer_Color=32896*
%FSLAX44Y44*%
%MOMM*%
G71*
G01*
G75*
%ADD18C,0.2540*%
G36*
X1553154Y1663872D02*
X1554221Y1663626D01*
X1554631Y1663462D01*
X1554959Y1663380D01*
X1555205Y1663216D01*
X1555287D01*
X1556189Y1662724D01*
X1556927Y1662232D01*
X1557583Y1661740D01*
X1558076Y1661166D01*
X1558403Y1660756D01*
X1558650Y1660346D01*
X1558814Y1660100D01*
X1558896Y1660018D01*
X1559142Y1659444D01*
X1559224Y1659034D01*
X1559388Y1658705D01*
Y1658541D01*
Y1658049D01*
X1559224Y1657639D01*
X1558978Y1657311D01*
X1558896Y1657229D01*
X1558650Y1657065D01*
X1558076D01*
X1557829Y1657147D01*
X1557747Y1657229D01*
X1557337Y1657639D01*
X1557009Y1657967D01*
X1556763Y1658131D01*
X1556681Y1658213D01*
X1556271Y1658541D01*
X1555861Y1658787D01*
X1555533Y1658951D01*
X1555451Y1659034D01*
X1555041Y1659279D01*
X1554631Y1659526D01*
X1554303Y1659608D01*
X1554221Y1659690D01*
X1553729Y1659772D01*
X1553401Y1659690D01*
X1553237Y1659608D01*
X1553154Y1659526D01*
X1552990Y1659115D01*
X1552908Y1658787D01*
X1552990Y1658459D01*
Y1658377D01*
X1553237Y1657885D01*
X1553318Y1657721D01*
Y1657639D01*
X1553647Y1657229D01*
X1553729Y1657065D01*
X1553811Y1656983D01*
X1554385Y1656327D01*
X1554877Y1655671D01*
X1555205Y1655261D01*
X1555369Y1655179D01*
Y1655097D01*
X1555943Y1654440D01*
X1556435Y1653784D01*
X1556763Y1653292D01*
X1556927Y1653210D01*
Y1653128D01*
X1557911Y1651734D01*
X1558322Y1651078D01*
X1558732Y1650504D01*
X1559060Y1650012D01*
X1559306Y1649602D01*
X1559470Y1649355D01*
X1559552Y1649274D01*
X1560454Y1647879D01*
X1560864Y1647223D01*
X1561274Y1646649D01*
X1561602Y1646157D01*
X1561848Y1645747D01*
X1561930Y1645501D01*
X1562012Y1645419D01*
X1562586Y1644024D01*
X1562832Y1643368D01*
X1563078Y1642794D01*
X1563242Y1642302D01*
X1563407Y1641892D01*
X1563489Y1641646D01*
Y1641564D01*
X1563817Y1640088D01*
X1563981Y1639431D01*
X1564145Y1638775D01*
X1564227Y1638283D01*
Y1637873D01*
X1564309Y1637627D01*
Y1637545D01*
X1564227Y1637217D01*
Y1636889D01*
Y1636725D01*
Y1636643D01*
X1564145Y1636233D01*
Y1636069D01*
Y1635987D01*
X1563981Y1635167D01*
X1563653Y1634429D01*
X1563242Y1633772D01*
X1562832Y1633198D01*
X1562504Y1632788D01*
X1562176Y1632460D01*
X1561930Y1632296D01*
X1561848Y1632214D01*
X1561028Y1631804D01*
X1560208Y1631640D01*
X1559470Y1631558D01*
X1558732Y1631640D01*
X1558076Y1631722D01*
X1557583Y1631886D01*
X1557255Y1631968D01*
X1557173Y1632050D01*
X1556271Y1632542D01*
X1555451Y1633034D01*
X1554713Y1633526D01*
X1554057Y1633936D01*
X1553565Y1634346D01*
X1553154Y1634675D01*
X1552908Y1634921D01*
X1552826Y1635003D01*
X1551514Y1636315D01*
X1550940Y1636889D01*
X1550366Y1637463D01*
X1549956Y1637955D01*
X1549628Y1638365D01*
X1549382Y1638611D01*
X1549300Y1638693D01*
X1549136Y1638939D01*
X1549054Y1639267D01*
Y1639514D01*
Y1639595D01*
Y1640006D01*
X1549136Y1640334D01*
X1549218Y1640416D01*
X1549300Y1640498D01*
X1549464Y1640662D01*
X1549792Y1640744D01*
X1550530D01*
X1550776Y1640662D01*
X1550940Y1640580D01*
X1551022D01*
X1551514Y1640252D01*
X1551842Y1639924D01*
X1552088Y1639677D01*
X1552170Y1639595D01*
X1552580Y1639185D01*
X1552908Y1638775D01*
X1553154Y1638447D01*
X1553237Y1638365D01*
X1553893Y1637627D01*
X1554549Y1637053D01*
X1554959Y1636643D01*
X1555041Y1636561D01*
X1555123Y1636479D01*
X1555861Y1635905D01*
X1556599Y1635577D01*
X1556845Y1635413D01*
X1557091Y1635331D01*
X1557255Y1635249D01*
X1557337D01*
X1557829Y1635167D01*
X1558158Y1635085D01*
X1558814Y1635167D01*
X1559142Y1635249D01*
X1559306Y1635331D01*
X1559552Y1635577D01*
X1559716Y1635823D01*
X1559798Y1636479D01*
X1559716Y1636971D01*
Y1637135D01*
Y1637217D01*
X1559552Y1637955D01*
X1559388Y1638611D01*
X1559306Y1639021D01*
X1559224Y1639103D01*
Y1639185D01*
X1558978Y1639924D01*
X1558650Y1640498D01*
X1558486Y1640826D01*
X1558403Y1640990D01*
X1557583Y1642384D01*
X1556845Y1643778D01*
X1556107Y1645009D01*
X1555451Y1646157D01*
X1554877Y1647059D01*
X1554467Y1647797D01*
X1554139Y1648289D01*
X1554057Y1648453D01*
X1553237Y1649848D01*
X1552416Y1651242D01*
X1551760Y1652472D01*
X1551104Y1653620D01*
X1550530Y1654605D01*
X1550120Y1655343D01*
X1549874Y1655835D01*
X1549792Y1655999D01*
X1549382Y1656737D01*
X1549054Y1657393D01*
X1548890Y1657885D01*
X1548808Y1657967D01*
Y1658049D01*
X1548479Y1658869D01*
X1548315Y1659608D01*
X1548152Y1660182D01*
Y1660264D01*
Y1660346D01*
X1548069Y1660838D01*
Y1661248D01*
X1548233Y1661986D01*
X1548479Y1662396D01*
X1548562Y1662560D01*
X1549136Y1663134D01*
X1549792Y1663544D01*
X1550366Y1663708D01*
X1550530Y1663790D01*
X1550612D01*
X1551104Y1663954D01*
X1551596Y1664037D01*
X1552006D01*
X1553154Y1663872D01*
D02*
G37*
G36*
X1728834Y1663298D02*
X1730392Y1663134D01*
X1731787Y1662970D01*
X1733017Y1662724D01*
X1734001Y1662396D01*
X1734821Y1662232D01*
X1735313Y1662068D01*
X1735395Y1661986D01*
X1735477D01*
X1736872Y1661412D01*
X1738102Y1660756D01*
X1739332Y1659936D01*
X1740316Y1659198D01*
X1741219Y1658541D01*
X1741793Y1657967D01*
X1742203Y1657557D01*
X1742367Y1657393D01*
X1743269Y1656409D01*
X1744089Y1655425D01*
X1744745Y1654441D01*
X1745401Y1653456D01*
X1746468Y1651570D01*
X1747206Y1649848D01*
X1747780Y1648371D01*
X1747944Y1647797D01*
X1748108Y1647223D01*
X1748190Y1646813D01*
X1748272Y1646485D01*
X1748354Y1646321D01*
Y1646239D01*
X1748518Y1644845D01*
X1748600Y1644189D01*
Y1643532D01*
X1748682Y1643040D01*
Y1642630D01*
Y1642384D01*
Y1642302D01*
X1748600Y1640744D01*
X1748436Y1639185D01*
X1748272Y1637709D01*
X1747944Y1636397D01*
X1747698Y1635331D01*
X1747534Y1634429D01*
X1747452Y1634100D01*
X1747370Y1633854D01*
X1747288Y1633772D01*
Y1633690D01*
X1746796Y1632296D01*
X1746222Y1630984D01*
X1745730Y1629836D01*
X1745155Y1628769D01*
X1744745Y1627867D01*
X1744335Y1627211D01*
X1744089Y1626801D01*
X1744007Y1626637D01*
X1742449Y1624341D01*
X1741711Y1623274D01*
X1741055Y1622290D01*
X1740398Y1621470D01*
X1739988Y1620896D01*
X1739660Y1620486D01*
X1739578Y1620322D01*
X1737774Y1618025D01*
X1735970Y1615729D01*
X1734329Y1613678D01*
X1732771Y1611874D01*
X1732033Y1611054D01*
X1731459Y1610398D01*
X1730884Y1609742D01*
X1730392Y1609167D01*
X1729982Y1608757D01*
X1729736Y1608429D01*
X1729572Y1608265D01*
X1729490Y1608183D01*
X1727522Y1606051D01*
X1725553Y1604000D01*
X1723667Y1602032D01*
X1721945Y1600310D01*
X1721207Y1599572D01*
X1720550Y1598915D01*
X1719894Y1598341D01*
X1719402Y1597849D01*
X1718992Y1597439D01*
X1718664Y1597111D01*
X1718500Y1596947D01*
X1718418Y1596865D01*
X1717516Y1596045D01*
X1716778Y1595307D01*
X1716449Y1595060D01*
X1716203Y1594814D01*
X1716039Y1594733D01*
X1715957Y1594651D01*
X1714973Y1593912D01*
X1714153Y1593256D01*
X1713825Y1593010D01*
X1713579Y1592764D01*
X1713415Y1592682D01*
X1713333Y1592600D01*
X1713005Y1592764D01*
X1712841Y1592846D01*
X1712595Y1593092D01*
X1712513Y1593174D01*
X1711118Y1594404D01*
X1709724Y1595635D01*
X1708494Y1596783D01*
X1707428Y1597849D01*
X1706526Y1598751D01*
X1705787Y1599407D01*
X1705377Y1599899D01*
X1705213Y1600064D01*
X1703901Y1601458D01*
X1702671Y1602770D01*
X1701523Y1604000D01*
X1700456Y1605149D01*
X1699636Y1606133D01*
X1698980Y1606871D01*
X1698570Y1607363D01*
X1698406Y1607445D01*
Y1607527D01*
X1697504Y1608675D01*
X1696684Y1609659D01*
X1696355Y1610070D01*
X1696109Y1610398D01*
X1695945Y1610562D01*
X1695863Y1610644D01*
X1694961Y1611874D01*
X1694141Y1612940D01*
X1693895Y1613350D01*
X1693649Y1613678D01*
X1693567Y1613924D01*
X1693485Y1614006D01*
X1693075Y1614662D01*
X1692829Y1615237D01*
X1692665Y1615811D01*
X1692583Y1616303D01*
Y1616713D01*
Y1617041D01*
X1692665Y1617205D01*
Y1617287D01*
X1692829Y1617861D01*
X1693075Y1618435D01*
X1693731Y1619337D01*
X1694059Y1619666D01*
X1694387Y1619912D01*
X1694551Y1620076D01*
X1694633Y1620158D01*
X1695371Y1620732D01*
X1696027Y1621142D01*
X1696765Y1621470D01*
X1697340Y1621716D01*
X1697914Y1621880D01*
X1698324Y1622044D01*
X1698570Y1622126D01*
X1698652D01*
X1700292Y1622290D01*
X1701112Y1622372D01*
X1701769Y1622290D01*
X1702835D01*
X1703163Y1622208D01*
X1703245D01*
X1703983Y1622044D01*
X1704557Y1621798D01*
X1704967Y1621634D01*
X1705049Y1621552D01*
X1705131D01*
X1705705Y1621142D01*
X1706115Y1620568D01*
X1706362Y1620158D01*
X1706443Y1620076D01*
Y1619994D01*
X1706608Y1619420D01*
X1706690Y1619009D01*
X1706772Y1618681D01*
Y1618517D01*
X1706690Y1618025D01*
X1706526Y1617533D01*
X1706362Y1617205D01*
X1706279Y1617123D01*
X1705869Y1616713D01*
X1705541Y1616549D01*
X1705213Y1616467D01*
X1704639D01*
X1704147Y1616549D01*
X1703819Y1616631D01*
X1703737D01*
X1703327Y1616713D01*
X1702999Y1616795D01*
X1702753Y1616877D01*
X1702671D01*
X1702261Y1616959D01*
X1701851Y1617041D01*
X1701604Y1617123D01*
X1701523D01*
X1700866Y1617041D01*
X1700374Y1616795D01*
X1700128Y1616549D01*
X1700046Y1616467D01*
X1699882Y1615893D01*
Y1615401D01*
Y1614991D01*
X1699964Y1614909D01*
Y1614827D01*
X1700292Y1614252D01*
X1700620Y1613760D01*
X1701523Y1612858D01*
X1702015Y1612530D01*
X1702343Y1612284D01*
X1702589Y1612120D01*
X1702671Y1612038D01*
X1703409Y1611628D01*
X1704147Y1611382D01*
X1704803Y1611218D01*
X1705377Y1611136D01*
X1705869Y1611054D01*
X1706526D01*
X1707264Y1611218D01*
X1707838Y1611382D01*
X1708412Y1611710D01*
X1708904Y1611956D01*
X1709314Y1612202D01*
X1709642Y1612448D01*
X1709806Y1612612D01*
X1709888Y1612694D01*
X1710380Y1613268D01*
X1710708Y1613842D01*
X1711036Y1614334D01*
X1711283Y1614909D01*
X1711447Y1615401D01*
X1711528Y1615729D01*
X1711611Y1615975D01*
Y1616057D01*
X1711693Y1617123D01*
Y1618189D01*
Y1619091D01*
X1711611Y1619994D01*
X1711528Y1620650D01*
X1711364Y1621142D01*
X1711283Y1621552D01*
Y1621634D01*
X1710954Y1622618D01*
X1710626Y1623520D01*
X1710216Y1624341D01*
X1709806Y1625079D01*
X1709478Y1625653D01*
X1709150Y1626145D01*
X1708986Y1626473D01*
X1708904Y1626555D01*
X1708576Y1626965D01*
X1708248Y1627211D01*
X1708002Y1627375D01*
X1707592D01*
X1707182Y1627129D01*
X1706854Y1626965D01*
X1706772Y1626883D01*
X1705787Y1626309D01*
X1704885Y1625817D01*
X1703983Y1625489D01*
X1703163Y1625243D01*
X1702425Y1625161D01*
X1701933Y1625079D01*
X1701523Y1624997D01*
X1700456D01*
X1699472Y1625161D01*
X1698488Y1625325D01*
X1697668Y1625489D01*
X1696930Y1625735D01*
X1696438Y1625899D01*
X1696027Y1625981D01*
X1695945Y1626063D01*
X1695043Y1626555D01*
X1694223Y1627047D01*
X1693731Y1627457D01*
X1693649Y1627621D01*
X1693567D01*
X1693239Y1628031D01*
X1692993Y1628441D01*
X1692665Y1629344D01*
Y1629671D01*
X1692583Y1630000D01*
Y1630164D01*
Y1630246D01*
Y1630820D01*
X1692747Y1631312D01*
X1692993Y1632132D01*
X1693157Y1632378D01*
X1693321Y1632624D01*
X1693403Y1632706D01*
X1693485Y1632788D01*
X1694223Y1633444D01*
X1694879Y1634018D01*
X1695453Y1634346D01*
X1695535Y1634510D01*
X1695617D01*
X1695781Y1634592D01*
X1695863D01*
X1695945Y1634675D01*
X1696027D01*
X1697504Y1635249D01*
X1698242Y1635495D01*
X1698898Y1635659D01*
X1699390Y1635741D01*
X1699882Y1635823D01*
X1700128Y1635905D01*
X1700210D01*
X1701851Y1635987D01*
X1702589Y1635905D01*
X1703245D01*
X1703819Y1635823D01*
X1704229Y1635741D01*
X1704557Y1635659D01*
X1704639D01*
X1705131Y1635577D01*
X1705623Y1635495D01*
X1706608D01*
X1706772Y1635659D01*
X1706936Y1635905D01*
X1707264Y1636479D01*
X1707510Y1637053D01*
X1707592Y1637217D01*
Y1637299D01*
X1707920Y1638447D01*
X1708166Y1639596D01*
X1708330Y1640662D01*
X1708412Y1641646D01*
X1708494Y1642466D01*
X1708576Y1643040D01*
Y1643450D01*
Y1643614D01*
X1708494Y1645911D01*
X1708330Y1646977D01*
X1708166Y1647879D01*
X1708084Y1648699D01*
X1707920Y1649355D01*
X1707838Y1649684D01*
Y1649848D01*
X1707264Y1651324D01*
X1707018Y1651980D01*
X1706690Y1652554D01*
X1706362Y1653046D01*
X1706198Y1653374D01*
X1706033Y1653620D01*
X1705951Y1653702D01*
X1705459Y1654359D01*
X1704885Y1654851D01*
X1704311Y1655343D01*
X1703819Y1655753D01*
X1703327Y1655999D01*
X1702917Y1656245D01*
X1702671Y1656409D01*
X1702589D01*
X1701769Y1656737D01*
X1701030Y1656983D01*
X1699390Y1657229D01*
X1697914Y1657311D01*
X1696519Y1657229D01*
X1695289Y1656983D01*
X1694387Y1656737D01*
X1694059Y1656655D01*
X1693813Y1656573D01*
X1693649Y1656491D01*
X1693567D01*
X1691844Y1655753D01*
X1690450Y1654769D01*
X1689302Y1653784D01*
X1688318Y1652800D01*
X1687662Y1651898D01*
X1687170Y1651160D01*
X1686924Y1650586D01*
X1686841Y1650504D01*
Y1650422D01*
X1686595Y1649848D01*
X1686514Y1649274D01*
X1686431Y1648207D01*
X1686514Y1647797D01*
Y1647469D01*
X1686595Y1647305D01*
Y1647223D01*
X1686759Y1646731D01*
X1687088Y1646239D01*
X1687662Y1645583D01*
X1688154Y1645173D01*
X1688318Y1645009D01*
X1688400D01*
X1688974Y1644763D01*
X1689466Y1644599D01*
X1690450Y1644516D01*
X1690778Y1644599D01*
X1691106D01*
X1691270Y1644681D01*
X1691352D01*
X1691844Y1644927D01*
X1692337Y1645173D01*
X1693157Y1645829D01*
X1693649Y1646403D01*
X1693731Y1646567D01*
X1693813Y1646649D01*
X1694141Y1647141D01*
X1694387Y1647633D01*
X1694633Y1647961D01*
X1694715Y1648043D01*
X1695043Y1648535D01*
X1695289Y1648945D01*
X1695535Y1649274D01*
X1695617Y1649355D01*
X1696273Y1650012D01*
X1696848Y1650504D01*
X1697340Y1650750D01*
X1697422Y1650832D01*
X1697504D01*
X1698242Y1650996D01*
X1698980D01*
X1699308Y1650914D01*
X1699554D01*
X1699718Y1650832D01*
X1699800D01*
X1700702Y1650422D01*
X1701440Y1649930D01*
X1701851Y1649520D01*
X1702015Y1649438D01*
Y1649355D01*
X1702507Y1648535D01*
X1702835Y1647715D01*
X1702917Y1647387D01*
Y1647059D01*
X1702999Y1646895D01*
Y1646813D01*
Y1645829D01*
X1702917Y1645009D01*
X1702835Y1644681D01*
X1702753Y1644435D01*
X1702671Y1644270D01*
Y1644189D01*
X1702261Y1643286D01*
X1701851Y1642548D01*
X1701440Y1641974D01*
X1701277Y1641892D01*
Y1641810D01*
X1700210Y1640744D01*
X1699144Y1639760D01*
X1698078Y1639021D01*
X1697094Y1638447D01*
X1696191Y1638037D01*
X1695535Y1637709D01*
X1695125Y1637545D01*
X1694961Y1637463D01*
X1693649Y1637135D01*
X1692255Y1636971D01*
X1691024Y1636889D01*
X1689794D01*
X1688810Y1636971D01*
X1687990Y1637053D01*
X1687744D01*
X1687498Y1637135D01*
X1687334D01*
X1685775Y1637545D01*
X1684463Y1638201D01*
X1683315Y1638857D01*
X1682413Y1639596D01*
X1681674Y1640334D01*
X1681100Y1640908D01*
X1680772Y1641318D01*
X1680690Y1641482D01*
X1680034Y1642876D01*
X1679624Y1644189D01*
X1679378Y1645501D01*
X1679296Y1646731D01*
X1679378Y1647715D01*
X1679460Y1648535D01*
X1679542Y1648781D01*
Y1649028D01*
X1679624Y1649109D01*
Y1649191D01*
X1679952Y1650258D01*
X1680280Y1651242D01*
X1680690Y1652144D01*
X1681018Y1652882D01*
X1681346Y1653538D01*
X1681674Y1654030D01*
X1681839Y1654359D01*
X1681920Y1654441D01*
X1683151Y1656163D01*
X1683807Y1656901D01*
X1684463Y1657475D01*
X1684955Y1658049D01*
X1685365Y1658459D01*
X1685693Y1658705D01*
X1685775Y1658787D01*
X1686924Y1659690D01*
X1688072Y1660510D01*
X1689220Y1661084D01*
X1690286Y1661658D01*
X1691188Y1661986D01*
X1691844Y1662314D01*
X1692337Y1662396D01*
X1692419Y1662478D01*
X1692501D01*
X1693895Y1662806D01*
X1695207Y1663052D01*
X1696519Y1663134D01*
X1697668Y1663216D01*
X1700128D01*
X1701358Y1663134D01*
X1702507Y1662970D01*
X1703491Y1662724D01*
X1704393Y1662478D01*
X1705213Y1662232D01*
X1705787Y1661986D01*
X1706115Y1661904D01*
X1706279Y1661822D01*
X1707346Y1661330D01*
X1708330Y1660756D01*
X1709150Y1660182D01*
X1709970Y1659526D01*
X1710544Y1659034D01*
X1711036Y1658623D01*
X1711364Y1658295D01*
X1711447Y1658213D01*
X1711775Y1657885D01*
X1712103Y1657557D01*
X1712267Y1657311D01*
X1712349Y1657229D01*
X1712677Y1656901D01*
X1712923Y1656573D01*
X1713087Y1656327D01*
X1713169Y1656245D01*
X1713497Y1656409D01*
X1713661Y1656491D01*
X1713825Y1656573D01*
X1713907D01*
X1714235Y1656983D01*
X1714317Y1657147D01*
X1714399D01*
X1714809Y1657557D01*
X1714891Y1657721D01*
X1714973D01*
X1715957Y1658705D01*
X1716942Y1659526D01*
X1717844Y1660182D01*
X1718664Y1660756D01*
X1719402Y1661248D01*
X1719976Y1661576D01*
X1720304Y1661740D01*
X1720468Y1661822D01*
X1721617Y1662314D01*
X1722765Y1662724D01*
X1723913Y1662970D01*
X1724979Y1663134D01*
X1725881Y1663298D01*
X1726538Y1663380D01*
X1727194D01*
X1728834Y1663298D01*
D02*
G37*
G36*
X1623689Y1658951D02*
X1624181Y1658787D01*
X1624509Y1658623D01*
X1624591Y1658541D01*
X1625165Y1657967D01*
X1625657Y1657393D01*
X1625985Y1656901D01*
X1626067Y1656737D01*
Y1656655D01*
X1626231Y1656245D01*
X1626313Y1655917D01*
X1626395Y1655343D01*
X1626313Y1655015D01*
Y1654933D01*
X1626231Y1654769D01*
X1626067Y1654605D01*
X1625903Y1654523D01*
X1625247D01*
X1624591Y1654851D01*
X1624017Y1655179D01*
X1623607Y1655425D01*
X1623525Y1655507D01*
X1623443D01*
X1622787Y1655917D01*
X1622130Y1656245D01*
X1621720Y1656491D01*
X1621638Y1656573D01*
X1621556D01*
X1621392Y1656655D01*
X1621310Y1656819D01*
X1621228Y1656901D01*
Y1656983D01*
X1621064Y1657311D01*
X1620982Y1657475D01*
X1621228Y1657803D01*
X1621310Y1657967D01*
X1621556Y1658295D01*
X1621638Y1658377D01*
X1621720D01*
X1622294Y1658787D01*
X1622705Y1658951D01*
X1623033Y1659034D01*
X1623197D01*
X1623689Y1658951D01*
D02*
G37*
G36*
X1573823Y1658377D02*
X1573905D01*
X1574397Y1658213D01*
X1574807Y1657967D01*
X1575381Y1657393D01*
X1575791Y1656901D01*
X1575873Y1656737D01*
Y1656655D01*
X1576037Y1656163D01*
X1576201Y1655671D01*
X1576283Y1654769D01*
Y1654359D01*
X1576201Y1654030D01*
Y1653866D01*
Y1653784D01*
X1575217Y1654113D01*
X1574397Y1654440D01*
X1574069Y1654523D01*
X1573823Y1654687D01*
X1573741Y1654769D01*
X1573659D01*
X1572838Y1655343D01*
X1572182Y1655753D01*
X1571690Y1656081D01*
X1571608Y1656245D01*
X1571526D01*
X1571444Y1656327D01*
X1571362Y1656491D01*
Y1656655D01*
Y1656737D01*
Y1657229D01*
X1571444Y1657311D01*
Y1657393D01*
X1571772Y1657803D01*
X1572100Y1658049D01*
X1572346Y1658213D01*
X1572510Y1658295D01*
X1573085Y1658377D01*
X1573495Y1658459D01*
X1573823Y1658377D01*
D02*
G37*
G36*
X1572838Y1652226D02*
X1573002Y1652062D01*
X1573167Y1651980D01*
X1573495Y1651898D01*
X1573577Y1651816D01*
X1573659D01*
X1575709Y1650750D01*
X1576693Y1650258D01*
X1577513Y1649766D01*
X1578252Y1649355D01*
X1578744Y1649027D01*
X1579072Y1648863D01*
X1579236Y1648781D01*
X1580302Y1648289D01*
X1581368Y1647879D01*
X1582352Y1647633D01*
X1583337Y1647387D01*
X1584157Y1647305D01*
X1584731Y1647223D01*
X1585305D01*
X1585715Y1647141D01*
X1585961Y1646977D01*
X1586125Y1646813D01*
Y1646731D01*
X1586207Y1646403D01*
X1586125Y1646157D01*
X1586043Y1645993D01*
Y1645911D01*
X1585469Y1645419D01*
X1585305Y1645255D01*
X1585223Y1645173D01*
X1584649Y1644845D01*
X1584403Y1644681D01*
X1584321D01*
X1583911Y1644599D01*
X1583091D01*
X1582598Y1644681D01*
X1581614D01*
X1581860Y1644024D01*
X1582106Y1643532D01*
X1582270Y1643204D01*
X1582352Y1643040D01*
X1582598Y1642548D01*
X1582845Y1642056D01*
X1582926Y1641728D01*
X1583009Y1641646D01*
X1583419Y1640826D01*
X1583747Y1640088D01*
X1583993Y1639514D01*
X1584075Y1639431D01*
Y1639350D01*
X1584485Y1638529D01*
X1584731Y1637791D01*
X1584895Y1637217D01*
X1584977Y1637135D01*
Y1637053D01*
X1585141Y1636069D01*
X1585223Y1635167D01*
X1585059Y1634429D01*
X1584895Y1633772D01*
X1584649Y1633198D01*
X1584403Y1632870D01*
X1584239Y1632624D01*
X1584157Y1632542D01*
X1583501Y1631968D01*
X1582845Y1631640D01*
X1582106Y1631394D01*
X1581368Y1631230D01*
X1579728D01*
X1579400Y1631312D01*
X1579072Y1631394D01*
X1578826Y1631476D01*
X1578744D01*
X1578416Y1631640D01*
X1578087Y1631722D01*
X1577841Y1631886D01*
X1577760D01*
X1576447Y1632706D01*
X1575873Y1633116D01*
X1575299Y1633526D01*
X1574889Y1633854D01*
X1574561Y1634100D01*
X1574397Y1634264D01*
X1574315Y1634346D01*
X1573248Y1635413D01*
X1572428Y1636397D01*
X1572100Y1636807D01*
X1571854Y1637135D01*
X1571690Y1637381D01*
X1571608Y1637463D01*
X1571198Y1638037D01*
X1571116Y1638201D01*
Y1638283D01*
Y1638693D01*
X1571198Y1639103D01*
X1571362Y1639431D01*
X1571444Y1639595D01*
X1572018Y1639103D01*
X1572182Y1639021D01*
X1572264Y1638939D01*
X1572756Y1638529D01*
X1572921Y1638365D01*
X1573002Y1638283D01*
X1573823Y1637545D01*
X1574561Y1636889D01*
X1575053Y1636397D01*
X1575135Y1636315D01*
X1575217Y1636233D01*
X1576037Y1635577D01*
X1576693Y1634921D01*
X1577267Y1634510D01*
X1577349Y1634429D01*
X1577431Y1634346D01*
X1577841Y1634018D01*
X1578334Y1633772D01*
X1578580Y1633608D01*
X1578744Y1633526D01*
X1578990Y1633444D01*
X1579236Y1633362D01*
X1579728Y1633444D01*
X1580138Y1633608D01*
X1580220Y1633690D01*
X1580302D01*
X1580630Y1634018D01*
X1580794Y1634429D01*
X1580876Y1634675D01*
Y1634839D01*
Y1635495D01*
X1580712Y1636069D01*
X1580548Y1636561D01*
X1580466Y1636643D01*
Y1636725D01*
X1580302Y1637217D01*
X1580056Y1637627D01*
X1579974Y1637873D01*
X1579892Y1637955D01*
X1579728Y1638447D01*
X1579482Y1638857D01*
X1579400Y1639103D01*
X1579318Y1639185D01*
X1578744Y1640252D01*
X1578252Y1641236D01*
X1578087Y1641564D01*
X1577923Y1641892D01*
X1577760Y1642056D01*
Y1642138D01*
X1577185Y1643204D01*
X1576693Y1644189D01*
X1576447Y1644516D01*
X1576365Y1644845D01*
X1576201Y1645009D01*
Y1645091D01*
X1575545Y1646321D01*
X1574971Y1647469D01*
X1574725Y1647879D01*
X1574561Y1648207D01*
X1574397Y1648453D01*
Y1648535D01*
X1573741Y1649930D01*
X1573413Y1650504D01*
X1573085Y1651078D01*
X1572838Y1651570D01*
X1572674Y1651980D01*
X1572592Y1652226D01*
X1572510Y1652308D01*
X1572838Y1652226D01*
D02*
G37*
G36*
X1642553Y1662724D02*
X1642881Y1662642D01*
X1643127D01*
X1643291Y1662560D01*
X1643373D01*
X1645915Y1661740D01*
X1648212Y1660756D01*
X1650344Y1659772D01*
X1652148Y1658787D01*
X1652887Y1658295D01*
X1653625Y1657803D01*
X1654199Y1657475D01*
X1654691Y1657065D01*
X1655101Y1656819D01*
X1655429Y1656573D01*
X1655593Y1656491D01*
X1655675Y1656409D01*
X1657562Y1654769D01*
X1659202Y1652964D01*
X1660596Y1651242D01*
X1661826Y1649520D01*
X1662811Y1647961D01*
X1663139Y1647305D01*
X1663467Y1646731D01*
X1663713Y1646321D01*
X1663877Y1645993D01*
X1664041Y1645747D01*
Y1645665D01*
X1664451Y1644516D01*
X1664861Y1643532D01*
X1665025Y1642466D01*
X1665189Y1641564D01*
X1665271Y1639842D01*
X1665189Y1638365D01*
X1664943Y1637135D01*
X1664779Y1636725D01*
X1664615Y1636315D01*
X1664533Y1635987D01*
X1664369Y1635741D01*
X1664287Y1635659D01*
Y1635577D01*
X1663713Y1634839D01*
X1663139Y1634264D01*
X1661745Y1633280D01*
X1660186Y1632542D01*
X1658710Y1632050D01*
X1657316Y1631722D01*
X1656659Y1631640D01*
X1656167Y1631558D01*
X1655757Y1631476D01*
X1655101D01*
X1654363Y1631558D01*
X1653707Y1631640D01*
X1653215Y1631722D01*
X1653051D01*
X1652312Y1631804D01*
X1651656Y1631968D01*
X1651246Y1632050D01*
X1651082Y1632132D01*
X1649524Y1632706D01*
X1648868Y1633034D01*
X1648294Y1633362D01*
X1647802Y1633608D01*
X1647392Y1633854D01*
X1647146Y1633936D01*
X1647063Y1634018D01*
X1646489Y1634510D01*
X1645915Y1635085D01*
X1645505Y1635577D01*
X1645177Y1636151D01*
X1644849Y1636643D01*
X1644685Y1637053D01*
X1644521Y1637381D01*
Y1637463D01*
X1644275Y1638365D01*
Y1639103D01*
Y1639431D01*
Y1639677D01*
Y1639760D01*
Y1639842D01*
X1644357Y1640252D01*
X1644521Y1640662D01*
X1644849Y1641318D01*
X1645259Y1641728D01*
X1645341Y1641892D01*
X1645423D01*
X1645833Y1642220D01*
X1646161Y1642548D01*
X1646899Y1642876D01*
X1647392Y1643122D01*
X1648540D01*
X1649360Y1642958D01*
X1649688D01*
X1649934Y1642876D01*
X1650098Y1642794D01*
X1650180D01*
X1651082Y1642384D01*
X1651738Y1641974D01*
X1652231Y1641728D01*
X1652312Y1641564D01*
X1652395D01*
X1652969Y1640908D01*
X1653297Y1640170D01*
X1653379Y1639842D01*
Y1639595D01*
X1653461Y1639431D01*
Y1639350D01*
Y1638611D01*
X1653379Y1638119D01*
X1653297Y1637791D01*
X1653215Y1637709D01*
X1652887Y1637299D01*
X1652477Y1637053D01*
X1652148Y1636889D01*
X1651985D01*
X1651328Y1636807D01*
X1650836D01*
X1650508Y1636889D01*
X1650426Y1636971D01*
X1650016Y1637299D01*
X1649688Y1637709D01*
X1649524Y1638037D01*
X1649442Y1638201D01*
X1649196Y1638693D01*
X1649114Y1638857D01*
Y1638939D01*
X1648950Y1639431D01*
X1648786Y1639514D01*
Y1639595D01*
X1648622Y1639760D01*
X1648458Y1639842D01*
X1648294Y1639924D01*
X1648212D01*
X1647966Y1640006D01*
X1647802D01*
X1647638Y1639924D01*
X1647474Y1639842D01*
X1647310Y1639677D01*
X1647227Y1639595D01*
Y1639514D01*
X1647146Y1639267D01*
Y1639021D01*
Y1638939D01*
Y1638857D01*
X1647227Y1638365D01*
X1647310Y1638201D01*
Y1638119D01*
X1647556Y1637627D01*
X1647638Y1637463D01*
Y1637381D01*
X1648130Y1636643D01*
X1648704Y1636069D01*
X1649360Y1635495D01*
X1650016Y1635085D01*
X1650590Y1634756D01*
X1651082Y1634510D01*
X1651410Y1634429D01*
X1651492Y1634346D01*
X1652477Y1634018D01*
X1653379Y1633854D01*
X1654199Y1633772D01*
X1654855D01*
X1655511Y1633854D01*
X1655921Y1633936D01*
X1656249Y1634018D01*
X1656331D01*
X1657398Y1634510D01*
X1658136Y1635003D01*
X1658628Y1635413D01*
X1658710Y1635495D01*
X1658792Y1635577D01*
X1659284Y1636561D01*
X1659612Y1637463D01*
X1659694Y1637873D01*
X1659776Y1638201D01*
Y1638365D01*
Y1638447D01*
Y1639595D01*
X1659694Y1640662D01*
X1659612Y1640990D01*
Y1641318D01*
X1659530Y1641482D01*
Y1641564D01*
X1659202Y1642630D01*
X1658874Y1643532D01*
X1658710Y1643942D01*
X1658546Y1644189D01*
X1658464Y1644353D01*
Y1644435D01*
X1657398Y1646403D01*
X1656906Y1647305D01*
X1656413Y1648043D01*
X1656003Y1648699D01*
X1655675Y1649274D01*
X1655511Y1649602D01*
X1655429Y1649684D01*
X1654117Y1651488D01*
X1653461Y1652308D01*
X1652887Y1653046D01*
X1652312Y1653620D01*
X1651902Y1654030D01*
X1651656Y1654359D01*
X1651574Y1654440D01*
X1650262Y1655753D01*
X1649688Y1656327D01*
X1649114Y1656819D01*
X1648622Y1657229D01*
X1648212Y1657557D01*
X1647966Y1657721D01*
X1647884Y1657803D01*
X1646407Y1658787D01*
X1645669Y1659198D01*
X1644931Y1659526D01*
X1644357Y1659854D01*
X1643947Y1660018D01*
X1643619Y1660182D01*
X1643537D01*
X1643045Y1660346D01*
X1642553Y1660428D01*
X1642224Y1660510D01*
X1642142D01*
X1641568Y1660592D01*
X1641158Y1660674D01*
X1640666D01*
X1640174Y1660592D01*
X1639764Y1660510D01*
X1639518Y1660346D01*
X1639436Y1660264D01*
X1639108Y1659854D01*
X1638944Y1659444D01*
X1638862Y1659115D01*
Y1659034D01*
Y1658951D01*
Y1658459D01*
X1638944Y1657967D01*
X1639272Y1657065D01*
X1639518Y1656655D01*
X1639682Y1656409D01*
X1639764Y1656245D01*
X1639846Y1656163D01*
X1640256Y1655671D01*
X1640666Y1655261D01*
X1641076Y1654933D01*
X1641486Y1654769D01*
X1641814Y1654605D01*
X1642061Y1654523D01*
X1642224Y1654440D01*
X1643373D01*
X1643701Y1654605D01*
X1643865Y1654933D01*
X1643947Y1655261D01*
Y1655425D01*
X1644029Y1655753D01*
X1644111Y1655917D01*
X1644275Y1656245D01*
X1644521Y1656327D01*
X1645423D01*
X1645669Y1656245D01*
X1645751D01*
X1646161Y1656081D01*
X1646489Y1655753D01*
X1646653Y1655507D01*
X1646735Y1655425D01*
X1646899Y1654933D01*
X1646817Y1654523D01*
Y1654194D01*
X1646735Y1654113D01*
X1646243Y1653456D01*
X1645833Y1652964D01*
X1645505Y1652636D01*
X1645341Y1652554D01*
X1644685Y1652226D01*
X1644029Y1652062D01*
X1643455Y1651980D01*
X1643291D01*
X1642142Y1652062D01*
X1641076Y1652308D01*
X1640174Y1652636D01*
X1639354Y1653128D01*
X1638698Y1653538D01*
X1638288Y1653948D01*
X1637960Y1654194D01*
X1637878Y1654276D01*
X1637139Y1655179D01*
X1636565Y1655999D01*
X1636073Y1656737D01*
X1635745Y1657393D01*
X1635499Y1657967D01*
X1635335Y1658459D01*
X1635253Y1658705D01*
Y1658787D01*
X1635171Y1659279D01*
Y1659690D01*
X1635335Y1660428D01*
X1635581Y1660920D01*
X1635663Y1661002D01*
Y1661084D01*
X1636237Y1661740D01*
X1636893Y1662150D01*
X1637467Y1662314D01*
X1637632Y1662396D01*
X1637714D01*
X1638780Y1662560D01*
X1639682Y1662642D01*
X1640010D01*
X1640338Y1662724D01*
X1640584D01*
X1641650Y1662806D01*
X1642553Y1662724D01*
D02*
G37*
G36*
X1622951Y1652554D02*
X1623443Y1652308D01*
X1623853Y1652144D01*
X1623935Y1652062D01*
X1624427Y1651816D01*
X1624837Y1651570D01*
X1625165Y1651406D01*
X1625247Y1651324D01*
X1626969Y1650422D01*
X1627708Y1650012D01*
X1628446Y1649684D01*
X1629020Y1649355D01*
X1629512Y1649109D01*
X1629840Y1649027D01*
X1629922Y1648945D01*
X1630824Y1648535D01*
X1631644Y1648289D01*
X1632547Y1648043D01*
X1633285Y1647961D01*
X1634023Y1647879D01*
X1634515Y1647797D01*
X1635007D01*
X1635417Y1647715D01*
X1635745Y1647469D01*
X1635909Y1647223D01*
Y1647141D01*
X1635991Y1646731D01*
X1635827Y1646321D01*
X1635663Y1646075D01*
X1635581Y1645993D01*
X1635007Y1645665D01*
X1634761Y1645583D01*
X1634679Y1645501D01*
X1634269Y1645337D01*
X1633941Y1645255D01*
X1633695Y1645173D01*
X1633613D01*
X1633285Y1645091D01*
X1631316D01*
X1631808Y1644189D01*
X1632137Y1643450D01*
X1632464Y1642958D01*
X1632547Y1642876D01*
Y1642794D01*
X1632957Y1641974D01*
X1633285Y1641318D01*
X1633531Y1640826D01*
X1633613Y1640744D01*
Y1640662D01*
X1633859Y1639924D01*
X1634105Y1639267D01*
X1634269Y1638775D01*
X1634351Y1638693D01*
Y1638611D01*
X1634597Y1637873D01*
X1634761Y1637217D01*
X1634925Y1636725D01*
Y1636643D01*
Y1636561D01*
Y1635495D01*
X1634843Y1634675D01*
X1634761Y1634346D01*
X1634679Y1634100D01*
X1634597Y1633936D01*
Y1633854D01*
X1634023Y1633116D01*
X1633449Y1632624D01*
X1632957Y1632296D01*
X1632875Y1632214D01*
X1632793D01*
X1631890Y1631968D01*
X1631152Y1631804D01*
X1630824Y1631722D01*
X1630332D01*
X1629430Y1631804D01*
X1628692Y1631968D01*
X1628364Y1632050D01*
X1628118Y1632132D01*
X1628036Y1632214D01*
X1627954D01*
X1627133Y1632624D01*
X1626395Y1633116D01*
X1625821Y1633526D01*
X1625247Y1633936D01*
X1624755Y1634264D01*
X1624427Y1634592D01*
X1624263Y1634756D01*
X1624181Y1634839D01*
X1622951Y1636069D01*
X1621966Y1637217D01*
X1621556Y1637627D01*
X1621310Y1638037D01*
X1621146Y1638283D01*
X1621064Y1638365D01*
X1620818Y1638857D01*
X1620736Y1639021D01*
Y1639103D01*
X1620818Y1639431D01*
X1620982Y1639760D01*
X1621228Y1640006D01*
X1621310Y1640088D01*
X1621884Y1639595D01*
X1622048Y1639431D01*
X1622130Y1639350D01*
X1622705Y1638857D01*
X1622869Y1638693D01*
X1622951Y1638611D01*
X1623689Y1637955D01*
X1624345Y1637299D01*
X1624837Y1636889D01*
X1624919Y1636807D01*
X1625001Y1636725D01*
X1625821Y1636069D01*
X1626477Y1635495D01*
X1626969Y1635085D01*
X1627051Y1634921D01*
X1627133D01*
X1627625Y1634592D01*
X1628036Y1634346D01*
X1628364Y1634182D01*
X1628446Y1634100D01*
X1628692Y1634018D01*
X1629020Y1633936D01*
X1629512Y1634018D01*
X1629922Y1634100D01*
X1630004Y1634182D01*
X1630086D01*
X1630414Y1634510D01*
X1630578Y1634921D01*
X1630660Y1635249D01*
Y1635331D01*
X1630578Y1635987D01*
X1630414Y1636643D01*
X1630250Y1637135D01*
X1630168Y1637217D01*
Y1637299D01*
X1630004Y1637791D01*
X1629758Y1638201D01*
X1629676Y1638447D01*
X1629594Y1638529D01*
X1629430Y1639021D01*
X1629184Y1639431D01*
X1629102Y1639677D01*
X1629020Y1639760D01*
X1628446Y1640908D01*
X1627872Y1641892D01*
X1627708Y1642220D01*
X1627543Y1642548D01*
X1627379Y1642712D01*
Y1642794D01*
X1626805Y1643860D01*
X1626313Y1644845D01*
X1626067Y1645173D01*
X1625985Y1645501D01*
X1625821Y1645665D01*
Y1645747D01*
X1625165Y1646977D01*
X1624673Y1648125D01*
X1624427Y1648535D01*
X1624345Y1648863D01*
X1624181Y1649109D01*
Y1649191D01*
X1623525Y1650504D01*
X1622869Y1651652D01*
X1622623Y1652144D01*
X1622458Y1652554D01*
X1622377Y1652800D01*
X1622294Y1652882D01*
X1622951Y1652554D01*
D02*
G37*
G36*
X1605973Y1652472D02*
X1606137Y1652390D01*
X1606219D01*
X1607531Y1651570D01*
X1608598Y1650750D01*
X1609090Y1650504D01*
X1609418Y1650258D01*
X1609664Y1650094D01*
X1609746Y1650012D01*
X1610976Y1649191D01*
X1612124Y1648371D01*
X1612534Y1648125D01*
X1612863Y1647879D01*
X1613109Y1647715D01*
X1613191Y1647633D01*
Y1647551D01*
Y1647469D01*
Y1647223D01*
Y1647141D01*
Y1647059D01*
X1612780Y1647141D01*
X1612370D01*
X1612042Y1647223D01*
X1611468D01*
X1610976Y1647305D01*
X1610484D01*
X1610648Y1646895D01*
X1610812Y1646567D01*
X1610894Y1646403D01*
X1610976Y1646321D01*
X1611222Y1645829D01*
X1611304Y1645665D01*
X1611386Y1645583D01*
X1611878Y1644516D01*
X1612370Y1643614D01*
X1612534Y1643204D01*
X1612699Y1642958D01*
X1612780Y1642794D01*
Y1642712D01*
X1613273Y1641646D01*
X1613765Y1640744D01*
X1613929Y1640416D01*
X1614093Y1640088D01*
X1614175Y1639924D01*
Y1639842D01*
X1614503Y1639021D01*
X1614749Y1638365D01*
X1614913Y1637791D01*
X1614995Y1637709D01*
Y1637627D01*
X1615077Y1636807D01*
X1615159Y1636069D01*
X1615077Y1635495D01*
Y1635413D01*
Y1635331D01*
X1614913Y1634346D01*
X1614667Y1633608D01*
X1614421Y1633198D01*
X1614339Y1633034D01*
X1614093Y1632788D01*
X1613847Y1632542D01*
X1613191Y1632214D01*
X1612616Y1632050D01*
X1612453Y1631968D01*
X1612370D01*
X1611304Y1631804D01*
X1610320Y1631722D01*
X1609418D01*
X1608598Y1631804D01*
X1607942Y1631886D01*
X1607449Y1632050D01*
X1607121Y1632132D01*
X1607039D01*
X1606137Y1632460D01*
X1605235Y1632870D01*
X1604497Y1633280D01*
X1603759Y1633690D01*
X1603267Y1634100D01*
X1602775Y1634429D01*
X1602529Y1634675D01*
X1602446Y1634756D01*
X1601708Y1635331D01*
X1601052Y1635905D01*
X1600642Y1636397D01*
X1600560Y1636479D01*
X1600478Y1636561D01*
X1599822Y1637299D01*
X1599248Y1637955D01*
X1598838Y1638447D01*
X1598674Y1638529D01*
Y1638611D01*
X1598264Y1639021D01*
X1597935Y1639267D01*
X1597690Y1639350D01*
X1597608Y1639431D01*
X1597115Y1639514D01*
X1596623Y1639595D01*
X1596295Y1639514D01*
X1596131D01*
X1595557Y1639431D01*
X1595065D01*
X1594245Y1639514D01*
X1593917Y1639595D01*
X1593671Y1639677D01*
X1593507Y1639760D01*
X1593425D01*
X1592522Y1640334D01*
X1591866Y1640908D01*
X1591374Y1641400D01*
X1591292Y1641564D01*
X1591210Y1641646D01*
X1592030Y1641810D01*
X1592769D01*
X1593261Y1641728D01*
X1593343Y1641646D01*
X1593425D01*
X1593835Y1641564D01*
X1594245D01*
X1594901Y1641728D01*
X1595393Y1641974D01*
X1595475Y1642138D01*
X1595557D01*
X1595311Y1642794D01*
X1595065Y1643368D01*
X1594983Y1643778D01*
X1594901Y1643942D01*
X1594655Y1644599D01*
X1594491Y1645091D01*
X1594327Y1645501D01*
Y1645665D01*
X1594163Y1646321D01*
X1593999Y1646813D01*
X1593917Y1647223D01*
Y1647387D01*
X1593835Y1648043D01*
X1593753Y1648617D01*
Y1649027D01*
Y1649191D01*
Y1649848D01*
X1593835Y1650422D01*
X1593917Y1650750D01*
Y1650914D01*
X1594245Y1651406D01*
X1594655Y1651816D01*
X1594983Y1652062D01*
X1595065Y1652144D01*
X1595147D01*
X1595721Y1652308D01*
X1596213D01*
X1596541Y1652226D01*
X1596705Y1652144D01*
X1597197Y1651898D01*
X1597608Y1651652D01*
X1597935Y1651406D01*
X1598018Y1651324D01*
X1598674Y1650750D01*
X1599248Y1650094D01*
X1599740Y1649520D01*
X1600068Y1648945D01*
X1600314Y1648453D01*
X1600478Y1648043D01*
X1600560Y1647797D01*
Y1647715D01*
X1600724Y1646977D01*
Y1646239D01*
Y1645501D01*
Y1644845D01*
X1600642Y1644270D01*
X1600560Y1643860D01*
X1600478Y1643532D01*
Y1643450D01*
X1600396Y1642958D01*
X1600314Y1642466D01*
Y1642138D01*
Y1642056D01*
X1600396Y1641646D01*
X1600560Y1641236D01*
X1600724Y1640908D01*
X1600806Y1640826D01*
X1602036Y1639350D01*
X1602693Y1638693D01*
X1603267Y1638119D01*
X1603759Y1637709D01*
X1604169Y1637381D01*
X1604415Y1637135D01*
X1604497Y1637053D01*
X1606055Y1635905D01*
X1606793Y1635331D01*
X1607449Y1634921D01*
X1607942Y1634510D01*
X1608352Y1634182D01*
X1608680Y1634018D01*
X1608762Y1633936D01*
X1608844Y1633854D01*
X1608926D01*
X1609008Y1633772D01*
X1609500Y1633690D01*
X1609910Y1633772D01*
X1610156Y1633854D01*
X1610238Y1633936D01*
X1610566Y1634264D01*
X1610730Y1634675D01*
Y1635003D01*
Y1635167D01*
X1610648Y1635577D01*
Y1635741D01*
Y1635823D01*
X1610566Y1636397D01*
X1610484Y1636561D01*
Y1636643D01*
X1610074Y1637709D01*
X1609664Y1638529D01*
X1609582Y1638939D01*
X1609418Y1639185D01*
X1609336Y1639350D01*
Y1639431D01*
X1608926Y1640498D01*
X1608516Y1641400D01*
X1608352Y1641810D01*
X1608188Y1642056D01*
X1608106Y1642220D01*
Y1642302D01*
X1607367Y1643860D01*
X1607039Y1644599D01*
X1606711Y1645173D01*
X1606465Y1645747D01*
X1606301Y1646157D01*
X1606219Y1646403D01*
X1606137Y1646485D01*
X1605399Y1648043D01*
X1605071Y1648781D01*
X1604825Y1649438D01*
X1604579Y1649930D01*
X1604415Y1650422D01*
X1604251Y1650668D01*
Y1650750D01*
Y1651324D01*
Y1651488D01*
Y1651570D01*
X1604333Y1651898D01*
X1604415Y1652144D01*
X1604497Y1652308D01*
X1604579D01*
X1604825Y1652472D01*
X1605071Y1652554D01*
X1605727D01*
X1605973Y1652472D01*
D02*
G37*
G36*
X1643045Y1624422D02*
X1644111Y1624258D01*
X1644521Y1624094D01*
X1644849Y1624012D01*
X1645013Y1623930D01*
X1645095D01*
X1646079Y1623356D01*
X1646899Y1622782D01*
X1647227Y1622454D01*
X1647474Y1622290D01*
X1647638Y1622126D01*
X1647720Y1622044D01*
X1648048Y1621634D01*
X1648294Y1621306D01*
X1648458Y1621060D01*
X1648540Y1620978D01*
X1648786Y1620568D01*
X1649032Y1620158D01*
X1649114Y1619830D01*
X1649196Y1619747D01*
X1649360Y1619337D01*
X1649442Y1618927D01*
Y1618599D01*
Y1618517D01*
X1649360Y1618107D01*
X1649114Y1617779D01*
X1648868Y1617615D01*
X1648786Y1617533D01*
X1648540D01*
X1648212Y1617615D01*
X1647966Y1617697D01*
X1647884Y1617779D01*
X1647474Y1617943D01*
X1647146Y1618189D01*
X1646982Y1618271D01*
X1646899Y1618353D01*
X1646489Y1618681D01*
X1646325Y1618763D01*
Y1618845D01*
X1645915Y1619255D01*
X1645833Y1619419D01*
X1645751D01*
X1645259Y1619747D01*
X1645095Y1619830D01*
X1645013D01*
X1644439Y1620076D01*
X1644275Y1620158D01*
X1644193D01*
X1643701Y1620240D01*
X1643373Y1620158D01*
X1643209Y1620076D01*
X1643127Y1619994D01*
X1642881Y1619666D01*
Y1619255D01*
Y1619009D01*
Y1618845D01*
X1643127Y1618271D01*
X1643209Y1618107D01*
X1643291Y1618025D01*
X1643619Y1617533D01*
X1643701Y1617369D01*
X1643783Y1617287D01*
X1644357Y1616549D01*
X1644849Y1615975D01*
X1645177Y1615483D01*
X1645341Y1615401D01*
Y1615319D01*
X1645833Y1614662D01*
X1646325Y1614006D01*
X1646653Y1613596D01*
X1646735Y1613514D01*
Y1613432D01*
X1647720Y1611956D01*
X1648212Y1611218D01*
X1648622Y1610644D01*
X1649032Y1610070D01*
X1649278Y1609659D01*
X1649442Y1609413D01*
X1649524Y1609331D01*
X1650508Y1607855D01*
X1651000Y1607199D01*
X1651328Y1606543D01*
X1651656Y1606051D01*
X1651902Y1605559D01*
X1652066Y1605313D01*
X1652148Y1605231D01*
X1652887Y1603836D01*
X1653133Y1603098D01*
X1653379Y1602524D01*
X1653543Y1601950D01*
X1653707Y1601540D01*
X1653789Y1601294D01*
Y1601212D01*
X1654199Y1599736D01*
X1654363Y1598997D01*
X1654445Y1598423D01*
X1654527Y1597849D01*
X1654609Y1597439D01*
X1654691Y1597193D01*
Y1597111D01*
X1654527Y1595881D01*
X1654281Y1594814D01*
X1653871Y1593830D01*
X1653461Y1593092D01*
X1652969Y1592518D01*
X1652641Y1592026D01*
X1652312Y1591780D01*
X1652231Y1591698D01*
X1651738Y1591370D01*
X1651246Y1591206D01*
X1650180Y1590960D01*
X1649196D01*
X1648212Y1591124D01*
X1647310Y1591370D01*
X1646653Y1591616D01*
X1646161Y1591862D01*
X1645997Y1591944D01*
X1644603Y1592846D01*
X1643947Y1593256D01*
X1643455Y1593666D01*
X1643045Y1594076D01*
X1642635Y1594322D01*
X1642471Y1594486D01*
X1642388Y1594568D01*
X1641158Y1595799D01*
X1640092Y1596865D01*
X1639682Y1597275D01*
X1639354Y1597603D01*
X1639190Y1597849D01*
X1639108Y1597931D01*
X1638862Y1598341D01*
X1638616Y1598669D01*
X1638534Y1598915D01*
X1638452Y1598997D01*
Y1599407D01*
X1638616Y1599818D01*
X1638780Y1600063D01*
X1638862Y1600146D01*
X1639272Y1600474D01*
X1639682Y1600556D01*
X1640092D01*
X1640584Y1600392D01*
X1640912Y1600146D01*
X1641240Y1599982D01*
X1641322Y1599899D01*
X1641650Y1599489D01*
X1641978Y1599161D01*
X1642224Y1598915D01*
X1642307Y1598833D01*
X1642717Y1598423D01*
X1643045Y1598095D01*
X1643209Y1597849D01*
X1643291Y1597767D01*
X1644029Y1597029D01*
X1644603Y1596373D01*
X1645095Y1595963D01*
X1645177Y1595881D01*
X1645259Y1595799D01*
X1645997Y1595224D01*
X1646735Y1594814D01*
X1647063Y1594732D01*
X1647310Y1594650D01*
X1647474Y1594568D01*
X1647556D01*
X1648376Y1594486D01*
X1648950D01*
X1649278Y1594568D01*
X1649360Y1594650D01*
X1649688Y1595143D01*
X1649852Y1595635D01*
Y1596127D01*
Y1596209D01*
Y1596291D01*
X1649688Y1597029D01*
X1649606Y1597685D01*
X1649442Y1598177D01*
Y1598259D01*
Y1598341D01*
X1649196Y1599079D01*
X1648868Y1599653D01*
X1648704Y1600063D01*
X1648622Y1600228D01*
X1647802Y1601704D01*
X1647063Y1603098D01*
X1646325Y1604410D01*
X1645669Y1605559D01*
X1645095Y1606543D01*
X1644685Y1607363D01*
X1644357Y1607855D01*
X1644275Y1607937D01*
Y1608019D01*
X1643455Y1609495D01*
X1642635Y1610890D01*
X1641814Y1612120D01*
X1641158Y1613350D01*
X1640584Y1614334D01*
X1640174Y1615073D01*
X1639846Y1615565D01*
X1639764Y1615647D01*
Y1615729D01*
X1639436Y1616385D01*
X1639108Y1616959D01*
X1638862Y1617369D01*
X1638780Y1617533D01*
X1638452Y1618189D01*
X1638206Y1618845D01*
X1638042Y1619255D01*
X1637960Y1619337D01*
Y1619419D01*
X1637714Y1620240D01*
X1637632Y1620978D01*
X1637714Y1621634D01*
X1637796Y1622208D01*
X1637960Y1622618D01*
X1638124Y1622946D01*
X1638206Y1623110D01*
X1638288Y1623192D01*
X1638780Y1623684D01*
X1639272Y1624012D01*
X1639928Y1624258D01*
X1640502Y1624422D01*
X1640994Y1624505D01*
X1641486Y1624586D01*
X1641896D01*
X1643045Y1624422D01*
D02*
G37*
G36*
X1511080Y1622372D02*
X1511736Y1621880D01*
X1512310Y1621388D01*
X1512802Y1621060D01*
X1513212Y1620814D01*
X1513458Y1620650D01*
X1513540Y1620568D01*
X1514935Y1619583D01*
X1515591Y1619091D01*
X1516165Y1618681D01*
X1516575Y1618271D01*
X1516985Y1618025D01*
X1517231Y1617861D01*
X1517313Y1617779D01*
X1516821Y1617615D01*
X1516493Y1617533D01*
X1516247Y1617451D01*
X1516165D01*
X1515755Y1617369D01*
X1515427Y1617205D01*
X1515181Y1617123D01*
X1515099D01*
X1515591Y1616467D01*
X1516001Y1615975D01*
X1516329Y1615647D01*
X1516411Y1615483D01*
X1516903Y1614908D01*
X1517231Y1614416D01*
X1517559Y1614088D01*
X1517641Y1614006D01*
X1517559Y1613924D01*
X1517477D01*
X1517395Y1613842D01*
Y1613760D01*
X1515837Y1614580D01*
X1515181Y1614991D01*
X1514525Y1615401D01*
X1514033Y1615729D01*
X1513540Y1615893D01*
X1513294Y1616057D01*
X1513212Y1616139D01*
X1511654Y1617041D01*
X1510916Y1617451D01*
X1510260Y1617861D01*
X1509686Y1618189D01*
X1509276Y1618435D01*
X1508947Y1618599D01*
X1508866Y1618681D01*
X1509440Y1618763D01*
X1509850Y1618845D01*
X1510096Y1618927D01*
X1510178D01*
X1510588Y1619009D01*
X1510916Y1619091D01*
X1511244Y1619173D01*
X1511326D01*
X1510998Y1619911D01*
X1510670Y1620568D01*
X1510506Y1621060D01*
X1510424Y1621142D01*
Y1621224D01*
X1510096Y1621962D01*
X1509850Y1622700D01*
X1509686Y1623274D01*
X1509604Y1623356D01*
Y1623438D01*
X1511080Y1622372D01*
D02*
G37*
G36*
X1544953Y1611464D02*
X1545035Y1611382D01*
X1545281Y1611136D01*
X1545363Y1611054D01*
X1546593Y1609906D01*
X1547741Y1609003D01*
X1548152Y1608675D01*
X1548562Y1608429D01*
X1548808Y1608347D01*
X1548890Y1608265D01*
X1550284Y1607527D01*
X1550940Y1607199D01*
X1551514Y1606953D01*
X1552006Y1606625D01*
X1552416Y1606461D01*
X1552662Y1606379D01*
X1552744Y1606297D01*
X1553073Y1606133D01*
X1553154Y1606051D01*
X1553401Y1605887D01*
X1553483Y1605805D01*
X1553401Y1605723D01*
Y1605641D01*
Y1605559D01*
Y1605477D01*
X1552498Y1605723D01*
X1551760Y1605887D01*
X1551432Y1605969D01*
X1551186Y1606051D01*
X1551022D01*
X1550120Y1606297D01*
X1549218Y1606543D01*
X1548890Y1606625D01*
X1548562D01*
X1548398Y1606707D01*
X1548315D01*
X1549218Y1605231D01*
X1549956Y1603836D01*
X1550694Y1602524D01*
X1551350Y1601376D01*
X1551924Y1600392D01*
X1552334Y1599653D01*
X1552580Y1599161D01*
X1552662Y1599079D01*
Y1598997D01*
X1553401Y1597603D01*
X1554139Y1596209D01*
X1554795Y1594978D01*
X1555369Y1593830D01*
X1555861Y1592846D01*
X1556189Y1592108D01*
X1556435Y1591616D01*
X1556517Y1591534D01*
Y1591452D01*
X1555533Y1591370D01*
X1554139D01*
X1553647Y1591452D01*
X1553318Y1591534D01*
X1553073D01*
X1552908Y1591616D01*
X1552580Y1591780D01*
X1552252Y1592108D01*
X1551678Y1592928D01*
X1551514Y1593338D01*
X1551350Y1593666D01*
X1551186Y1593912D01*
Y1593994D01*
X1550448Y1595553D01*
X1549710Y1596947D01*
X1548890Y1598177D01*
X1548152Y1599243D01*
X1547495Y1600146D01*
X1546921Y1600802D01*
X1546593Y1601212D01*
X1546429Y1601376D01*
X1545281Y1602524D01*
X1544133Y1603508D01*
X1543066Y1604410D01*
X1542000Y1605231D01*
X1541098Y1605969D01*
X1540442Y1606461D01*
X1539950Y1606789D01*
X1539786Y1606871D01*
X1539376Y1607117D01*
X1538966Y1607281D01*
X1538638Y1607445D01*
X1538555D01*
X1538063Y1607609D01*
X1537653Y1607773D01*
X1537325Y1607937D01*
X1537243D01*
X1536915Y1608019D01*
X1536587D01*
X1536341Y1607937D01*
X1536259D01*
X1535931Y1607773D01*
X1535685Y1607527D01*
X1535603Y1607281D01*
X1535521Y1607199D01*
X1535357Y1606707D01*
Y1606461D01*
Y1606379D01*
Y1606051D01*
X1535439Y1605805D01*
X1535521Y1605641D01*
Y1605559D01*
X1535685Y1605231D01*
X1535931Y1605067D01*
X1536177D01*
X1536751Y1605149D01*
X1536997Y1605231D01*
X1537817D01*
X1538474Y1605149D01*
X1538802Y1605067D01*
X1538966Y1604984D01*
X1539376Y1604657D01*
X1539622Y1604328D01*
X1539704Y1604000D01*
Y1603918D01*
X1539622Y1603262D01*
X1539458Y1602770D01*
X1539212Y1602442D01*
X1539130Y1602360D01*
X1538555Y1601950D01*
X1537981Y1601704D01*
X1537571Y1601540D01*
X1536587D01*
X1536095Y1601622D01*
X1535931Y1601704D01*
X1535849D01*
X1535275Y1601950D01*
X1534783Y1602196D01*
X1533963Y1602852D01*
X1533634Y1603098D01*
X1533389Y1603344D01*
X1533306Y1603508D01*
X1533224Y1603590D01*
X1532896Y1604082D01*
X1532568Y1604574D01*
X1532240Y1605559D01*
X1532158Y1605887D01*
X1532076Y1606215D01*
Y1606379D01*
Y1606461D01*
X1532158Y1607445D01*
X1532322Y1608101D01*
X1532568Y1608593D01*
X1532650Y1608757D01*
X1533224Y1609331D01*
X1533881Y1609659D01*
X1534455Y1609823D01*
X1534619Y1609906D01*
X1534701D01*
X1535275Y1609987D01*
X1536833D01*
X1537325Y1609906D01*
X1537653Y1609823D01*
X1537817D01*
X1539048Y1609413D01*
X1540114Y1609003D01*
X1540606Y1608839D01*
X1540934Y1608675D01*
X1541098Y1608593D01*
X1541180D01*
X1542328Y1608101D01*
X1543394Y1607609D01*
X1543805Y1607445D01*
X1544133Y1607281D01*
X1544379Y1607199D01*
X1544461D01*
X1544215Y1607773D01*
X1543969Y1608265D01*
X1543887Y1608593D01*
X1543805Y1608675D01*
X1543559Y1609249D01*
X1543313Y1609659D01*
X1543230Y1609987D01*
X1543148Y1610152D01*
Y1610562D01*
Y1610726D01*
Y1610808D01*
X1543230Y1611054D01*
X1543313Y1611218D01*
X1543394Y1611382D01*
X1543559Y1611464D01*
X1543723Y1611546D01*
X1544625D01*
X1544953Y1611464D01*
D02*
G37*
G36*
X1559962Y1622126D02*
X1560044D01*
X1560372Y1622044D01*
X1560618Y1621880D01*
X1560782Y1621798D01*
X1560864Y1621716D01*
X1561356Y1621306D01*
X1561438Y1621224D01*
X1561520Y1621142D01*
X1561930Y1620650D01*
X1562258Y1620240D01*
X1562422Y1619911D01*
X1562504Y1619830D01*
X1562914Y1619255D01*
X1563161Y1618845D01*
X1563324Y1618517D01*
X1563407Y1618353D01*
X1563817Y1617779D01*
X1564145Y1617369D01*
X1564391Y1617123D01*
X1564473Y1617041D01*
X1564965Y1616877D01*
X1565539Y1616795D01*
X1565949Y1616713D01*
X1567179D01*
X1567507Y1616631D01*
X1567671D01*
X1568246Y1616467D01*
X1568738Y1616303D01*
X1569066Y1616221D01*
X1569230Y1616139D01*
X1569476Y1616057D01*
X1569558Y1615811D01*
X1569722Y1615647D01*
Y1615565D01*
X1570050Y1614991D01*
X1570132Y1614827D01*
Y1614745D01*
X1569722Y1614498D01*
X1569640Y1614416D01*
X1569558D01*
X1569066Y1614252D01*
X1568984Y1614170D01*
X1568902D01*
X1568327Y1614088D01*
X1567917D01*
X1567589Y1614006D01*
X1566113D01*
X1565621Y1613924D01*
X1565457D01*
X1566195Y1613022D01*
X1566769Y1612284D01*
X1567097Y1611710D01*
X1567261Y1611628D01*
Y1611546D01*
X1567835Y1610726D01*
X1568327Y1610152D01*
X1568656Y1609742D01*
X1568820Y1609577D01*
X1569476Y1608921D01*
X1570132Y1608429D01*
X1570624Y1608101D01*
X1570706Y1607937D01*
X1570788D01*
X1571526Y1607445D01*
X1572100Y1606953D01*
X1572592Y1606625D01*
X1572674Y1606543D01*
X1572756D01*
X1573495Y1606133D01*
X1574151Y1605805D01*
X1574725Y1605559D01*
X1574807Y1605477D01*
X1574889D01*
X1575709Y1605149D01*
X1576365Y1604821D01*
X1576857Y1604574D01*
X1576939Y1604492D01*
X1577021D01*
X1576939Y1604328D01*
Y1604246D01*
X1576857Y1604164D01*
X1576775Y1604082D01*
X1575709Y1604328D01*
X1574725Y1604574D01*
X1574315Y1604657D01*
X1573987Y1604738D01*
X1573823Y1604821D01*
X1573741D01*
X1572592Y1605067D01*
X1571608Y1605395D01*
X1571198Y1605477D01*
X1570870Y1605559D01*
X1570624Y1605641D01*
X1570542D01*
X1571116Y1604328D01*
X1571444Y1603672D01*
X1571690Y1603180D01*
X1571854Y1602770D01*
X1572018Y1602442D01*
X1572182Y1602196D01*
Y1602114D01*
X1572674Y1600802D01*
X1573085Y1599736D01*
X1573248Y1599243D01*
X1573413Y1598915D01*
X1573495Y1598669D01*
Y1598587D01*
X1573741Y1597767D01*
X1573905Y1597111D01*
X1574069Y1596619D01*
Y1596537D01*
Y1596455D01*
X1574151Y1595635D01*
X1574233Y1594897D01*
Y1594322D01*
Y1594240D01*
Y1594158D01*
Y1593666D01*
X1574069Y1593174D01*
X1573741Y1592354D01*
X1573495Y1592026D01*
X1573331Y1591780D01*
X1573248Y1591698D01*
X1573167Y1591616D01*
X1572756Y1591288D01*
X1572346Y1591124D01*
X1571608Y1590796D01*
X1571280D01*
X1571034Y1590714D01*
X1570460D01*
X1569640Y1590796D01*
X1568902Y1590960D01*
X1568327Y1591042D01*
X1568246Y1591124D01*
X1568163D01*
X1567343Y1591452D01*
X1566687Y1591862D01*
X1566195Y1592108D01*
X1566113Y1592272D01*
X1566031D01*
X1565047Y1593092D01*
X1564309Y1593912D01*
X1563981Y1594240D01*
X1563735Y1594404D01*
X1563653Y1594568D01*
X1563571Y1594650D01*
X1562832Y1595717D01*
X1562258Y1596619D01*
X1562094Y1597029D01*
X1561930Y1597357D01*
X1561766Y1597521D01*
Y1597603D01*
X1561602Y1598095D01*
X1561520Y1598177D01*
Y1598259D01*
X1561438Y1598751D01*
X1561356Y1598833D01*
Y1598915D01*
X1561520Y1598997D01*
X1561602Y1599079D01*
X1561684Y1599161D01*
X1561766D01*
X1562340Y1598505D01*
X1562832Y1597931D01*
X1563161Y1597521D01*
X1563324Y1597439D01*
Y1597357D01*
X1563981Y1596701D01*
X1564555Y1596127D01*
X1564883Y1595717D01*
X1565047Y1595553D01*
X1565539Y1595060D01*
X1565949Y1594732D01*
X1566277Y1594404D01*
X1566441Y1594322D01*
X1566933Y1593912D01*
X1567425Y1593666D01*
X1567753Y1593502D01*
X1567917Y1593420D01*
X1568246Y1593256D01*
X1568574Y1593174D01*
X1569148D01*
X1569476Y1593256D01*
X1569640Y1593338D01*
X1569886Y1593502D01*
X1570050Y1593748D01*
X1570214Y1594240D01*
Y1594732D01*
Y1594814D01*
Y1594897D01*
X1570132Y1595471D01*
X1569968Y1595881D01*
X1569886Y1596209D01*
X1569804Y1596373D01*
X1569558Y1596947D01*
X1569394Y1597357D01*
X1569230Y1597685D01*
X1569148Y1597849D01*
X1568410Y1599407D01*
X1568082Y1600146D01*
X1567753Y1600720D01*
X1567507Y1601294D01*
X1567261Y1601704D01*
X1567179Y1601950D01*
X1567097Y1602032D01*
X1566277Y1603508D01*
X1565949Y1604246D01*
X1565621Y1604821D01*
X1565375Y1605395D01*
X1565129Y1605805D01*
X1565047Y1606051D01*
X1564965Y1606133D01*
X1564309Y1607363D01*
X1563735Y1608347D01*
X1563571Y1608757D01*
X1563407Y1609085D01*
X1563242Y1609249D01*
Y1609331D01*
X1562586Y1610562D01*
X1562094Y1611628D01*
X1561848Y1612038D01*
X1561766Y1612366D01*
X1561602Y1612530D01*
Y1612612D01*
X1561274Y1613186D01*
X1560946Y1613596D01*
X1560700Y1613842D01*
X1560618Y1613924D01*
X1560044Y1614170D01*
X1559552Y1614252D01*
X1558978D01*
X1558403Y1614170D01*
X1557501D01*
X1556927Y1614252D01*
X1555943D01*
X1555451Y1614334D01*
X1555123Y1614416D01*
X1554877Y1614498D01*
X1554795D01*
X1554467Y1614745D01*
X1554303Y1615155D01*
X1554221Y1615401D01*
Y1615565D01*
X1554303Y1616057D01*
X1554549Y1616303D01*
X1554713Y1616467D01*
X1554795Y1616549D01*
X1555205Y1616631D01*
X1555533Y1616713D01*
X1555779Y1616795D01*
X1555861D01*
X1556435Y1616877D01*
X1556927D01*
X1557255Y1616959D01*
X1557419D01*
X1557993Y1617041D01*
X1558568D01*
X1558978Y1617123D01*
X1559142D01*
X1558978Y1617533D01*
X1558814Y1617779D01*
X1558732Y1617943D01*
Y1618025D01*
X1558568Y1618517D01*
X1558486Y1618599D01*
Y1618681D01*
X1558239Y1619173D01*
X1558158Y1619337D01*
Y1619419D01*
X1557993Y1619911D01*
X1557911Y1620076D01*
Y1620158D01*
Y1620896D01*
X1558076Y1621470D01*
X1558322Y1621798D01*
X1558403Y1621880D01*
X1558650Y1622044D01*
X1558896Y1622126D01*
X1559470Y1622208D01*
X1559880D01*
X1559962Y1622126D01*
D02*
G37*
G36*
X1660760Y1624340D02*
X1662155Y1624176D01*
X1663549Y1623930D01*
X1664779Y1623602D01*
X1665763Y1623274D01*
X1666665Y1622946D01*
X1667322Y1622618D01*
X1667732Y1622454D01*
X1667896Y1622372D01*
X1669044Y1621716D01*
X1670192Y1620978D01*
X1671176Y1620240D01*
X1672079Y1619583D01*
X1672817Y1618927D01*
X1673391Y1618435D01*
X1673719Y1618107D01*
X1673883Y1618025D01*
X1674457Y1617369D01*
X1674949Y1616713D01*
X1675277Y1616221D01*
X1675359Y1616057D01*
Y1615975D01*
X1675851Y1615155D01*
X1676179Y1614417D01*
X1676507Y1613842D01*
X1676590Y1613760D01*
Y1613678D01*
X1676671Y1613268D01*
X1676754Y1612776D01*
Y1612530D01*
Y1612366D01*
Y1611874D01*
Y1611464D01*
X1676671Y1611136D01*
Y1611054D01*
X1676507Y1610398D01*
Y1609906D01*
X1676590Y1609577D01*
X1676671Y1609496D01*
X1677000Y1609249D01*
X1677410Y1609003D01*
X1677738Y1608839D01*
X1677820Y1608757D01*
X1677902D01*
X1679050Y1608265D01*
X1680034Y1607691D01*
X1680444Y1607445D01*
X1680772Y1607281D01*
X1680936Y1607199D01*
X1681018Y1607117D01*
X1682085Y1606379D01*
X1682905Y1605641D01*
X1683233Y1605313D01*
X1683397Y1605067D01*
X1683561Y1604902D01*
X1683643Y1604821D01*
X1684217Y1604164D01*
X1684709Y1603426D01*
X1685037Y1602770D01*
X1685365Y1602032D01*
X1685775Y1600720D01*
X1685939Y1599572D01*
Y1598505D01*
Y1597767D01*
X1685857Y1597439D01*
X1685775Y1597193D01*
Y1597111D01*
Y1597029D01*
X1685529Y1596291D01*
X1685201Y1595717D01*
X1684299Y1594568D01*
X1683315Y1593666D01*
X1682331Y1592928D01*
X1681346Y1592436D01*
X1680526Y1592026D01*
X1680198Y1591944D01*
X1679952Y1591862D01*
X1679870Y1591780D01*
X1679788D01*
X1679050Y1591534D01*
X1678394Y1591452D01*
X1677902Y1591288D01*
X1677738D01*
X1677000Y1591124D01*
X1676425Y1591042D01*
X1676015Y1590960D01*
X1675851Y1590960D01*
X1674785Y1590878D01*
X1673883Y1590960D01*
X1672981D01*
X1672161Y1591042D01*
X1671504Y1591206D01*
X1671012Y1591288D01*
X1670684Y1591370D01*
X1670602D01*
X1669700Y1591698D01*
X1668880Y1592026D01*
X1668060Y1592436D01*
X1667404Y1592846D01*
X1666830Y1593174D01*
X1666419Y1593502D01*
X1666173Y1593666D01*
X1666091Y1593748D01*
X1665435Y1594404D01*
X1664943Y1595060D01*
X1664615Y1595717D01*
X1664451Y1596291D01*
X1664369Y1596783D01*
X1664287Y1597275D01*
Y1597521D01*
Y1597603D01*
X1664451Y1598423D01*
X1664697Y1599161D01*
X1665107Y1599818D01*
X1665517Y1600310D01*
X1665845Y1600720D01*
X1666173Y1601048D01*
X1666419Y1601212D01*
X1666501Y1601294D01*
X1667240Y1601704D01*
X1667978Y1601950D01*
X1668634Y1602196D01*
X1669290Y1602278D01*
X1669864Y1602360D01*
X1670684D01*
X1671504Y1602196D01*
X1672243Y1601950D01*
X1672899Y1601704D01*
X1673473Y1601376D01*
X1673883Y1601048D01*
X1674293Y1600802D01*
X1674457Y1600638D01*
X1674539Y1600556D01*
X1674867Y1600228D01*
X1675113Y1599818D01*
X1675441Y1599243D01*
X1675605Y1598751D01*
Y1598669D01*
Y1598587D01*
Y1598259D01*
Y1597931D01*
X1675359Y1597439D01*
X1675113Y1597029D01*
X1675031Y1596947D01*
X1674457Y1596619D01*
X1673965Y1596455D01*
X1673555Y1596373D01*
X1673391D01*
X1672653Y1596537D01*
X1672079Y1596865D01*
X1671669Y1597111D01*
X1671504Y1597275D01*
X1671176Y1597685D01*
X1671012Y1597849D01*
Y1597931D01*
X1670602Y1598341D01*
X1670520Y1598423D01*
X1670438D01*
X1670028Y1598505D01*
X1669700Y1598587D01*
X1669454Y1598669D01*
X1668798D01*
X1668634Y1598587D01*
X1668552D01*
X1668306Y1598341D01*
X1668142Y1598095D01*
X1668060Y1597849D01*
Y1597767D01*
Y1597357D01*
Y1597029D01*
X1668142Y1596865D01*
Y1596783D01*
X1668306Y1596291D01*
X1668552Y1595963D01*
X1668716Y1595635D01*
X1668798Y1595553D01*
X1669126Y1595143D01*
X1669454Y1594814D01*
X1669700Y1594568D01*
X1669782Y1594486D01*
X1670684Y1593994D01*
X1671586Y1593666D01*
X1671915Y1593584D01*
X1672161D01*
X1672325Y1593502D01*
X1672407D01*
X1673473Y1593338D01*
X1675277D01*
X1676097Y1593420D01*
X1676835Y1593666D01*
X1677492Y1593912D01*
X1677984Y1594158D01*
X1678394Y1594486D01*
X1678722Y1594733D01*
X1678886Y1594897D01*
X1678968Y1594978D01*
X1679378Y1595635D01*
X1679706Y1596291D01*
X1679952Y1596947D01*
X1680034Y1597603D01*
X1680116Y1598177D01*
Y1598587D01*
Y1598915D01*
Y1598997D01*
X1679870Y1600392D01*
X1679624Y1600966D01*
X1679460Y1601458D01*
X1679296Y1601868D01*
X1679132Y1602196D01*
X1678968Y1602360D01*
Y1602442D01*
X1678230Y1603508D01*
X1677410Y1604410D01*
X1677164Y1604738D01*
X1676918Y1604984D01*
X1676754Y1605067D01*
X1676671Y1605149D01*
X1675769Y1605805D01*
X1674949Y1606215D01*
X1674703Y1606379D01*
X1674457Y1606461D01*
X1674293Y1606543D01*
X1674211D01*
X1673719Y1606625D01*
X1673227D01*
X1672243Y1606461D01*
X1671832Y1606379D01*
X1671504Y1606297D01*
X1671340Y1606133D01*
X1671258D01*
X1670356Y1605723D01*
X1669536Y1605559D01*
X1669208Y1605477D01*
X1667732D01*
X1666911Y1605641D01*
X1666665Y1605723D01*
X1666419Y1605805D01*
X1666255Y1605887D01*
X1666173D01*
X1665763Y1606051D01*
X1665517Y1606297D01*
X1665107Y1606707D01*
X1664861Y1607035D01*
Y1607199D01*
Y1607527D01*
X1664943Y1607773D01*
X1665353Y1608347D01*
X1665681Y1608675D01*
X1665763Y1608839D01*
X1665845D01*
X1666419Y1609167D01*
X1666583Y1609331D01*
X1666665D01*
X1667076Y1609577D01*
X1667486Y1609742D01*
X1667732Y1609906D01*
X1667896Y1609987D01*
X1667404Y1610234D01*
X1666994Y1610398D01*
X1666747Y1610562D01*
X1666665D01*
X1666091Y1610890D01*
X1665845Y1610972D01*
X1665763D01*
X1664615Y1611546D01*
X1663549Y1612038D01*
X1663139Y1612284D01*
X1662811Y1612366D01*
X1662647Y1612530D01*
X1662565D01*
X1661416Y1613104D01*
X1660350Y1613678D01*
X1660022Y1613924D01*
X1659694Y1614088D01*
X1659530Y1614170D01*
X1659448Y1614252D01*
X1658792Y1614662D01*
X1658218Y1615155D01*
X1657808Y1615483D01*
X1657644Y1615647D01*
X1657070Y1616303D01*
X1656577Y1616959D01*
X1656331Y1617369D01*
X1656249Y1617451D01*
Y1617533D01*
X1655839Y1618517D01*
X1655675Y1619419D01*
X1655593Y1620240D01*
Y1620896D01*
X1655675Y1621470D01*
X1655757Y1621880D01*
X1655839Y1622126D01*
Y1622208D01*
X1656249Y1622864D01*
X1656906Y1623356D01*
X1657562Y1623766D01*
X1658300Y1624012D01*
X1658956Y1624258D01*
X1659530Y1624340D01*
X1659940Y1624422D01*
X1660678D01*
X1660760Y1624340D01*
D02*
G37*
G36*
X1513540Y1612448D02*
X1514033Y1612366D01*
X1514361Y1612284D01*
X1514443Y1612202D01*
X1514853Y1612038D01*
X1515263Y1611792D01*
X1515509Y1611710D01*
X1515591Y1611628D01*
X1517395Y1610644D01*
X1518215Y1610234D01*
X1518954Y1609906D01*
X1519528Y1609577D01*
X1520020Y1609331D01*
X1520348Y1609167D01*
X1520430Y1609085D01*
X1521332Y1608675D01*
X1522234Y1608429D01*
X1523136Y1608183D01*
X1523957Y1608019D01*
X1524613D01*
X1525187Y1607937D01*
X1525925D01*
X1526089Y1607855D01*
X1526253Y1607773D01*
X1526335Y1607691D01*
X1526499Y1607527D01*
X1526663Y1607363D01*
X1526745Y1607281D01*
Y1607199D01*
Y1606953D01*
Y1606707D01*
X1526663Y1606543D01*
Y1606461D01*
X1526499Y1605969D01*
X1526335Y1605887D01*
Y1605805D01*
X1526007Y1605641D01*
X1525679Y1605477D01*
X1525433Y1605395D01*
X1525351Y1605313D01*
X1524941Y1605231D01*
X1524531Y1605148D01*
X1524285Y1605067D01*
X1524203D01*
X1523875Y1604984D01*
X1521988D01*
X1522480Y1604082D01*
X1522808Y1603344D01*
X1522972Y1603016D01*
X1523136Y1602770D01*
X1523218Y1602688D01*
Y1602606D01*
X1523710Y1601704D01*
X1524039Y1600966D01*
X1524203Y1600638D01*
X1524367Y1600392D01*
X1524449Y1600310D01*
Y1600228D01*
X1524859Y1599243D01*
X1525187Y1598423D01*
X1525351Y1598095D01*
X1525433Y1597849D01*
X1525515Y1597685D01*
Y1597603D01*
X1525679Y1596619D01*
X1525761Y1595717D01*
Y1595307D01*
X1525679Y1594978D01*
Y1594814D01*
Y1594732D01*
X1525433Y1593830D01*
X1525105Y1593174D01*
X1524859Y1592682D01*
X1524695Y1592600D01*
Y1592518D01*
X1524039Y1591944D01*
X1523300Y1591616D01*
X1522890Y1591534D01*
X1522644Y1591452D01*
X1522480Y1591370D01*
X1522398D01*
X1521824Y1591288D01*
X1521332Y1591206D01*
X1520840D01*
X1520266Y1591288D01*
X1519856Y1591370D01*
X1519528Y1591452D01*
X1519364D01*
X1518379Y1591862D01*
X1517477Y1592272D01*
X1516657Y1592764D01*
X1516001Y1593174D01*
X1515427Y1593584D01*
X1515017Y1593912D01*
X1514771Y1594076D01*
X1514689Y1594158D01*
X1513376Y1595553D01*
X1512720Y1596291D01*
X1512228Y1596865D01*
X1511818Y1597439D01*
X1511408Y1597849D01*
X1511244Y1598177D01*
X1511162Y1598259D01*
X1511080Y1598669D01*
Y1598751D01*
Y1598833D01*
X1511162Y1599325D01*
Y1599407D01*
Y1599489D01*
X1511572Y1599407D01*
X1511818D01*
X1512064Y1599325D01*
X1512228Y1599243D01*
X1512392Y1599161D01*
X1512884Y1598751D01*
X1513212Y1598341D01*
X1513540Y1598013D01*
X1513622Y1597931D01*
X1514033Y1597521D01*
X1514443Y1597111D01*
X1514771Y1596865D01*
X1514853Y1596783D01*
X1515591Y1596209D01*
X1516165Y1595635D01*
X1516657Y1595307D01*
X1516739Y1595143D01*
X1516821D01*
X1517477Y1594568D01*
X1518133Y1594076D01*
X1518625Y1593748D01*
X1518707Y1593666D01*
X1518790D01*
X1519200Y1593502D01*
X1519528Y1593420D01*
X1520102D01*
X1520430Y1593502D01*
X1520594Y1593584D01*
X1521004Y1594076D01*
X1521168Y1594650D01*
X1521250Y1595143D01*
Y1595224D01*
Y1595307D01*
X1521168Y1595717D01*
X1521086Y1596127D01*
X1521004Y1596373D01*
Y1596455D01*
X1520840Y1596783D01*
X1520758Y1597111D01*
X1520594Y1597357D01*
Y1597439D01*
X1519856Y1598915D01*
X1519528Y1599653D01*
X1519200Y1600228D01*
X1518954Y1600802D01*
X1518707Y1601212D01*
X1518625Y1601458D01*
X1518544Y1601540D01*
X1517723Y1603016D01*
X1517395Y1603672D01*
X1517067Y1604246D01*
X1516821Y1604738D01*
X1516575Y1605148D01*
X1516493Y1605395D01*
X1516411Y1605477D01*
X1515755Y1606789D01*
X1515181Y1607855D01*
X1515017Y1608347D01*
X1514853Y1608675D01*
X1514689Y1608921D01*
Y1609003D01*
X1514033Y1610316D01*
X1513458Y1611382D01*
X1513294Y1611874D01*
X1513130Y1612202D01*
X1512966Y1612448D01*
Y1612530D01*
X1513540Y1612448D01*
D02*
G37*
G36*
X1488197Y1612612D02*
X1488443D01*
X1488689Y1612530D01*
X1488936D01*
X1489920Y1612366D01*
X1490822Y1612120D01*
X1491560Y1611874D01*
X1492298Y1611546D01*
X1492872Y1611300D01*
X1493282Y1611054D01*
X1493610Y1610890D01*
X1493692Y1610808D01*
X1495251Y1609659D01*
X1495989Y1609085D01*
X1496563Y1608593D01*
X1497055Y1608183D01*
X1497465Y1607855D01*
X1497711Y1607609D01*
X1497793Y1607527D01*
X1498696Y1606707D01*
X1499434Y1605969D01*
X1499762Y1605641D01*
X1500008Y1605395D01*
X1500090Y1605313D01*
X1500172Y1605231D01*
X1501156Y1604492D01*
X1502058Y1604000D01*
X1502386Y1603836D01*
X1502714Y1603672D01*
X1502878Y1603590D01*
X1502960D01*
X1503534Y1603344D01*
X1503945Y1603262D01*
X1504273Y1603098D01*
X1504437D01*
X1504929Y1602934D01*
X1505339Y1602770D01*
X1505667Y1602688D01*
X1505831Y1602606D01*
Y1602442D01*
Y1602360D01*
Y1602196D01*
Y1602114D01*
X1505257Y1602032D01*
X1504683Y1601950D01*
X1504355Y1601868D01*
X1504191D01*
X1503534Y1601786D01*
X1502960Y1601704D01*
X1502632Y1601622D01*
X1502468D01*
X1502632Y1600884D01*
X1502714Y1600228D01*
X1502796Y1599818D01*
X1502878Y1599735D01*
Y1599653D01*
X1503042Y1598997D01*
X1503124Y1598423D01*
X1503206Y1598013D01*
Y1597931D01*
Y1597849D01*
Y1597029D01*
X1503124Y1596209D01*
X1502960Y1595471D01*
X1502796Y1594897D01*
X1502632Y1594404D01*
X1502386Y1594076D01*
X1502304Y1593830D01*
X1502222Y1593748D01*
X1501730Y1593256D01*
X1501156Y1592764D01*
X1500008Y1592108D01*
X1499516Y1591862D01*
X1499106Y1591698D01*
X1498860Y1591534D01*
X1498777D01*
X1497465Y1591288D01*
X1496071Y1591206D01*
X1494841Y1591370D01*
X1493692Y1591616D01*
X1492708Y1591944D01*
X1491888Y1592190D01*
X1491396Y1592436D01*
X1491314Y1592518D01*
X1491232D01*
X1489920Y1593256D01*
X1488771Y1594158D01*
X1487869Y1595143D01*
X1487213Y1596045D01*
X1486721Y1596947D01*
X1486393Y1597603D01*
X1486229Y1598095D01*
X1486147Y1598177D01*
Y1598259D01*
X1486967Y1597685D01*
X1487623Y1597193D01*
X1488033Y1596865D01*
X1488115Y1596701D01*
X1488197D01*
X1488853Y1596127D01*
X1489428Y1595717D01*
X1489838Y1595389D01*
X1489920Y1595307D01*
X1490002D01*
X1490740Y1594897D01*
X1491396Y1594486D01*
X1491888Y1594158D01*
X1491970Y1594076D01*
X1492052D01*
X1492872Y1593748D01*
X1493528Y1593502D01*
X1494102Y1593420D01*
X1494185Y1593338D01*
X1494267D01*
X1495005Y1593256D01*
X1495661Y1593174D01*
X1496235Y1593256D01*
X1496645Y1593338D01*
X1496973Y1593502D01*
X1497301Y1593584D01*
X1497383Y1593748D01*
X1497465D01*
X1497793Y1594158D01*
X1497957Y1594732D01*
X1498203Y1595799D01*
Y1596291D01*
Y1596701D01*
Y1596947D01*
Y1597029D01*
X1497875Y1598423D01*
X1497711Y1599079D01*
X1497465Y1599653D01*
X1497301Y1600063D01*
X1497219Y1600392D01*
X1497055Y1600638D01*
Y1600720D01*
X1496399Y1601950D01*
X1495825Y1603016D01*
X1495579Y1603508D01*
X1495415Y1603836D01*
X1495333Y1604000D01*
X1495251Y1604082D01*
X1494595Y1605148D01*
X1494021Y1605969D01*
X1493775Y1606297D01*
X1493610Y1606543D01*
X1493528Y1606707D01*
X1493446Y1606789D01*
X1492626Y1607691D01*
X1491806Y1608429D01*
X1491396Y1608675D01*
X1491150Y1608839D01*
X1490986Y1609003D01*
X1490904D01*
X1490166Y1609331D01*
X1489510Y1609659D01*
X1489099Y1609823D01*
X1489017Y1609906D01*
X1488936D01*
X1488115Y1610234D01*
X1487459Y1610398D01*
X1486967Y1610562D01*
X1486885Y1610644D01*
X1486311D01*
X1486147Y1610562D01*
X1486065D01*
X1485573Y1610398D01*
X1485409Y1610316D01*
X1485327D01*
X1485573Y1609906D01*
X1485655Y1609742D01*
Y1609659D01*
X1485819Y1609249D01*
X1485901Y1609085D01*
X1485983Y1609003D01*
X1486475Y1608429D01*
X1486639Y1608265D01*
X1486721Y1608183D01*
X1487213Y1607609D01*
X1487377Y1607363D01*
X1487459Y1607281D01*
X1487623Y1606789D01*
X1487787Y1606379D01*
X1487869Y1606051D01*
Y1605887D01*
X1487787Y1605395D01*
X1487623Y1604984D01*
X1487377Y1604656D01*
X1487295Y1604574D01*
X1486885Y1604328D01*
X1486475Y1604164D01*
X1486147Y1604082D01*
X1486065D01*
X1485573Y1604164D01*
X1485163Y1604246D01*
X1484835Y1604328D01*
X1484753Y1604410D01*
X1484261Y1604738D01*
X1483850Y1604984D01*
X1483604Y1605148D01*
X1483522Y1605231D01*
X1483112Y1605559D01*
X1482702Y1605887D01*
X1482456Y1606133D01*
X1482374Y1606215D01*
X1481964Y1606707D01*
X1481718Y1607199D01*
X1481390Y1608101D01*
X1481308Y1608429D01*
X1481226Y1608675D01*
Y1608839D01*
Y1608921D01*
Y1609249D01*
Y1609577D01*
X1481308Y1609823D01*
Y1609906D01*
X1481554Y1610644D01*
X1481964Y1611136D01*
X1482456Y1611628D01*
X1482948Y1611956D01*
X1483440Y1612202D01*
X1483768Y1612366D01*
X1484097Y1612448D01*
X1484178D01*
X1484999Y1612612D01*
X1485737Y1612694D01*
X1487377D01*
X1488197Y1612612D01*
D02*
G37*
G36*
X1615159Y1612202D02*
X1615733Y1612120D01*
X1616143Y1612038D01*
X1616307D01*
X1617619Y1611710D01*
X1618850Y1611300D01*
X1619998Y1610808D01*
X1620982Y1610316D01*
X1621802Y1609906D01*
X1622377Y1609577D01*
X1622705Y1609331D01*
X1622869Y1609249D01*
X1623853Y1608511D01*
X1624837Y1607609D01*
X1625657Y1606789D01*
X1626395Y1606051D01*
X1627051Y1605313D01*
X1627462Y1604738D01*
X1627790Y1604410D01*
X1627872Y1604246D01*
X1628200Y1603836D01*
X1628528Y1603508D01*
X1629020Y1603098D01*
X1629430Y1602934D01*
X1629512Y1602852D01*
X1630168D01*
X1630906Y1603016D01*
X1631234Y1603098D01*
X1631480Y1603180D01*
X1631644Y1603262D01*
X1631726D01*
X1632301Y1603508D01*
X1632793Y1603754D01*
X1633121Y1603918D01*
X1633285Y1604000D01*
X1633859Y1604246D01*
X1634433Y1604410D01*
X1634843Y1604574D01*
X1634925Y1604657D01*
X1635007D01*
X1634761Y1604000D01*
X1634433Y1603590D01*
X1634187Y1603262D01*
X1634105Y1603180D01*
X1633613Y1602770D01*
X1633203Y1602442D01*
X1632875Y1602278D01*
X1632793Y1602196D01*
X1632301Y1601950D01*
X1631890Y1601704D01*
X1631562Y1601540D01*
X1631398Y1601458D01*
X1630906Y1601212D01*
X1630660Y1600966D01*
X1630496Y1600720D01*
X1630414Y1600638D01*
X1630332Y1600146D01*
Y1599736D01*
X1630414Y1599407D01*
X1630496Y1599243D01*
X1630660Y1598669D01*
X1630824Y1598259D01*
X1630906Y1597931D01*
Y1597767D01*
X1630988Y1596865D01*
X1630906Y1595963D01*
X1630742Y1595224D01*
X1630578Y1594568D01*
X1630414Y1593994D01*
X1630168Y1593584D01*
X1630086Y1593338D01*
X1630004Y1593256D01*
X1629430Y1592600D01*
X1628856Y1592026D01*
X1628118Y1591698D01*
X1627462Y1591370D01*
X1626805Y1591206D01*
X1626313Y1591124D01*
X1625985Y1591042D01*
X1625493D01*
X1625329Y1590960D01*
X1625001Y1590878D01*
X1623771D01*
X1622705Y1590960D01*
X1621720Y1591206D01*
X1620900Y1591370D01*
X1620244Y1591616D01*
X1619670Y1591862D01*
X1619342Y1591944D01*
X1619260Y1592026D01*
X1617538Y1593174D01*
X1616717Y1593666D01*
X1616061Y1594240D01*
X1615487Y1594732D01*
X1615077Y1595060D01*
X1614831Y1595307D01*
X1614749Y1595389D01*
X1614831Y1595635D01*
X1614913Y1595717D01*
X1614995Y1595881D01*
Y1595963D01*
X1615569Y1595635D01*
X1616143Y1595389D01*
X1616553Y1595224D01*
X1616635Y1595143D01*
X1616717D01*
X1617292Y1594814D01*
X1617866Y1594568D01*
X1618194Y1594404D01*
X1618358Y1594322D01*
X1619178Y1593912D01*
X1619998Y1593584D01*
X1620244Y1593502D01*
X1620490Y1593420D01*
X1620654Y1593338D01*
X1620736D01*
X1621638Y1593092D01*
X1622458Y1592928D01*
X1622787Y1592846D01*
X1623279D01*
X1624099Y1593010D01*
X1624673Y1593174D01*
X1625083Y1593420D01*
X1625165Y1593502D01*
X1625329Y1593666D01*
X1625493Y1593912D01*
X1625657Y1594486D01*
X1625739Y1594978D01*
Y1595143D01*
Y1595224D01*
Y1595799D01*
X1625657Y1596373D01*
X1625575Y1596701D01*
Y1596865D01*
X1625411Y1597521D01*
X1625329Y1598095D01*
X1625247Y1598423D01*
Y1598587D01*
X1625083Y1599243D01*
X1624837Y1599736D01*
X1624673Y1599982D01*
X1624591Y1600063D01*
X1624017Y1600310D01*
X1623525Y1600392D01*
X1623115Y1600474D01*
X1620736D01*
X1620162Y1600556D01*
X1619670Y1600638D01*
X1619260Y1600720D01*
X1619014Y1600802D01*
X1618932D01*
X1617538Y1601212D01*
X1616881Y1601458D01*
X1616307Y1601622D01*
X1615815Y1601868D01*
X1615487Y1601950D01*
X1615241Y1602114D01*
X1615159D01*
X1614257Y1602524D01*
X1613437Y1602934D01*
X1613109Y1603180D01*
X1612863Y1603262D01*
X1612699Y1603426D01*
X1612616D01*
X1611714Y1604000D01*
X1610976Y1604492D01*
X1610648Y1604738D01*
X1610402Y1604902D01*
X1610320Y1605067D01*
X1610238D01*
X1609582Y1605723D01*
X1609090Y1606379D01*
X1608762Y1606953D01*
X1608680Y1607035D01*
Y1607117D01*
X1608598Y1607609D01*
X1608516Y1608019D01*
X1608598Y1608921D01*
Y1609249D01*
X1608680Y1609495D01*
X1608762Y1609659D01*
Y1609742D01*
X1609172Y1610644D01*
X1609746Y1611218D01*
X1610156Y1611628D01*
X1610238Y1611710D01*
X1610320D01*
X1611140Y1612038D01*
X1611960Y1612202D01*
X1612206D01*
X1612453Y1612284D01*
X1614503D01*
X1615159Y1612202D01*
D02*
G37*
G36*
X1587437Y1612366D02*
X1588586Y1612202D01*
X1589652Y1612038D01*
X1590554Y1611792D01*
X1591292Y1611464D01*
X1591866Y1611300D01*
X1592194Y1611136D01*
X1592358Y1611054D01*
X1594245Y1609823D01*
X1595065Y1609249D01*
X1595803Y1608675D01*
X1596377Y1608183D01*
X1596869Y1607773D01*
X1597197Y1607445D01*
X1597279Y1607363D01*
X1598592Y1606133D01*
X1599740Y1605149D01*
X1600232Y1604821D01*
X1600560Y1604492D01*
X1600806Y1604328D01*
X1600888Y1604246D01*
X1602364Y1603426D01*
X1603103Y1603098D01*
X1603759Y1602852D01*
X1604333Y1602606D01*
X1604743Y1602442D01*
X1605071Y1602360D01*
X1605153D01*
X1605235Y1602278D01*
X1605317Y1602196D01*
X1605399Y1602114D01*
X1605481Y1601950D01*
X1605563Y1601868D01*
Y1601786D01*
X1604825Y1601704D01*
X1604251Y1601622D01*
X1603923Y1601540D01*
X1603759D01*
X1603185Y1601458D01*
X1602693Y1601376D01*
X1602364Y1601294D01*
X1602200D01*
X1602364Y1600474D01*
X1602446Y1599736D01*
X1602529Y1599161D01*
X1602610Y1599079D01*
Y1598997D01*
X1602693Y1598177D01*
X1602775Y1597521D01*
X1602856Y1597029D01*
Y1596947D01*
Y1596865D01*
Y1596045D01*
X1602693Y1595389D01*
X1602529Y1594814D01*
X1602282Y1594240D01*
X1602118Y1593912D01*
X1601872Y1593584D01*
X1601790Y1593420D01*
X1601708Y1593338D01*
X1601216Y1592764D01*
X1600642Y1592354D01*
X1600068Y1591944D01*
X1599576Y1591698D01*
X1599084Y1591452D01*
X1598674Y1591288D01*
X1598428Y1591206D01*
X1598346D01*
X1596869Y1590960D01*
X1595475D01*
X1594163Y1591042D01*
X1593015Y1591370D01*
X1592112Y1591616D01*
X1591374Y1591944D01*
X1590882Y1592190D01*
X1590718Y1592272D01*
X1589406Y1593010D01*
X1588340Y1593912D01*
X1587519Y1594814D01*
X1586863Y1595717D01*
X1586371Y1596455D01*
X1586125Y1597111D01*
X1585961Y1597521D01*
X1585879Y1597685D01*
X1587027Y1596865D01*
X1588011Y1596209D01*
X1588422Y1595963D01*
X1588750Y1595717D01*
X1588914Y1595635D01*
X1588996Y1595553D01*
X1590144Y1594814D01*
X1591128Y1594240D01*
X1591538Y1593994D01*
X1591866Y1593830D01*
X1592030Y1593666D01*
X1592112D01*
X1592605Y1593420D01*
X1593015Y1593338D01*
X1593343Y1593174D01*
X1593425D01*
X1593999Y1593092D01*
X1594573Y1592928D01*
X1594901Y1592846D01*
X1595639D01*
X1596049Y1592928D01*
X1596377Y1593010D01*
X1596459Y1593092D01*
X1596869Y1593420D01*
X1597115Y1593748D01*
X1597279Y1593994D01*
X1597361Y1594076D01*
X1597525Y1594568D01*
X1597608Y1594978D01*
X1597690Y1595307D01*
Y1595389D01*
X1597771Y1595881D01*
Y1596291D01*
X1597690Y1596619D01*
Y1596701D01*
X1597443Y1597849D01*
X1597115Y1598997D01*
X1596787Y1599982D01*
X1596377Y1600884D01*
X1596131Y1601622D01*
X1595885Y1602114D01*
X1595721Y1602524D01*
X1595639Y1602606D01*
X1595065Y1603590D01*
X1594409Y1604492D01*
X1593835Y1605395D01*
X1593261Y1606133D01*
X1592686Y1606707D01*
X1592276Y1607199D01*
X1592030Y1607527D01*
X1591948Y1607609D01*
X1591128Y1608347D01*
X1590390Y1608839D01*
X1590062Y1609085D01*
X1589816Y1609249D01*
X1589652Y1609331D01*
X1589570D01*
X1588586Y1609742D01*
X1587684Y1610070D01*
X1587355Y1610152D01*
X1587027D01*
X1586863Y1610234D01*
X1586125D01*
X1585961Y1610152D01*
X1585879D01*
X1585551Y1610070D01*
X1585223D01*
X1584977Y1609987D01*
X1584895D01*
X1585223Y1609495D01*
X1585305Y1609331D01*
Y1609249D01*
X1585633Y1608757D01*
X1585715Y1608593D01*
Y1608511D01*
X1586043Y1608019D01*
X1586289Y1607609D01*
X1586535Y1607281D01*
X1586617Y1607199D01*
X1586945Y1606707D01*
X1587191Y1606297D01*
X1587273Y1605969D01*
X1587355Y1605805D01*
X1587437Y1605395D01*
X1587355Y1605067D01*
X1587273Y1604574D01*
X1587027Y1604246D01*
X1586945Y1604164D01*
X1586371Y1603918D01*
X1585797Y1603836D01*
X1585141D01*
X1584895Y1603918D01*
X1584731Y1604000D01*
X1584403Y1604082D01*
X1584321D01*
X1583173Y1604821D01*
X1582352Y1605559D01*
X1582024Y1605887D01*
X1581778Y1606133D01*
X1581696Y1606297D01*
X1581614Y1606379D01*
X1581286Y1606953D01*
X1581122Y1607445D01*
X1580958Y1607937D01*
X1580876Y1608347D01*
Y1608757D01*
X1580958Y1609003D01*
Y1609167D01*
Y1609249D01*
X1581122Y1609823D01*
X1581368Y1610316D01*
X1581942Y1611136D01*
X1582434Y1611546D01*
X1582598Y1611710D01*
X1582681D01*
X1583173Y1611956D01*
X1583747Y1612120D01*
X1584895Y1612366D01*
X1585387Y1612448D01*
X1586207D01*
X1587437Y1612366D01*
D02*
G37*
%LPC*%
G36*
X1727932Y1657393D02*
X1726538Y1657311D01*
X1725389Y1657147D01*
X1724405Y1656901D01*
X1723667Y1656655D01*
X1723175Y1656491D01*
X1723011Y1656409D01*
X1721781Y1655753D01*
X1720632Y1654933D01*
X1719648Y1654113D01*
X1718746Y1653210D01*
X1718090Y1652472D01*
X1717598Y1651816D01*
X1717270Y1651406D01*
X1717188Y1651324D01*
Y1651242D01*
X1716860Y1650586D01*
X1716614Y1649930D01*
X1716449Y1649355D01*
X1716367Y1648781D01*
Y1648371D01*
Y1648043D01*
X1716449Y1647797D01*
Y1647715D01*
X1716614Y1647059D01*
X1716942Y1646567D01*
X1717270Y1646157D01*
X1717598Y1645747D01*
X1717926Y1645501D01*
X1718172Y1645337D01*
X1718336Y1645173D01*
X1718418D01*
X1718910Y1644927D01*
X1719402Y1644763D01*
X1720304Y1644681D01*
X1720632D01*
X1720878Y1644763D01*
X1721125D01*
X1721617Y1644927D01*
X1722109Y1645173D01*
X1722765Y1645665D01*
X1723257Y1646157D01*
X1723339Y1646239D01*
X1723421Y1646321D01*
X1723749Y1646895D01*
X1724077Y1647387D01*
X1724323Y1647715D01*
X1724405Y1647879D01*
X1724815Y1648453D01*
X1725143Y1648945D01*
X1725389Y1649274D01*
X1725471Y1649355D01*
X1726046Y1650012D01*
X1726620Y1650504D01*
X1727112Y1650832D01*
X1727194Y1650914D01*
X1727276D01*
X1727686Y1651078D01*
X1728014Y1651160D01*
X1728752Y1651242D01*
X1729244D01*
X1729408Y1651160D01*
X1729490D01*
X1730474Y1650750D01*
X1731212Y1650258D01*
X1731623Y1649848D01*
X1731787Y1649766D01*
Y1649684D01*
X1732361Y1648945D01*
X1732689Y1648125D01*
X1732771Y1647797D01*
X1732853Y1647469D01*
X1732935Y1647305D01*
Y1647223D01*
X1733017Y1646321D01*
Y1645583D01*
X1732935Y1645009D01*
X1732853Y1644927D01*
Y1644845D01*
X1732525Y1643942D01*
X1732197Y1643204D01*
X1731869Y1642712D01*
X1731787Y1642630D01*
Y1642548D01*
X1730802Y1641318D01*
X1729654Y1640334D01*
X1728506Y1639514D01*
X1727440Y1638775D01*
X1726373Y1638283D01*
X1725553Y1637955D01*
X1725225Y1637791D01*
X1724979Y1637709D01*
X1724897Y1637627D01*
X1724815D01*
X1723913Y1637381D01*
X1723093Y1637217D01*
X1721452D01*
X1719976Y1637381D01*
X1718664Y1637627D01*
X1717516Y1638037D01*
X1716696Y1638365D01*
X1716367Y1638529D01*
X1716122Y1638693D01*
X1716039Y1638775D01*
X1715957D01*
X1715465Y1639021D01*
X1715301Y1639185D01*
X1715219D01*
X1714727Y1639431D01*
X1714563Y1639514D01*
X1714481D01*
X1713907Y1638283D01*
X1713415Y1637217D01*
X1713169Y1636725D01*
X1713087Y1636397D01*
X1712923Y1636233D01*
Y1636151D01*
X1712349Y1635003D01*
X1711857Y1634018D01*
X1711693Y1633608D01*
X1711528Y1633280D01*
X1711447Y1633116D01*
Y1633034D01*
X1711283Y1632624D01*
Y1632460D01*
Y1632378D01*
Y1632132D01*
Y1631886D01*
X1711364Y1631804D01*
Y1631722D01*
X1711939Y1630656D01*
X1712349Y1629671D01*
X1712595Y1629261D01*
X1712677Y1628933D01*
X1712841Y1628769D01*
Y1628687D01*
X1713415Y1627539D01*
X1713989Y1626473D01*
X1714153Y1626063D01*
X1714317Y1625735D01*
X1714481Y1625571D01*
Y1625489D01*
X1714809Y1625981D01*
X1715055Y1626391D01*
X1715219Y1626637D01*
X1715301Y1626719D01*
X1715547Y1627129D01*
X1715793Y1627457D01*
X1715957Y1627703D01*
X1716039Y1627785D01*
X1716696Y1628605D01*
X1717270Y1629344D01*
X1717926Y1630082D01*
X1718418Y1630656D01*
X1718910Y1631066D01*
X1719320Y1631394D01*
X1719566Y1631640D01*
X1719648Y1631722D01*
X1720468Y1632296D01*
X1721288Y1632788D01*
X1722109Y1633116D01*
X1722847Y1633444D01*
X1723503Y1633690D01*
X1723995Y1633854D01*
X1724323Y1633936D01*
X1724487D01*
X1725717Y1634182D01*
X1727850D01*
X1728424Y1634018D01*
X1728998Y1633854D01*
X1729982Y1633362D01*
X1730310Y1633116D01*
X1730638Y1632870D01*
X1730802Y1632788D01*
X1730884Y1632706D01*
X1731705Y1631886D01*
X1732279Y1631066D01*
X1732443Y1630656D01*
X1732607Y1630410D01*
X1732689Y1630246D01*
Y1630164D01*
X1732935Y1629015D01*
X1733017Y1628031D01*
Y1627621D01*
X1732935Y1627293D01*
Y1627047D01*
Y1626965D01*
X1732771Y1626391D01*
X1732525Y1625817D01*
X1732197Y1625407D01*
X1731869Y1625079D01*
X1731376Y1624586D01*
X1731212Y1624505D01*
X1731131Y1624422D01*
X1730556Y1624176D01*
X1729982Y1624012D01*
X1728998Y1623930D01*
X1728588Y1624012D01*
X1728260D01*
X1728096Y1624094D01*
X1728014D01*
X1727604Y1624258D01*
X1727522Y1624341D01*
X1727440D01*
X1727112Y1624505D01*
X1726948Y1624586D01*
X1726046Y1624915D01*
X1725143Y1625079D01*
X1724323D01*
X1723503Y1624997D01*
X1722847Y1624915D01*
X1722355Y1624751D01*
X1721945Y1624668D01*
X1721863Y1624586D01*
X1720878Y1624094D01*
X1720058Y1623520D01*
X1719402Y1622946D01*
X1718910Y1622372D01*
X1718500Y1621880D01*
X1718254Y1621470D01*
X1718172Y1621224D01*
X1718090Y1621142D01*
X1717680Y1620240D01*
X1717434Y1619420D01*
X1717352Y1619091D01*
X1717270Y1618845D01*
X1717188Y1618681D01*
Y1618599D01*
X1717024Y1617615D01*
Y1616795D01*
Y1616385D01*
Y1616139D01*
Y1615975D01*
Y1615893D01*
X1717188Y1614909D01*
X1717434Y1614088D01*
X1717844Y1613350D01*
X1718336Y1612694D01*
X1718746Y1612284D01*
X1719156Y1611874D01*
X1719402Y1611710D01*
X1719484Y1611628D01*
X1720386Y1611218D01*
X1721207Y1610972D01*
X1722765D01*
X1723421Y1611054D01*
X1723995Y1611218D01*
X1724323Y1611300D01*
X1724405Y1611382D01*
X1724979Y1611710D01*
X1725553Y1611956D01*
X1725881Y1612202D01*
X1726046Y1612284D01*
X1726702Y1612694D01*
X1727194Y1613022D01*
X1727522Y1613350D01*
X1727686Y1613432D01*
X1729654Y1615073D01*
X1731376Y1616795D01*
X1733017Y1618435D01*
X1734329Y1619994D01*
X1735477Y1621306D01*
X1735887Y1621880D01*
X1736297Y1622372D01*
X1736544Y1622700D01*
X1736790Y1623028D01*
X1736872Y1623192D01*
X1736954Y1623274D01*
X1738266Y1625407D01*
X1739332Y1627539D01*
X1740234Y1629590D01*
X1740972Y1631558D01*
X1741219Y1632378D01*
X1741547Y1633198D01*
X1741711Y1633936D01*
X1741875Y1634510D01*
X1742039Y1635003D01*
X1742121Y1635331D01*
X1742203Y1635577D01*
Y1635659D01*
X1742449Y1636889D01*
X1742613Y1638119D01*
X1742695Y1639267D01*
X1742777Y1640334D01*
Y1641236D01*
X1742695Y1641892D01*
Y1642302D01*
Y1642466D01*
X1742531Y1643696D01*
X1742285Y1644845D01*
X1741957Y1645993D01*
X1741629Y1646977D01*
X1741301Y1647797D01*
X1740972Y1648371D01*
X1740809Y1648781D01*
X1740726Y1648945D01*
X1740070Y1650012D01*
X1739496Y1650996D01*
X1738840Y1651816D01*
X1738184Y1652636D01*
X1737692Y1653210D01*
X1737282Y1653702D01*
X1736954Y1654030D01*
X1736872Y1654113D01*
X1735970Y1654851D01*
X1734985Y1655507D01*
X1734083Y1655999D01*
X1733181Y1656409D01*
X1732361Y1656655D01*
X1731787Y1656901D01*
X1731376Y1657065D01*
X1731212D01*
X1729490Y1657311D01*
X1727932Y1657393D01*
D02*
G37*
G36*
X1701030Y1632460D02*
X1700702D01*
X1699964Y1632378D01*
X1699308Y1632214D01*
X1698816Y1632050D01*
X1698324Y1631804D01*
X1697996Y1631640D01*
X1697750Y1631394D01*
X1697586Y1631312D01*
X1697504Y1631230D01*
X1697258Y1630738D01*
X1697176Y1630410D01*
Y1630082D01*
Y1630000D01*
X1697422Y1629671D01*
X1697668Y1629344D01*
X1697996Y1629261D01*
X1698078Y1629179D01*
X1698652Y1629097D01*
X1699144Y1629015D01*
X1700210Y1629179D01*
X1700620Y1629261D01*
X1700948Y1629344D01*
X1701194Y1629426D01*
X1701277D01*
X1702425Y1630000D01*
X1703327Y1630656D01*
X1703655Y1630902D01*
X1703901Y1631148D01*
X1703983Y1631312D01*
X1704065Y1631394D01*
X1703573Y1631722D01*
X1702999Y1632050D01*
X1701851Y1632296D01*
X1701440Y1632378D01*
X1701030Y1632460D01*
D02*
G37*
G36*
X1713333Y1609167D02*
X1712103Y1608429D01*
X1711036Y1607773D01*
X1710626Y1607527D01*
X1710298Y1607281D01*
X1710134Y1607199D01*
X1710052Y1607117D01*
X1708822Y1606297D01*
X1707756Y1605641D01*
X1707346Y1605395D01*
X1707018Y1605149D01*
X1706854Y1605067D01*
X1706772Y1604984D01*
X1707674Y1604082D01*
X1708576Y1603180D01*
X1708904Y1602852D01*
X1709232Y1602524D01*
X1709396Y1602360D01*
X1709478Y1602278D01*
X1710544Y1601212D01*
X1711447Y1600310D01*
X1711775Y1599982D01*
X1712103Y1599653D01*
X1712267Y1599489D01*
X1712349Y1599407D01*
X1712677Y1599161D01*
X1712923Y1599079D01*
X1713169D01*
X1713661Y1599407D01*
X1713825Y1599489D01*
X1713907Y1599572D01*
X1714973Y1600638D01*
X1715875Y1601458D01*
X1716203Y1601868D01*
X1716532Y1602114D01*
X1716696Y1602278D01*
X1716778Y1602360D01*
X1717844Y1603426D01*
X1718910Y1604410D01*
X1719320Y1604821D01*
X1719648Y1605149D01*
X1719812Y1605313D01*
X1719894Y1605395D01*
X1719074Y1605559D01*
X1718336Y1605805D01*
X1717680Y1605969D01*
X1717106Y1606215D01*
X1716614Y1606379D01*
X1716286Y1606543D01*
X1716122Y1606707D01*
X1716039D01*
X1714973Y1607527D01*
X1714071Y1608347D01*
X1713743Y1608675D01*
X1713497Y1608921D01*
X1713415Y1609085D01*
X1713333Y1609167D01*
D02*
G37*
G36*
X1661088Y1621306D02*
X1660514D01*
X1659940Y1621142D01*
X1659448Y1620896D01*
X1659202Y1620568D01*
X1659120Y1620486D01*
X1658874Y1619911D01*
Y1619255D01*
Y1618763D01*
X1658956Y1618599D01*
Y1618517D01*
X1659202Y1617697D01*
X1659612Y1617123D01*
X1659940Y1616795D01*
X1660022Y1616631D01*
X1660104D01*
X1660678Y1616139D01*
X1661252Y1615729D01*
X1661662Y1615401D01*
X1661745Y1615319D01*
X1661826D01*
X1662565Y1614908D01*
X1663139Y1614662D01*
X1663631Y1614498D01*
X1663713Y1614416D01*
X1663795D01*
X1664861Y1614088D01*
X1665763Y1613760D01*
X1666091Y1613678D01*
X1666419Y1613596D01*
X1666583Y1613514D01*
X1666665D01*
X1667732Y1613186D01*
X1668716Y1612940D01*
X1669126Y1612858D01*
X1669454Y1612776D01*
X1669618Y1612694D01*
X1669700D01*
X1669782Y1612858D01*
X1669864Y1612940D01*
X1669946Y1613186D01*
X1670028Y1613268D01*
X1669536Y1614170D01*
X1669044Y1615073D01*
X1668552Y1615811D01*
X1668142Y1616549D01*
X1667732Y1617041D01*
X1667404Y1617533D01*
X1667157Y1617779D01*
X1667076Y1617861D01*
X1666419Y1618599D01*
X1665681Y1619255D01*
X1664943Y1619747D01*
X1664205Y1620158D01*
X1663631Y1620568D01*
X1663139Y1620814D01*
X1662729Y1620896D01*
X1662647Y1620978D01*
X1661826Y1621224D01*
X1661088Y1621306D01*
D02*
G37*
G36*
X1614175Y1610644D02*
X1613929Y1610562D01*
X1613519Y1610398D01*
X1613191Y1610152D01*
X1613109Y1610070D01*
X1612863Y1609577D01*
X1612780Y1609167D01*
Y1608839D01*
Y1608675D01*
X1612945Y1608183D01*
X1613109Y1607691D01*
X1613273Y1607363D01*
X1613355Y1607281D01*
X1614093Y1606297D01*
X1614831Y1605477D01*
X1615077Y1605231D01*
X1615323Y1604984D01*
X1615487Y1604902D01*
X1615569Y1604821D01*
X1616635Y1604246D01*
X1617619Y1603754D01*
X1618030Y1603590D01*
X1618358Y1603426D01*
X1618522Y1603344D01*
X1618604D01*
X1619342Y1603098D01*
X1619998Y1602852D01*
X1620490Y1602770D01*
X1620572Y1602688D01*
X1620654D01*
X1621556Y1602606D01*
X1622294Y1602524D01*
X1622623Y1602606D01*
X1623115D01*
X1621966Y1604246D01*
X1621392Y1604984D01*
X1620900Y1605641D01*
X1620490Y1606133D01*
X1620162Y1606543D01*
X1619998Y1606789D01*
X1619916Y1606871D01*
X1618522Y1608183D01*
X1617866Y1608757D01*
X1617209Y1609249D01*
X1616635Y1609577D01*
X1616143Y1609823D01*
X1615815Y1609987D01*
X1615733Y1610070D01*
X1615323Y1610316D01*
X1614831Y1610480D01*
X1614503Y1610562D01*
X1614421D01*
X1614175Y1610644D01*
D02*
G37*
%LPD*%
D18*
X1420383Y1795843D02*
X1430539D01*
X1435618Y1800922D01*
X1430539Y1806000D01*
X1420383D01*
X1428000D01*
Y1795843D01*
X1420383Y1811078D02*
Y1816157D01*
Y1813618D01*
X1435618D01*
X1433078Y1811078D01*
X1464922Y1430539D02*
X1462383Y1433078D01*
Y1438157D01*
X1464922Y1440696D01*
X1475078D01*
X1477617Y1438157D01*
Y1433078D01*
X1475078Y1430539D01*
X1477617Y1417843D02*
X1462383D01*
X1470000Y1425461D01*
Y1415304D01*
X1687617Y1793304D02*
X1672383D01*
Y1800922D01*
X1674922Y1803461D01*
X1677461D01*
X1680000Y1800922D01*
Y1793304D01*
Y1800922D01*
X1682539Y1803461D01*
X1685078D01*
X1687617Y1800922D01*
Y1793304D01*
X1672383Y1818696D02*
Y1808539D01*
X1682539Y1818696D01*
X1685078D01*
X1687617Y1816157D01*
Y1811078D01*
X1685078Y1808539D01*
X1882382Y1440696D02*
X1897617D01*
Y1433078D01*
X1895078Y1430539D01*
X1884922D01*
X1882382Y1433078D01*
Y1440696D01*
X1897617Y1417843D02*
X1882382D01*
X1890000Y1425461D01*
Y1415304D01*
X2008382Y1438157D02*
X2023618D01*
Y1430539D01*
X2021078Y1428000D01*
X2010922D01*
X2008382Y1430539D01*
Y1438157D01*
X2023618Y1422922D02*
Y1417843D01*
Y1420383D01*
X2008382D01*
X2010922Y1422922D01*
X1380922Y1428000D02*
X1378383Y1430539D01*
Y1435618D01*
X1380922Y1438157D01*
X1391078D01*
X1393618Y1435618D01*
Y1430539D01*
X1391078Y1428000D01*
X1393618Y1422922D02*
Y1417843D01*
Y1420383D01*
X1378383D01*
X1380922Y1422922D01*
X1462383Y1793304D02*
X1472539D01*
X1477617Y1798383D01*
X1472539Y1803461D01*
X1462383D01*
X1470000D01*
Y1793304D01*
X1462383Y1818696D02*
Y1808539D01*
X1472539Y1818696D01*
X1475078D01*
X1477617Y1816157D01*
Y1811078D01*
X1475078Y1808539D01*
X1672383Y1440696D02*
X1687617D01*
Y1433078D01*
X1685078Y1430539D01*
X1674922D01*
X1672383Y1433078D01*
Y1440696D01*
Y1415304D02*
Y1425461D01*
X1680000D01*
X1677461Y1420383D01*
Y1417843D01*
X1680000Y1415304D01*
X1685078D01*
X1687617Y1417843D01*
Y1422922D01*
X1685078Y1425461D01*
X1897617Y1803461D02*
X1895078Y1798383D01*
X1890000Y1793304D01*
X1884922D01*
X1882383Y1795843D01*
Y1800922D01*
X1884922Y1803461D01*
X1887461D01*
X1890000Y1800922D01*
Y1793304D01*
X1897617Y1808539D02*
X1882383D01*
Y1816157D01*
X1884922Y1818696D01*
X1887461D01*
X1890000Y1816157D01*
Y1808539D01*
Y1816157D01*
X1892539Y1818696D01*
X1895078D01*
X1897617Y1816157D01*
Y1808539D01*
X1336382Y1793304D02*
X1346539D01*
X1351617Y1798383D01*
X1346539Y1803461D01*
X1336382D01*
X1344000D01*
Y1793304D01*
X1349078Y1808539D02*
X1351617Y1811078D01*
Y1816157D01*
X1349078Y1818696D01*
X1346539D01*
X1344000Y1816157D01*
Y1813618D01*
Y1816157D01*
X1341461Y1818696D01*
X1338922D01*
X1336382Y1816157D01*
Y1811078D01*
X1338922Y1808539D01*
X1924382Y1440696D02*
X1939617D01*
Y1433078D01*
X1937078Y1430539D01*
X1926922D01*
X1924382Y1433078D01*
Y1440696D01*
X1926922Y1425461D02*
X1924382Y1422922D01*
Y1417843D01*
X1926922Y1415304D01*
X1929461D01*
X1932000Y1417843D01*
Y1420383D01*
Y1417843D01*
X1934539Y1415304D01*
X1937078D01*
X1939617Y1417843D01*
Y1422922D01*
X1937078Y1425461D01*
X1756382Y1440696D02*
X1771617D01*
Y1433078D01*
X1769078Y1430539D01*
X1758922D01*
X1756382Y1433078D01*
Y1440696D01*
Y1425461D02*
Y1415304D01*
X1758922D01*
X1769078Y1425461D01*
X1771617D01*
X1296922Y1430539D02*
X1294382Y1433078D01*
Y1438157D01*
X1296922Y1440696D01*
X1307078D01*
X1309617Y1438157D01*
Y1433078D01*
X1307078Y1430539D01*
X1296922Y1425461D02*
X1294382Y1422922D01*
Y1417843D01*
X1296922Y1415304D01*
X1299461D01*
X1302000Y1417843D01*
Y1420383D01*
Y1417843D01*
X1304539Y1415304D01*
X1307078D01*
X1309617Y1417843D01*
Y1422922D01*
X1307078Y1425461D01*
X1506922Y1430539D02*
X1504382Y1433078D01*
Y1438157D01*
X1506922Y1440696D01*
X1517078D01*
X1519617Y1438157D01*
Y1433078D01*
X1517078Y1430539D01*
X1504382Y1415304D02*
Y1425461D01*
X1512000D01*
X1509461Y1420383D01*
Y1417843D01*
X1512000Y1415304D01*
X1517078D01*
X1519617Y1417843D01*
Y1422922D01*
X1517078Y1425461D01*
X1771617Y1793304D02*
X1756382D01*
Y1800922D01*
X1758922Y1803461D01*
X1761461D01*
X1764000Y1800922D01*
Y1793304D01*
Y1800922D01*
X1766539Y1803461D01*
X1769078D01*
X1771617Y1800922D01*
Y1793304D01*
X1756382Y1816157D02*
X1771617D01*
X1764000Y1808539D01*
Y1818696D01*
X1645618Y1795843D02*
X1630383D01*
Y1803461D01*
X1632922Y1806000D01*
X1635461D01*
X1638000Y1803461D01*
Y1795843D01*
Y1803461D01*
X1640539Y1806000D01*
X1643078D01*
X1645618Y1803461D01*
Y1795843D01*
X1630383Y1811078D02*
Y1816157D01*
Y1813618D01*
X1645618D01*
X1643078Y1811078D01*
X2065618Y1787540D02*
X2050383D01*
Y1795157D01*
X2052922Y1797697D01*
X2055461D01*
X2058000Y1795157D01*
Y1787540D01*
Y1795157D01*
X2060539Y1797697D01*
X2063078D01*
X2065618Y1795157D01*
Y1787540D01*
X2050383Y1802775D02*
Y1807853D01*
Y1805314D01*
X2065618D01*
X2063078Y1802775D01*
Y1815471D02*
X2065618Y1818010D01*
Y1823089D01*
X2063078Y1825628D01*
X2052922D01*
X2050383Y1823089D01*
Y1818010D01*
X2052922Y1815471D01*
X2063078D01*
X1966382Y1440696D02*
X1981617D01*
Y1433078D01*
X1979078Y1430539D01*
X1968922D01*
X1966382Y1433078D01*
Y1440696D01*
X1981617Y1415304D02*
Y1425461D01*
X1971461Y1415304D01*
X1968922D01*
X1966382Y1417843D01*
Y1422922D01*
X1968922Y1425461D01*
X1714382Y1440696D02*
X1729617D01*
Y1433078D01*
X1727078Y1430539D01*
X1716922D01*
X1714382Y1433078D01*
Y1440696D01*
Y1415304D02*
X1716922Y1420383D01*
X1722000Y1425461D01*
X1727078D01*
X1729617Y1422922D01*
Y1417843D01*
X1727078Y1415304D01*
X1724539D01*
X1722000Y1417843D01*
Y1425461D01*
X1294382Y1793304D02*
X1304539D01*
X1309617Y1798383D01*
X1304539Y1803461D01*
X1294382D01*
X1302000D01*
Y1793304D01*
X1294382Y1816157D02*
X1309617D01*
X1302000Y1808539D01*
Y1818696D01*
X1813618Y1793304D02*
X1798383D01*
Y1800922D01*
X1800922Y1803461D01*
X1803461D01*
X1806000Y1800922D01*
Y1793304D01*
Y1800922D01*
X1808539Y1803461D01*
X1811078D01*
X1813618Y1800922D01*
Y1793304D01*
Y1818696D02*
Y1808539D01*
X1806000D01*
X1808539Y1813618D01*
Y1816157D01*
X1806000Y1818696D01*
X1800922D01*
X1798383Y1816157D01*
Y1811078D01*
X1800922Y1808539D01*
X2023618Y1793304D02*
X2008383D01*
Y1800922D01*
X2010922Y1803461D01*
X2013461D01*
X2016000Y1800922D01*
Y1793304D01*
Y1800922D01*
X2018539Y1803461D01*
X2021078D01*
X2023618Y1800922D01*
Y1793304D01*
X2010922Y1808539D02*
X2008383Y1811078D01*
Y1816157D01*
X2010922Y1818696D01*
X2021078D01*
X2023618Y1816157D01*
Y1811078D01*
X2021078Y1808539D01*
X2018539D01*
X2016000Y1811078D01*
Y1818696D01*
X1729617Y1793304D02*
X1714382D01*
Y1800922D01*
X1716922Y1803461D01*
X1719461D01*
X1722000Y1800922D01*
Y1793304D01*
Y1800922D01*
X1724539Y1803461D01*
X1727078D01*
X1729617Y1800922D01*
Y1793304D01*
X1727078Y1808539D02*
X1729617Y1811078D01*
Y1816157D01*
X1727078Y1818696D01*
X1724539D01*
X1722000Y1816157D01*
Y1813618D01*
Y1816157D01*
X1719461Y1818696D01*
X1716922D01*
X1714382Y1816157D01*
Y1811078D01*
X1716922Y1808539D01*
X1981617Y1793304D02*
X1966382D01*
Y1800922D01*
X1968922Y1803461D01*
X1971461D01*
X1974000Y1800922D01*
Y1793304D01*
Y1800922D01*
X1976539Y1803461D01*
X1979078D01*
X1981617Y1800922D01*
Y1793304D01*
X1979078Y1808539D02*
X1981617Y1811078D01*
Y1816157D01*
X1979078Y1818696D01*
X1976539D01*
X1974000Y1816157D01*
X1971461Y1818696D01*
X1968922D01*
X1966382Y1816157D01*
Y1811078D01*
X1968922Y1808539D01*
X1971461D01*
X1974000Y1811078D01*
X1976539Y1808539D01*
X1979078D01*
X1974000Y1811078D02*
Y1816157D01*
X1798383Y1440696D02*
X1813618D01*
Y1433078D01*
X1811078Y1430539D01*
X1800922D01*
X1798383Y1433078D01*
Y1440696D01*
X1800922Y1425461D02*
X1798383Y1422922D01*
Y1417843D01*
X1800922Y1415304D01*
X1803461D01*
X1806000Y1417843D01*
X1808539Y1415304D01*
X1811078D01*
X1813618Y1417843D01*
Y1422922D01*
X1811078Y1425461D01*
X1808539D01*
X1806000Y1422922D01*
X1803461Y1425461D01*
X1800922D01*
X1806000Y1422922D02*
Y1417843D01*
X1338922Y1430539D02*
X1336382Y1433078D01*
Y1438157D01*
X1338922Y1440696D01*
X1349078D01*
X1351617Y1438157D01*
Y1433078D01*
X1349078Y1430539D01*
X1351617Y1415304D02*
Y1425461D01*
X1341461Y1415304D01*
X1338922D01*
X1336382Y1417843D01*
Y1422922D01*
X1338922Y1425461D01*
X1939617Y1793304D02*
X1924382D01*
Y1800922D01*
X1926922Y1803461D01*
X1929461D01*
X1932000Y1800922D01*
Y1793304D01*
Y1800922D01*
X1934539Y1803461D01*
X1937078D01*
X1939617Y1800922D01*
Y1793304D01*
Y1808539D02*
Y1818696D01*
X1937078D01*
X1926922Y1808539D01*
X1924382D01*
X1548922Y1430539D02*
X1546382Y1433078D01*
Y1438157D01*
X1548922Y1440696D01*
X1559078D01*
X1561617Y1438157D01*
Y1433078D01*
X1559078Y1430539D01*
X1546382Y1415304D02*
X1548922Y1420383D01*
X1554000Y1425461D01*
X1559078D01*
X1561617Y1422922D01*
Y1417843D01*
X1559078Y1415304D01*
X1556539D01*
X1554000Y1417843D01*
Y1425461D01*
M02*
